New_Shree-Medium.ufo
<glyph name="Danda" format="1">
  <advance width="235"/>
  <outline>
    <contour>
      <point x="200" y="506" type="line"/>
      <point x="200" y="-20" type="line"/>
      <point x="140" y="-20" type="line"/>
      <point x="140" y="506" type="line"/>
    </contour>
  </outline>
</glyph>
<glyph name="DoubleDanda" format="1">
  <advance width="370"/>
  <outline>
    <contour>
      <point x="200" y="506" type="line"/>
      <point x="200" y="-20" type="line"/>
      <point x="140" y="-20" type="line"/>
      <point x="140" y="506" type="line"/>
    </contour>
    <contour>
      <point x="328" y="506" type="line"/>
      <point x="328" y="-20" type="line"/>
      <point x="268" y="-20" type="line"/>
      <point x="268" y="506" type="line"/>
    </contour>
  </outline>
</glyph>
<glyph name="bA" format="1">
  <advance width="586"/>
  <outline>
    <contour>
      <point x="352" y="77"/>
      <point x="411" y="148"/>
      <point x="411" y="239" type="curve"/>
      <point x="411" y="344"/>
      <point x="334" y="423"/>
      <point x="245" y="423" type="curve" smooth="yes"/>
      <point x="188" y="423"/>
      <point x="149" y="390"/>
      <point x="149" y="343" type="curve" smooth="yes"/>
      <point x="149" y="301"/>
      <point x="181" y="267"/>
      <point x="223" y="267" type="curve" smooth="yes"/>
      <point x="262" y="267"/>
      <point x="293" y="295"/>
      <point x="293" y="337" type="curve" smooth="yes"/>
      <point x="293" y="359"/>
      <point x="285" y="378"/>
      <point x="273" y="391" type="curve"/>
      <point x="258" y="355" type="line"/>
      <point x="266" y="357"/>
      <point x="274" y="358"/>
      <point x="282" y="358" type="curve" smooth="yes"/>
      <point x="325" y="358"/>
      <point x="358" y="321"/>
      <point x="358" y="272" type="curve" smooth="yes"/>
      <point x="358" y="211"/>
      <point x="309" y="167"/>
      <point x="241" y="167" type="curve" smooth="yes"/>
      <point x="167" y="167"/>
      <point x="104" y="221"/>
      <point x="35" y="415" type="curve"/>
      <point x="-3" y="400" type="line"/>
      <point x="66" y="184"/>
      <point x="153" y="77"/>
      <point x="262" y="77" type="curve" smooth="yes"/>
    </contour>
    <contour>
      <point x="526" y="0" type="line"/>
      <point x="526" y="466" type="line"/>
      <point x="466" y="466" type="line"/>
      <point x="466" y="107" type="line"/>
      <point x="495" y="85" type="line"/>
      <point x="471" y="159"/>
      <point x="425" y="224"/>
      <point x="386" y="259" type="curve"/>
      <point x="370" y="182" type="line"/>
      <point x="427" y="157"/>
      <point x="475" y="88"/>
      <point x="484" y="0" type="curve"/>
    </contour>
    <contour>
      <point x="606" y="456" type="line"/>
      <point x="606" y="506" type="line"/>
      <point x="-20" y="506" type="line"/>
      <point x="-20" y="456" type="line"/>
    </contour>
  </outline>
</glyph>
<glyph name="bAa" format="1">
  <advance width="763"/>
  <outline>
    <contour>
      <point x="352" y="77"/>
      <point x="411" y="148"/>
      <point x="411" y="239" type="curve"/>
      <point x="411" y="344"/>
      <point x="334" y="423"/>
      <point x="245" y="423" type="curve" smooth="yes"/>
      <point x="188" y="423"/>
      <point x="149" y="390"/>
      <point x="149" y="343" type="curve" smooth="yes"/>
      <point x="149" y="301"/>
      <point x="181" y="267"/>
      <point x="223" y="267" type="curve" smooth="yes"/>
      <point x="262" y="267"/>
      <point x="293" y="295"/>
      <point x="293" y="337" type="curve" smooth="yes"/>
      <point x="293" y="359"/>
      <point x="285" y="378"/>
      <point x="273" y="391" type="curve"/>
      <point x="258" y="355" type="line"/>
      <point x="266" y="357"/>
      <point x="274" y="358"/>
      <point x="282" y="358" type="curve" smooth="yes"/>
      <point x="325" y="358"/>
      <point x="358" y="321"/>
      <point x="358" y="272" type="curve" smooth="yes"/>
      <point x="358" y="211"/>
      <point x="309" y="167"/>
      <point x="241" y="167" type="curve" smooth="yes"/>
      <point x="167" y="167"/>
      <point x="104" y="221"/>
      <point x="35" y="415" type="curve"/>
      <point x="-3" y="400" type="line"/>
      <point x="66" y="184"/>
      <point x="153" y="77"/>
      <point x="262" y="77" type="curve" smooth="yes"/>
    </contour>
    <contour>
      <point x="526" y="0" type="line"/>
      <point x="526" y="466" type="line"/>
      <point x="466" y="466" type="line"/>
      <point x="466" y="107" type="line"/>
      <point x="495" y="85" type="line"/>
      <point x="471" y="159"/>
      <point x="425" y="224"/>
      <point x="386" y="259" type="curve"/>
      <point x="370" y="182" type="line"/>
      <point x="427" y="157"/>
      <point x="475" y="88"/>
      <point x="484" y="0" type="curve"/>
    </contour>
    <contour>
      <point x="576" y="456" type="line"/>
      <point x="576" y="506" type="line"/>
      <point x="-20" y="506" type="line"/>
      <point x="-20" y="456" type="line"/>
    </contour>
    <contour>
      <point x="702" y="0" type="line"/>
      <point x="702" y="456" type="line"/>
      <point x="782" y="456" type="line"/>
      <point x="782" y="506" type="line"/>
      <point x="657" y="506" type="line"/>
      <point x="642" y="376" type="line"/>
      <point x="667" y="389" type="line"/>
      <point x="657" y="463"/>
      <point x="634" y="506"/>
      <point x="596" y="506" type="curve" smooth="yes"/>
      <point x="555" y="506" type="line"/>
      <point x="555" y="456" type="line"/>
      <point x="586" y="456" type="line" smooth="yes"/>
      <point x="627" y="456"/>
      <point x="642" y="410"/>
      <point x="642" y="356" type="curve" smooth="yes"/>
      <point x="642" y="0" type="line"/>
    </contour>
  </outline>
</glyph>
<glyph name="bAi" format="1">
  <advance width="570"/>
  <outline>
    <contour>
      <point x="477" y="0" type="line"/>
      <point x="477" y="393" type="line" smooth="yes"/>
      <point x="477" y="450"/>
      <point x="425" y="515"/>
      <point x="365" y="515" type="curve" smooth="yes"/>
      <point x="285" y="515"/>
      <point x="172" y="403"/>
      <point x="172" y="305" type="curve" smooth="yes"/>
      <point x="172" y="244"/>
      <point x="216" y="200"/>
      <point x="272" y="200" type="curve" smooth="yes"/>
      <point x="317" y="200"/>
      <point x="347" y="229"/>
      <point x="347" y="266" type="curve" smooth="yes"/>
      <point x="347" y="301"/>
      <point x="318" y="328"/>
      <point x="286" y="328" type="curve" smooth="yes"/>
      <point x="260" y="328"/>
      <point x="239" y="312"/>
      <point x="230" y="291" type="curve"/>
      <point x="264" y="266" type="line"/>
      <point x="258" y="276"/>
      <point x="256" y="289"/>
      <point x="256" y="297" type="curve" smooth="yes"/>
      <point x="256" y="358"/>
      <point x="354" y="453"/>
      <point x="395" y="453" type="curve" smooth="yes"/>
      <point x="410" y="453"/>
      <point x="417" y="441"/>
      <point x="417" y="423" type="curve" smooth="yes"/>
      <point x="417" y="81" type="line"/>
      <point x="443" y="53" type="line"/>
      <point x="425" y="115"/>
      <point x="381" y="156"/>
      <point x="321" y="156" type="curve" smooth="yes"/>
      <point x="292" y="156"/>
      <point x="222" y="146"/>
      <point x="186" y="146" type="curve" smooth="yes"/>
      <point x="108" y="146"/>
      <point x="64" y="195"/>
      <point x="64" y="265" type="curve" smooth="yes"/>
      <point x="64" y="302"/>
      <point x="77" y="337"/>
      <point x="93" y="364" type="curve"/>
      <point x="61" y="382" type="line"/>
      <point x="34" y="344"/>
      <point x="20" y="301"/>
      <point x="20" y="257" type="curve" smooth="yes"/>
      <point x="20" y="149"/>
      <point x="103" y="66"/>
      <point x="215" y="66" type="curve" smooth="yes"/>
      <point x="258" y="66"/>
      <point x="324" y="79"/>
      <point x="359" y="79" type="curve" smooth="yes"/>
      <point x="408" y="79"/>
      <point x="431" y="54"/>
      <point x="435" y="0" type="curve"/>
    </contour>
    <contour>
      <point x="534" y="336"/>
      <point x="560" y="384"/>
      <point x="560" y="440" type="curve" smooth="yes"/>
      <point x="560" y="529"/>
      <point x="493" y="610"/>
      <point x="374" y="640" type="curve" smooth="yes"/>
      <point x="266" y="668"/>
      <point x="193" y="676"/>
      <point x="193" y="711" type="curve" smooth="yes"/>
      <point x="193" y="724"/>
      <point x="201" y="737"/>
      <point x="216" y="752" type="curve"/>
      <point x="191" y="772" type="line"/>
      <point x="165" y="751"/>
      <point x="151" y="726"/>
      <point x="151" y="698" type="curve" smooth="yes"/>
      <point x="151" y="621"/>
      <point x="257" y="592"/>
      <point x="342" y="572" type="curve" smooth="yes"/>
      <point x="405" y="558"/>
      <point x="520" y="530"/>
      <point x="520" y="445" type="curve" smooth="yes"/>
      <point x="520" y="410"/>
      <point x="501" y="387"/>
      <point x="472" y="386" type="curve"/>
      <point x="472" y="310" type="line"/>
    </contour>
  </outline>
</glyph>
<glyph name="bAnusvara" format="1">
  <advance width="310"/>
  <outline>
    <contour>
      <point x="291" y="20" type="line"/>
      <point x="228" y="139"/>
      <point x="151" y="224"/>
      <point x="61" y="267" type="curve"/>
      <point x="29" y="182" type="line"/>
      <point x="127" y="145"/>
      <point x="204" y="73"/>
      <point x="256" y="-7" type="curve"/>
    </contour>
    <contour>
      <point x="226" y="290"/>
      <point x="272" y="338"/>
      <point x="272" y="397" type="curve" smooth="yes"/>
      <point x="272" y="459"/>
      <point x="222" y="515"/>
      <point x="155" y="515" type="curve" smooth="yes"/>
      <point x="94" y="515"/>
      <point x="45" y="469"/>
      <point x="45" y="408" type="curve" smooth="yes"/>
      <point x="45" y="345"/>
      <point x="96" y="290"/>
      <point x="163" y="290" type="curve" smooth="yes"/>
    </contour>
    <contour>
      <point x="114" y="347"/>
      <point x="100" y="362"/>
      <point x="100" y="382" type="curve" smooth="yes"/>
      <point x="100" y="417"/>
      <point x="144" y="456"/>
      <point x="182" y="456" type="curve" smooth="yes"/>
      <point x="205" y="456"/>
      <point x="218" y="440"/>
      <point x="218" y="421" type="curve" smooth="yes"/>
      <point x="218" y="386"/>
      <point x="174" y="347"/>
      <point x="137" y="347" type="curve" smooth="yes"/>
    </contour>
  </outline>
</glyph>
<glyph name="bAu" format="1">
  <advance width="582"/>
  <outline>
    <contour>
      <point x="455" y="24"/>
      <point x="517" y="89"/>
      <point x="517" y="171" type="curve" smooth="yes"/>
      <point x="517" y="233"/>
      <point x="480" y="278"/>
      <point x="446" y="300" type="curve"/>
      <point x="427" y="246" type="line"/>
      <point x="468" y="270"/>
      <point x="497" y="324"/>
      <point x="497" y="375" type="curve" smooth="yes"/>
      <point x="497" y="450"/>
      <point x="434" y="515"/>
      <point x="343" y="515" type="curve" smooth="yes"/>
      <point x="245" y="515"/>
      <point x="151" y="439"/>
      <point x="151" y="354" type="curve" smooth="yes"/>
      <point x="151" y="305"/>
      <point x="183" y="269"/>
      <point x="222" y="269" type="curve" smooth="yes"/>
      <point x="255" y="269"/>
      <point x="281" y="295"/>
      <point x="281" y="328" type="curve" smooth="yes"/>
      <point x="281" y="369"/>
      <point x="244" y="401"/>
      <point x="200" y="390" type="curve"/>
      <point x="229" y="340" type="line"/>
      <point x="257" y="419"/>
      <point x="322" y="455"/>
      <point x="377" y="455" type="curve" smooth="yes"/>
      <point x="418" y="455"/>
      <point x="440" y="434"/>
      <point x="440" y="402" type="curve" smooth="yes"/>
      <point x="440" y="374"/>
      <point x="422" y="340"/>
      <point x="392" y="322" type="curve"/>
      <point x="446" y="298" type="line"/>
      <point x="432" y="325"/>
      <point x="406" y="347"/>
      <point x="373" y="347" type="curve" smooth="yes"/>
      <point x="337" y="347"/>
      <point x="310" y="319"/>
      <point x="310" y="285" type="curve" smooth="yes"/>
      <point x="310" y="249"/>
      <point x="339" y="221"/>
      <point x="376" y="221" type="curve" smooth="yes"/>
      <point x="410" y="221"/>
      <point x="437" y="244"/>
      <point x="453" y="269" type="curve"/>
      <point x="408" y="266" type="line"/>
      <point x="442" y="255"/>
      <point x="456" y="235"/>
      <point x="456" y="205" type="curve" smooth="yes"/>
      <point x="456" y="152"/>
      <point x="412" y="113"/>
      <point x="343" y="113" type="curve" smooth="yes"/>
      <point x="241" y="113"/>
      <point x="133" y="196"/>
      <point x="51" y="426" type="curve"/>
      <point x="12" y="410" type="line"/>
      <point x="98" y="152"/>
      <point x="230" y="24"/>
      <point x="361" y="24" type="curve" smooth="yes"/>
    </contour>
    <contour>
      <point x="530" y="298"/>
      <point x="565" y="361"/>
      <point x="565" y="430" type="curve" smooth="yes"/>
      <point x="565" y="526"/>
      <point x="498" y="610"/>
      <point x="374" y="640" type="curve" smooth="yes"/>
      <point x="260" y="669"/>
      <point x="188" y="677"/>
      <point x="188" y="712" type="curve" smooth="yes"/>
      <point x="188" y="725"/>
      <point x="196" y="737"/>
      <point x="211" y="752" type="curve"/>
      <point x="186" y="772" type="line"/>
      <point x="161" y="752"/>
      <point x="146" y="727"/>
      <point x="146" y="699" type="curve" smooth="yes"/>
      <point x="146" y="620"/>
      <point x="259" y="592"/>
      <point x="342" y="572" type="curve" smooth="yes"/>
      <point x="416" y="555"/>
      <point x="525" y="528"/>
      <point x="525" y="437" type="curve" smooth="yes"/>
      <point x="525" y="387"/>
      <point x="492" y="348"/>
      <point x="439" y="326" type="curve"/>
      <point x="442" y="254" type="line"/>
    </contour>
  </outline>
</glyph>
<glyph name="bAuMarkReph" format="1">
  <advance width="189"/>
  <outline>
    <contour>
      <point x="118" y="586"/>
      <point x="71" y="645"/>
      <point x="-29" y="645" type="curve" smooth="yes"/>
      <point x="-79" y="645"/>
      <point x="-189" y="630"/>
      <point x="-240" y="630" type="curve" smooth="yes"/>
      <point x="-296" y="630"/>
      <point x="-318" y="647"/>
      <point x="-318" y="673" type="curve" smooth="yes"/>
      <point x="-318" y="688"/>
      <point x="-311" y="704"/>
      <point x="-299" y="719" type="curve"/>
      <point x="-331" y="739" type="line"/>
      <point x="-348" y="719"/>
      <point x="-361" y="695"/>
      <point x="-361" y="665" type="curve" smooth="yes"/>
      <point x="-361" y="605"/>
      <point x="-304" y="562"/>
      <point x="-215" y="562" type="curve" smooth="yes"/>
      <point x="-168" y="562"/>
      <point x="-27" y="574"/>
      <point x="16" y="574" type="curve" smooth="yes"/>
      <point x="61" y="574"/>
      <point x="75" y="561"/>
      <point x="75" y="532" type="curve" smooth="yes"/>
      <point x="75" y="522"/>
      <point x="73" y="511"/>
      <point x="69" y="501" type="curve"/>
      <point x="127" y="500" type="line"/>
    </contour>
    <contour>
      <point x="69" y="0" type="line"/>
      <point x="129" y="0" type="line"/>
      <point x="129" y="467" type="line"/>
      <point x="69" y="467" type="line"/>
    </contour>
    <contour>
      <point x="209" y="456" type="line"/>
      <point x="209" y="506" type="line"/>
      <point x="-20" y="506" type="line"/>
      <point x="-20" y="456" type="line"/>
    </contour>
    <contour>
      <point x="-152" y="525" type="line"/>
      <point x="-61" y="525" type="line"/>
      <point x="117" y="752" type="line"/>
      <point x="89" y="773" type="line"/>
    </contour>
  </outline>
</glyph>
<glyph name="bAvagraha" format="1">
  <advance width="431"/>
  <outline>
    <contour>
      <point x="442" y="-5" type="line"/>
      <point x="310" y="89"/>
      <point x="249" y="122"/>
      <point x="164" y="151" type="curve"/>
      <point x="186" y="110" type="line"/>
      <point x="298" y="110"/>
      <point x="384" y="178"/>
      <point x="384" y="268" type="curve" smooth="yes"/>
      <point x="384" y="355"/>
      <point x="306" y="427"/>
      <point x="198" y="427" type="curve" smooth="yes"/>
      <point x="111" y="427"/>
      <point x="52" y="381"/>
      <point x="52" y="326" type="curve" smooth="yes"/>
      <point x="52" y="286"/>
      <point x="83" y="254"/>
      <point x="128" y="254" type="curve" smooth="yes"/>
      <point x="180" y="254"/>
      <point x="223" y="296"/>
      <point x="223" y="350" type="curve" smooth="yes"/>
      <point x="223" y="361"/>
      <point x="221" y="375"/>
      <point x="212" y="390" type="curve"/>
      <point x="188" y="344" type="line"/>
      <point x="206" y="354"/>
      <point x="223" y="362"/>
      <point x="249" y="362" type="curve" smooth="yes"/>
      <point x="299" y="362"/>
      <point x="325" y="335"/>
      <point x="325" y="297" type="curve" smooth="yes"/>
      <point x="325" y="236"/>
      <point x="258" y="184"/>
      <point x="150" y="184" type="curve" smooth="yes"/>
      <point x="113" y="184"/>
      <point x="63" y="190"/>
      <point x="28" y="199" type="curve"/>
      <point x="78" y="96" type="line"/>
      <point x="205" y="74"/>
      <point x="278" y="49"/>
      <point x="416" y="-37" type="curve"/>
    </contour>
    <contour>
      <point x="209" y="456" type="line"/>
      <point x="209" y="506" type="line"/>
      <point x="-20" y="506" type="line"/>
      <point x="-20" y="456" type="line"/>
    </contour>
  </outline>
</glyph>
<glyph name="bBBa" format="1">
  <advance width="718"/>
  <outline>
    <contour>
      <point x="658" y="0" type="line"/>
      <point x="658" y="466" type="line"/>
      <point x="598" y="466" type="line"/>
      <point x="598" y="72" type="line"/>
      <point x="629" y="59" type="line"/>
      <point x="586" y="165"/>
      <point x="486" y="249"/>
      <point x="385" y="277" type="curve"/>
      <point x="393" y="234" type="line"/>
      <point x="463" y="289"/>
      <point x="552" y="335"/>
      <point x="642" y="361" type="curve"/>
      <point x="621" y="440" type="line"/>
      <point x="532" y="420"/>
      <point x="410" y="357"/>
      <point x="320" y="289" type="curve"/>
      <point x="392" y="190" type="line"/>
      <point x="496" y="174"/>
      <point x="589" y="112"/>
      <point x="615" y="0" type="curve"/>
    </contour>
    <contour>
      <point x="361" y="28" type="line"/>
      <point x="361" y="466" type="line"/>
      <point x="301" y="466" type="line"/>
      <point x="301" y="95" type="line"/>
      <point x="326" y="80" type="line"/>
      <point x="291" y="187"/>
      <point x="187" y="255"/>
      <point x="81" y="277" type="curve"/>
      <point x="86" y="235" type="line"/>
      <point x="159" y="290"/>
      <point x="252" y="335"/>
      <point x="345" y="361" type="curve"/>
      <point x="324" y="440" type="line"/>
      <point x="232" y="421"/>
      <point x="103" y="361"/>
      <point x="10" y="290" type="curve"/>
      <point x="76" y="194" type="line"/>
      <point x="208" y="180"/>
      <point x="294" y="125"/>
      <point x="318" y="28" type="curve"/>
    </contour>
    <contour>
      <point x="441" y="456" type="line"/>
      <point x="441" y="506" type="line"/>
      <point x="-20" y="506" type="line"/>
      <point x="-20" y="456" type="line"/>
    </contour>
    <contour>
      <point x="738" y="456" type="line"/>
      <point x="738" y="506" type="line"/>
      <point x="331" y="506" type="line"/>
      <point x="331" y="456" type="line"/>
    </contour>
  </outline>
</glyph>
<glyph name="bBBha" format="1">
  <advance width="510"/>
  <outline>
    <contour>
      <point x="430" y="-57"/>
      <point x="501" y="14"/>
      <point x="501" y="112" type="curve" smooth="yes"/>
      <point x="501" y="177"/>
      <point x="470" y="234"/>
      <point x="432" y="269" type="curve"/>
      <point x="393" y="206"/>
      <point x="337" y="164"/>
      <point x="282" y="164" type="curve" smooth="yes"/>
      <point x="270" y="164"/>
      <point x="254" y="166"/>
      <point x="241" y="173" type="curve"/>
      <point x="259" y="132" type="line"/>
      <point x="278" y="142"/>
      <point x="289" y="158"/>
      <point x="289" y="179" type="curve" smooth="yes"/>
      <point x="289" y="212"/>
      <point x="264" y="233"/>
      <point x="236" y="233" type="curve" smooth="yes"/>
      <point x="206" y="233"/>
      <point x="183" y="209"/>
      <point x="183" y="177" type="curve" smooth="yes"/>
      <point x="183" y="133"/>
      <point x="226" y="95"/>
      <point x="291" y="95" type="curve" smooth="yes"/>
      <point x="366" y="95"/>
      <point x="433" y="147"/>
      <point x="467" y="202" type="curve"/>
      <point x="424" y="204" type="line"/>
      <point x="439" y="186"/>
      <point x="446" y="164"/>
      <point x="446" y="140" type="curve" smooth="yes"/>
      <point x="446" y="76"/>
      <point x="391" y="31"/>
      <point x="317" y="31" type="curve" smooth="yes"/>
      <point x="198" y="31"/>
      <point x="114" y="143"/>
      <point x="42" y="393" type="curve"/>
      <point x="0" y="380" type="line"/>
      <point x="78" y="93"/>
      <point x="186" y="-57"/>
      <point x="331" y="-57" type="curve" smooth="yes"/>
    </contour>
    <contour>
      <point x="386" y="168" type="line"/>
      <point x="348" y="255"/>
      <point x="287" y="326"/>
      <point x="177" y="344" type="curve"/>
      <point x="199" y="302" type="line"/>
      <point x="250" y="338"/>
      <point x="314" y="362"/>
      <point x="371" y="376" type="curve"/>
      <point x="345" y="439" type="line"/>
      <point x="286" y="428"/>
      <point x="209" y="398"/>
      <point x="136" y="351" type="curve"/>
      <point x="185" y="279" type="line"/>
      <point x="266" y="270"/>
      <point x="318" y="239"/>
      <point x="349" y="168" type="curve"/>
    </contour>
    <contour>
      <point x="389" y="467" type="line"/>
      <point x="339" y="467" type="line"/>
      <point x="339" y="198" type="line"/>
      <point x="389" y="168" type="line"/>
    </contour>
    <contour>
      <point x="530" y="456" type="line"/>
      <point x="530" y="506" type="line"/>
      <point x="-20" y="506" type="line"/>
      <point x="-20" y="456" type="line"/>
    </contour>
  </outline>
</glyph>
<glyph name="bBDRa" format="1">
  <advance width="637"/>
  <outline>
    <contour>
      <point x="557" y="-42" type="line"/>
      <point x="544" y="21"/>
      <point x="538" y="82"/>
      <point x="538" y="125" type="curve" smooth="yes"/>
      <point x="538" y="207"/>
      <point x="559" y="269"/>
      <point x="614" y="340" type="curve"/>
      <point x="537" y="412" type="line"/>
      <point x="445" y="377"/>
      <point x="364" y="299"/>
      <point x="316" y="209" type="curve"/>
      <point x="344" y="173" type="line"/>
      <point x="344" y="467" type="line"/>
      <point x="284" y="467" type="line"/>
      <point x="284" y="159" type="line"/>
      <point x="351" y="120" type="line"/>
      <point x="404" y="218"/>
      <point x="471" y="284"/>
      <point x="539" y="320" type="curve"/>
      <point x="531" y="366" type="line"/>
      <point x="500" y="324"/>
      <point x="484" y="248"/>
      <point x="484" y="171" type="curve" smooth="yes"/>
      <point x="484" y="117"/>
      <point x="492" y="58"/>
      <point x="505" y="-4" type="curve"/>
      <point x="523" y="-2" type="line"/>
      <point x="498" y="53"/>
      <point x="442" y="83"/>
      <point x="380" y="83" type="curve" smooth="yes"/>
      <point x="343" y="83"/>
      <point x="224" y="73"/>
      <point x="179" y="73" type="curve" smooth="yes"/>
      <point x="113" y="73"/>
      <point x="83" y="94"/>
      <point x="83" y="138" type="curve" smooth="yes"/>
      <point x="83" y="154"/>
      <point x="87" y="172"/>
      <point x="93" y="187" type="curve"/>
      <point x="59" y="199" type="line"/>
      <point x="49" y="179"/>
      <point x="43" y="155"/>
      <point x="43" y="132" type="curve" smooth="yes"/>
      <point x="43" y="58"/>
      <point x="109" y="-3"/>
      <point x="210" y="-3" type="curve" smooth="yes"/>
      <point x="262" y="-3"/>
      <point x="383" y="14"/>
      <point x="431" y="14" type="curve" smooth="yes"/>
      <point x="480" y="14"/>
      <point x="506" y="-6"/>
      <point x="516" y="-49" type="curve"/>
    </contour>
    <contour>
      <point x="308" y="179" type="line"/>
      <point x="266" y="256"/>
      <point x="184" y="311"/>
      <point x="87" y="328" type="curve"/>
      <point x="114" y="284" type="line"/>
      <point x="185" y="328"/>
      <point x="249" y="354"/>
      <point x="320" y="369" type="curve"/>
      <point x="303" y="439" type="line"/>
      <point x="236" y="426"/>
      <point x="140" y="391"/>
      <point x="47" y="336" type="curve"/>
      <point x="98" y="258" type="line"/>
      <point x="185" y="244"/>
      <point x="248" y="214"/>
      <point x="284" y="159" type="curve"/>
    </contour>
    <contour>
      <point x="500" y="456" type="line"/>
      <point x="500" y="506" type="line"/>
      <point x="-20" y="506" type="line"/>
      <point x="-20" y="456" type="line"/>
    </contour>
    <contour>
      <point x="656" y="456" type="line"/>
      <point x="656" y="506" type="line"/>
      <point x="221" y="506" type="line"/>
      <point x="221" y="456" type="line"/>
    </contour>
  </outline>
</glyph>
<glyph name="bBDa" format="1">
  <advance width="593"/>
  <outline>
    <contour>
      <point x="507" y="-10" type="line"/>
      <point x="498" y="46"/>
      <point x="493" y="101"/>
      <point x="493" y="137" type="curve" smooth="yes"/>
      <point x="493" y="214"/>
      <point x="514" y="271"/>
      <point x="571" y="335" type="curve"/>
      <point x="494" y="407" type="line"/>
      <point x="401" y="370"/>
      <point x="321" y="288"/>
      <point x="272" y="194" type="curve"/>
      <point x="300" y="165" type="line"/>
      <point x="300" y="467" type="line"/>
      <point x="240" y="467" type="line"/>
      <point x="240" y="145" type="line"/>
      <point x="307" y="93" type="line"/>
      <point x="361" y="203"/>
      <point x="428" y="275"/>
      <point x="496" y="315" type="curve"/>
      <point x="488" y="361" type="line"/>
      <point x="456" y="323"/>
      <point x="439" y="256"/>
      <point x="439" y="182" type="curve" smooth="yes"/>
      <point x="439" y="125"/>
      <point x="449" y="55"/>
      <point x="465" y="-17" type="curve"/>
    </contour>
    <contour>
      <point x="264" y="167" type="line"/>
      <point x="224" y="247"/>
      <point x="140" y="303"/>
      <point x="43" y="321" type="curve"/>
      <point x="70" y="277" type="line"/>
      <point x="141" y="325"/>
      <point x="205" y="353"/>
      <point x="276" y="369" type="curve"/>
      <point x="259" y="439" type="line"/>
      <point x="192" y="425"/>
      <point x="97" y="387"/>
      <point x="3" y="329" type="curve"/>
      <point x="54" y="249" type="line"/>
      <point x="141" y="238"/>
      <point x="206" y="204"/>
      <point x="240" y="145" type="curve"/>
    </contour>
    <contour>
      <point x="467" y="456" type="line"/>
      <point x="467" y="506" type="line"/>
      <point x="-20" y="506" type="line"/>
      <point x="-20" y="456" type="line"/>
    </contour>
    <contour>
      <point x="613" y="456" type="line"/>
      <point x="613" y="506" type="line"/>
      <point x="178" y="506" type="line"/>
      <point x="178" y="456" type="line"/>
    </contour>
  </outline>
</glyph>
<glyph name="bBDda" format="1">
  <advance width="597"/>
  <outline>
    <contour>
      <point x="498" y="-4"/>
      <point x="572" y="71"/>
      <point x="572" y="178" type="curve" smooth="yes"/>
      <point x="572" y="258"/>
      <point x="529" y="318"/>
      <point x="479" y="360" type="curve"/>
      <point x="437" y="281"/>
      <point x="389" y="231"/>
      <point x="364" y="231" type="curve" smooth="yes"/>
      <point x="355" y="231"/>
      <point x="350" y="238"/>
      <point x="350" y="250" type="curve" smooth="yes"/>
      <point x="350" y="466" type="line"/>
      <point x="295" y="466" type="line"/>
      <point x="295" y="272" type="line" smooth="yes"/>
      <point x="295" y="219"/>
      <point x="343" y="166"/>
      <point x="390" y="166" type="curve" smooth="yes"/>
      <point x="433" y="166"/>
      <point x="487" y="212"/>
      <point x="521" y="283" type="curve"/>
      <point x="477" y="297" type="line"/>
      <point x="504" y="277"/>
      <point x="521" y="241"/>
      <point x="521" y="205" type="curve" smooth="yes"/>
      <point x="521" y="137"/>
      <point x="460" y="82"/>
      <point x="368" y="82" type="curve" smooth="yes"/>
      <point x="253" y="82"/>
      <point x="132" y="170"/>
      <point x="39" y="417" type="curve"/>
      <point x="0" y="400" type="line"/>
      <point x="100" y="112"/>
      <point x="247" y="-4"/>
      <point x="386" y="-4" type="curve" smooth="yes"/>
    </contour>
    <contour>
      <point x="330" y="238" type="line"/>
      <point x="298" y="287"/>
      <point x="244" y="322"/>
      <point x="164" y="340" type="curve"/>
      <point x="181" y="320" type="line"/>
      <point x="232" y="350"/>
      <point x="279" y="371"/>
      <point x="322" y="383" type="curve"/>
      <point x="303" y="445" type="line"/>
      <point x="233" y="423"/>
      <point x="184" y="401"/>
      <point x="111" y="358" type="curve"/>
      <point x="161" y="280" type="line"/>
      <point x="231" y="273"/>
      <point x="287" y="252"/>
      <point x="315" y="214" type="curve"/>
    </contour>
    <contour>
      <point x="617" y="456" type="line"/>
      <point x="617" y="506" type="line"/>
      <point x="-20" y="506" type="line"/>
      <point x="-20" y="456" type="line"/>
    </contour>
  </outline>
</glyph>
<glyph name="bBDdha" format="1">
  <advance width="585"/>
  <outline>
    <contour>
      <point x="433" y="5"/>
      <point x="553" y="155"/>
      <point x="553" y="261" type="curve" smooth="yes"/>
      <point x="553" y="320"/>
      <point x="516" y="369"/>
      <point x="463" y="369" type="curve" smooth="yes"/>
      <point x="420" y="369"/>
      <point x="389" y="337"/>
      <point x="389" y="299" type="curve" smooth="yes"/>
      <point x="389" y="261"/>
      <point x="421" y="229"/>
      <point x="463" y="229" type="curve" smooth="yes"/>
      <point x="480" y="229"/>
      <point x="493" y="234"/>
      <point x="506" y="245" type="curve"/>
      <point x="474" y="279" type="line"/>
      <point x="474" y="201"/>
      <point x="383" y="76"/>
      <point x="327" y="76" type="curve" smooth="yes"/>
      <point x="308" y="76"/>
      <point x="300" y="90"/>
      <point x="300" y="126" type="curve" smooth="yes"/>
      <point x="300" y="472" type="line"/>
      <point x="240" y="472" type="line"/>
      <point x="240" y="153" type="line" smooth="yes"/>
      <point x="240" y="66"/>
      <point x="298" y="5"/>
      <point x="351" y="5" type="curve" smooth="yes"/>
    </contour>
    <contour>
      <point x="264" y="167" type="line"/>
      <point x="223" y="247"/>
      <point x="138" y="303"/>
      <point x="38" y="321" type="curve"/>
      <point x="70" y="277" type="line"/>
      <point x="141" y="325"/>
      <point x="205" y="353"/>
      <point x="276" y="369" type="curve"/>
      <point x="259" y="439" type="line"/>
      <point x="192" y="425"/>
      <point x="97" y="387"/>
      <point x="3" y="329" type="curve"/>
      <point x="54" y="249" type="line"/>
      <point x="144" y="238"/>
      <point x="210" y="201"/>
      <point x="243" y="140" type="curve"/>
    </contour>
    <contour>
      <point x="605" y="456" type="line"/>
      <point x="605" y="506" type="line"/>
      <point x="-20" y="506" type="line"/>
      <point x="-20" y="456" type="line"/>
    </contour>
  </outline>
</glyph>
<glyph name="bBDha" format="1">
  <advance width="540"/>
  <outline>
    <contour>
      <point x="347" y="-55" type="line"/>
      <point x="347" y="468" type="line"/>
      <point x="287" y="467" type="line"/>
      <point x="287" y="20" type="line"/>
      <point x="320" y="-11" type="line"/>
      <point x="288" y="68"/>
      <point x="204" y="134"/>
      <point x="108" y="141" type="curve"/>
      <point x="133" y="97" type="line"/>
      <point x="207" y="155"/>
      <point x="269" y="192"/>
      <point x="336" y="222" type="curve"/>
      <point x="316" y="293" type="line"/>
      <point x="257" y="267"/>
      <point x="167" y="217"/>
      <point x="65" y="141" type="curve"/>
      <point x="118" y="71" type="line"/>
      <point x="212" y="69"/>
      <point x="287" y="23"/>
      <point x="307" y="-55" type="curve"/>
    </contour>
    <contour>
      <point x="212" y="197" type="line"/>
      <point x="165" y="244"/>
      <point x="121" y="272"/>
      <point x="66" y="281" type="curve"/>
      <point x="86" y="245" type="line"/>
      <point x="167" y="307"/>
      <point x="253" y="349"/>
      <point x="331" y="369" type="curve"/>
      <point x="310" y="439" type="line"/>
      <point x="218" y="417"/>
      <point x="112" y="363"/>
      <point x="13" y="288" type="curve"/>
      <point x="67" y="217" type="line"/>
      <point x="116" y="214"/>
      <point x="158" y="200"/>
      <point x="187" y="172" type="curve"/>
    </contour>
    <contour>
      <point x="516" y="-16" type="line"/>
      <point x="498" y="1"/>
      <point x="487" y="23"/>
      <point x="487" y="49" type="curve" smooth="yes"/>
      <point x="487" y="221" type="line" smooth="yes"/>
      <point x="487" y="268"/>
      <point x="439" y="326"/>
      <point x="402" y="326" type="curve" smooth="yes"/>
      <point x="384" y="326"/>
      <point x="349" y="313"/>
      <point x="311" y="291" type="curve"/>
      <point x="337" y="224" type="line"/>
      <point x="369" y="244"/>
      <point x="402" y="261"/>
      <point x="418" y="261" type="curve" smooth="yes"/>
      <point x="425" y="261"/>
      <point x="429" y="257"/>
      <point x="429" y="245" type="curve" smooth="yes"/>
      <point x="429" y="69" type="line" smooth="yes"/>
      <point x="429" y="11"/>
      <point x="456" y="-19"/>
      <point x="497" y="-44" type="curve"/>
    </contour>
    <contour>
      <point x="560" y="456" type="line"/>
      <point x="560" y="506" type="line"/>
      <point x="-20" y="506" type="line"/>
      <point x="-20" y="456" type="line"/>
    </contour>
  </outline>
</glyph>
<glyph name="bBJa" format="1">
  <advance width="696"/>
  <outline>
    <contour>
      <point x="458" y="-4"/>
      <point x="519" y="62"/>
      <point x="519" y="152" type="curve" smooth="yes"/>
      <point x="519" y="222"/>
      <point x="482" y="276"/>
      <point x="439" y="312" type="curve"/>
      <point x="408" y="253"/>
      <point x="374" y="216"/>
      <point x="354" y="216" type="curve" smooth="yes"/>
      <point x="346" y="216"/>
      <point x="340" y="222"/>
      <point x="340" y="235" type="curve" smooth="yes"/>
      <point x="340" y="466" type="line"/>
      <point x="285" y="466" type="line"/>
      <point x="285" y="257" type="line" smooth="yes"/>
      <point x="285" y="198"/>
      <point x="330" y="149"/>
      <point x="373" y="149" type="curve" smooth="yes"/>
      <point x="415" y="149"/>
      <point x="456" y="196"/>
      <point x="482" y="247" type="curve"/>
      <point x="435" y="251" type="line"/>
      <point x="455" y="233"/>
      <point x="469" y="208"/>
      <point x="469" y="178" type="curve" smooth="yes"/>
      <point x="469" y="122"/>
      <point x="420" y="81"/>
      <point x="345" y="81" type="curve" smooth="yes"/>
      <point x="240" y="81"/>
      <point x="126" y="167"/>
      <point x="39" y="417" type="curve"/>
      <point x="0" y="400" type="line"/>
      <point x="101" y="95"/>
      <point x="247" y="-4"/>
      <point x="362" y="-4" type="curve" smooth="yes"/>
    </contour>
    <contour>
      <point x="314" y="232" type="line"/>
      <point x="283" y="281"/>
      <point x="231" y="317"/>
      <point x="155" y="335" type="curve"/>
      <point x="172" y="312" type="line"/>
      <point x="222" y="346"/>
      <point x="270" y="369"/>
      <point x="312" y="383" type="curve"/>
      <point x="293" y="445" type="line"/>
      <point x="223" y="421"/>
      <point x="175" y="396"/>
      <point x="102" y="350" type="curve"/>
      <point x="152" y="274" type="line"/>
      <point x="219" y="269"/>
      <point x="272" y="247"/>
      <point x="297" y="208" type="curve"/>
    </contour>
    <contour>
      <point x="619" y="-23" type="line"/>
      <point x="608" y="38"/>
      <point x="604" y="100"/>
      <point x="604" y="139" type="curve" smooth="yes"/>
      <point x="604" y="214"/>
      <point x="618" y="270"/>
      <point x="667" y="330" type="curve"/>
      <point x="595" y="413" type="line"/>
      <point x="565" y="394"/>
      <point x="532" y="386"/>
      <point x="498" y="386" type="curve" smooth="yes"/>
      <point x="441" y="386"/>
      <point x="382" y="409"/>
      <point x="328" y="478" type="curve"/>
      <point x="305" y="453" type="line"/>
      <point x="384" y="353"/>
      <point x="459" y="321"/>
      <point x="530" y="321" type="curve" smooth="yes"/>
      <point x="567" y="321"/>
      <point x="599" y="329"/>
      <point x="630" y="347" type="curve"/>
      <point x="597" y="374" type="line"/>
      <point x="567" y="330"/>
      <point x="551" y="259"/>
      <point x="551" y="182" type="curve" smooth="yes"/>
      <point x="551" y="128"/>
      <point x="559" y="56"/>
      <point x="577" y="-31" type="curve"/>
    </contour>
    <contour>
      <point x="716" y="456" type="line"/>
      <point x="716" y="506" type="line"/>
      <point x="-20" y="506" type="line"/>
      <point x="-20" y="456" type="line"/>
    </contour>
  </outline>
</glyph>
<glyph name="bBJha" format="1">
  <advance width="538"/>
  <outline>
    <contour>
      <point x="347" y="-55" type="line"/>
      <point x="347" y="468" type="line"/>
      <point x="287" y="467" type="line"/>
      <point x="287" y="20" type="line"/>
      <point x="320" y="-11" type="line"/>
      <point x="288" y="68"/>
      <point x="204" y="134"/>
      <point x="108" y="141" type="curve"/>
      <point x="133" y="97" type="line"/>
      <point x="207" y="157"/>
      <point x="269" y="192"/>
      <point x="336" y="218" type="curve"/>
      <point x="316" y="290" type="line"/>
      <point x="257" y="267"/>
      <point x="167" y="221"/>
      <point x="65" y="141" type="curve"/>
      <point x="118" y="71" type="line"/>
      <point x="212" y="69"/>
      <point x="287" y="23"/>
      <point x="307" y="-55" type="curve"/>
    </contour>
    <contour>
      <point x="212" y="197" type="line"/>
      <point x="165" y="244"/>
      <point x="121" y="272"/>
      <point x="66" y="281" type="curve"/>
      <point x="86" y="245" type="line"/>
      <point x="167" y="307"/>
      <point x="253" y="349"/>
      <point x="331" y="369" type="curve"/>
      <point x="310" y="439" type="line"/>
      <point x="218" y="417"/>
      <point x="112" y="363"/>
      <point x="13" y="288" type="curve"/>
      <point x="67" y="217" type="line"/>
      <point x="116" y="214"/>
      <point x="158" y="200"/>
      <point x="187" y="172" type="curve"/>
    </contour>
    <contour>
      <point x="347" y="456" type="line"/>
      <point x="347" y="506" type="line"/>
      <point x="-20" y="506" type="line"/>
      <point x="-20" y="456" type="line"/>
    </contour>
    <contour>
      <point x="477" y="-17" type="line"/>
      <point x="477" y="456" type="line"/>
      <point x="557" y="456" type="line"/>
      <point x="557" y="506" type="line"/>
      <point x="417" y="506" type="line"/>
      <point x="417" y="58" type="line"/>
      <point x="449" y="35" type="line"/>
      <point x="429" y="98"/>
      <point x="389" y="147"/>
      <point x="334" y="181" type="curve"/>
      <point x="336" y="106" type="line"/>
      <point x="398" y="85"/>
      <point x="428" y="44"/>
      <point x="435" y="-17" type="curve"/>
    </contour>
  </outline>
</glyph>
<glyph name="bBLa" format="1">
  <advance width="436"/>
  <outline>
    <contour>
      <point x="376" y="37" type="line"/>
      <point x="376" y="466" type="line"/>
      <point x="316" y="466" type="line"/>
      <point x="316" y="107" type="line"/>
      <point x="341" y="93" type="line"/>
      <point x="305" y="192"/>
      <point x="210" y="262"/>
      <point x="96" y="282" type="curve"/>
      <point x="101" y="240" type="line"/>
      <point x="174" y="293"/>
      <point x="267" y="336"/>
      <point x="360" y="361" type="curve"/>
      <point x="339" y="440" type="line"/>
      <point x="247" y="421"/>
      <point x="118" y="363"/>
      <point x="25" y="295" type="curve"/>
      <point x="91" y="199" type="line"/>
      <point x="219" y="191"/>
      <point x="329" y="117"/>
      <point x="329" y="37" type="curve"/>
    </contour>
    <contour>
      <point x="169" y="-86"/>
      <point x="191" y="-63"/>
      <point x="191" y="-36" type="curve" smooth="yes"/>
      <point x="191" y="-11"/>
      <point x="172" y="10"/>
      <point x="148" y="10" type="curve" smooth="yes"/>
      <point x="127" y="10"/>
      <point x="110" y="-7"/>
      <point x="110" y="-28" type="curve" smooth="yes"/>
      <point x="110" y="-46"/>
      <point x="123" y="-63"/>
      <point x="143" y="-65" type="curve"/>
      <point x="152" y="-33" type="line"/>
      <point x="142" y="-42"/>
      <point x="129" y="-46"/>
      <point x="121" y="-46" type="curve" smooth="yes"/>
      <point x="103" y="-46"/>
      <point x="91" y="-29"/>
      <point x="91" y="-10" type="curve" smooth="yes"/>
      <point x="91" y="20"/>
      <point x="117" y="42"/>
      <point x="151" y="42" type="curve" smooth="yes"/>
      <point x="187" y="42"/>
      <point x="211" y="17"/>
      <point x="221" y="-24" type="curve"/>
      <point x="247" y="-24" type="line"/>
      <point x="247" y="9"/>
      <point x="259" y="27"/>
      <point x="279" y="27" type="curve" smooth="yes"/>
      <point x="306" y="27"/>
      <point x="329" y="-1"/>
      <point x="333" y="-54" type="curve"/>
      <point x="376" y="-54" type="line"/>
      <point x="376" y="57" type="line"/>
      <point x="328" y="57" type="line"/>
      <point x="328" y="-1" type="line"/>
      <point x="349" y="-25" type="line"/>
      <point x="338" y="42"/>
      <point x="294" y="93"/>
      <point x="255" y="93" type="curve" smooth="yes"/>
      <point x="228" y="93"/>
      <point x="202" y="69"/>
      <point x="202" y="34" type="curve"/>
      <point x="231" y="15" type="line"/>
      <point x="218" y="70"/>
      <point x="180" y="111"/>
      <point x="127" y="111" type="curve" smooth="yes"/>
      <point x="75" y="111"/>
      <point x="34" y="72"/>
      <point x="34" y="18" type="curve" smooth="yes"/>
      <point x="34" y="-38"/>
      <point x="79" y="-86"/>
      <point x="132" y="-86" type="curve" smooth="yes"/>
    </contour>
    <contour>
      <point x="456" y="456" type="line"/>
      <point x="456" y="506" type="line"/>
      <point x="-20" y="506" type="line"/>
      <point x="-20" y="456" type="line"/>
    </contour>
  </outline>
</glyph>
<glyph name="bBRa_bSignU" format="1">
  <advance width="632"/>
  <outline>
    <contour>
      <point x="407" y="48" type="line"/>
      <point x="407" y="466" type="line"/>
      <point x="347" y="466" type="line"/>
      <point x="347" y="114" type="line"/>
      <point x="372" y="100" type="line"/>
      <point x="340" y="201"/>
      <point x="236" y="267"/>
      <point x="127" y="287" type="curve"/>
      <point x="132" y="245" type="line"/>
      <point x="205" y="296"/>
      <point x="298" y="337"/>
      <point x="391" y="361" type="curve"/>
      <point x="370" y="440" type="line"/>
      <point x="278" y="421"/>
      <point x="149" y="366"/>
      <point x="56" y="300" type="curve"/>
      <point x="122" y="204" type="line"/>
      <point x="244" y="193"/>
      <point x="349" y="142"/>
      <point x="359" y="48" type="curve"/>
    </contour>
    <contour>
      <point x="407" y="-23" type="line"/>
      <point x="407" y="138" type="line"/>
      <point x="359" y="138" type="line"/>
      <point x="359" y="35" type="line"/>
      <point x="378" y="13" type="line"/>
      <point x="358" y="77"/>
      <point x="309" y="116"/>
      <point x="245" y="116" type="curve" smooth="yes"/>
      <point x="218" y="116"/>
      <point x="165" y="109"/>
      <point x="136" y="109" type="curve" smooth="yes"/>
      <point x="90" y="109"/>
      <point x="66" y="127"/>
      <point x="66" y="163" type="curve" smooth="yes"/>
      <point x="66" y="179"/>
      <point x="71" y="199"/>
      <point x="76" y="213" type="curve"/>
      <point x="43" y="227" type="line"/>
      <point x="32" y="204"/>
      <point x="26" y="178"/>
      <point x="26" y="157" type="curve" smooth="yes"/>
      <point x="26" y="88"/>
      <point x="83" y="34"/>
      <point x="161" y="34" type="curve" smooth="yes"/>
      <point x="197" y="34"/>
      <point x="262" y="46"/>
      <point x="293" y="46" type="curve" smooth="yes"/>
      <point x="340" y="46"/>
      <point x="362" y="19"/>
      <point x="365" y="-23" type="curve"/>
    </contour>
    <contour>
      <point x="565" y="168"/>
      <point x="606" y="213"/>
      <point x="606" y="275" type="curve" smooth="yes"/>
      <point x="606" y="340"/>
      <point x="561" y="396"/>
      <point x="507" y="396" type="curve" smooth="yes"/>
      <point x="471" y="396"/>
      <point x="446" y="372"/>
      <point x="446" y="340" type="curve" smooth="yes"/>
      <point x="446" y="310"/>
      <point x="470" y="287"/>
      <point x="499" y="287" type="curve" smooth="yes"/>
      <point x="527" y="287"/>
      <point x="547" y="308"/>
      <point x="547" y="333" type="curve" smooth="yes"/>
      <point x="547" y="345"/>
      <point x="542" y="356"/>
      <point x="534" y="361" type="curve"/>
      <point x="515" y="338" type="line"/>
      <point x="520" y="340"/>
      <point x="526" y="341"/>
      <point x="531" y="341" type="curve" smooth="yes"/>
      <point x="551" y="341"/>
      <point x="565" y="323"/>
      <point x="565" y="300" type="curve" smooth="yes"/>
      <point x="565" y="266"/>
      <point x="536" y="240"/>
      <point x="499" y="240" type="curve" smooth="yes"/>
      <point x="463" y="240"/>
      <point x="422" y="266"/>
      <point x="400" y="320" type="curve"/>
      <point x="382" y="294" type="line"/>
      <point x="411" y="215"/>
      <point x="457" y="168"/>
      <point x="511" y="168" type="curve" smooth="yes"/>
    </contour>
    <contour>
      <point x="652" y="456" type="line"/>
      <point x="652" y="506" type="line"/>
      <point x="-20" y="506" type="line"/>
      <point x="-20" y="456" type="line"/>
    </contour>
  </outline>
</glyph>
<glyph name="bBRa_bSignUu" format="1">
  <advance width="610"/>
  <outline>
    <contour>
      <point x="407" y="48" type="line"/>
      <point x="407" y="466" type="line"/>
      <point x="347" y="466" type="line"/>
      <point x="347" y="114" type="line"/>
      <point x="372" y="100" type="line"/>
      <point x="340" y="201"/>
      <point x="236" y="267"/>
      <point x="127" y="287" type="curve"/>
      <point x="132" y="245" type="line"/>
      <point x="205" y="296"/>
      <point x="298" y="337"/>
      <point x="391" y="361" type="curve"/>
      <point x="370" y="440" type="line"/>
      <point x="278" y="421"/>
      <point x="149" y="366"/>
      <point x="56" y="300" type="curve"/>
      <point x="122" y="204" type="line"/>
      <point x="244" y="193"/>
      <point x="349" y="142"/>
      <point x="359" y="48" type="curve"/>
    </contour>
    <contour>
      <point x="407" y="-23" type="line"/>
      <point x="407" y="138" type="line"/>
      <point x="359" y="138" type="line"/>
      <point x="359" y="35" type="line"/>
      <point x="378" y="13" type="line"/>
      <point x="358" y="77"/>
      <point x="309" y="116"/>
      <point x="245" y="116" type="curve" smooth="yes"/>
      <point x="218" y="116"/>
      <point x="165" y="109"/>
      <point x="136" y="109" type="curve" smooth="yes"/>
      <point x="89" y="109"/>
      <point x="66" y="127"/>
      <point x="66" y="163" type="curve" smooth="yes"/>
      <point x="66" y="178"/>
      <point x="70" y="197"/>
      <point x="76" y="213" type="curve"/>
      <point x="43" y="227" type="line"/>
      <point x="32" y="204"/>
      <point x="26" y="178"/>
      <point x="26" y="157" type="curve" smooth="yes"/>
      <point x="26" y="88"/>
      <point x="83" y="34"/>
      <point x="161" y="34" type="curve" smooth="yes"/>
      <point x="197" y="34"/>
      <point x="262" y="46"/>
      <point x="293" y="46" type="curve" smooth="yes"/>
      <point x="340" y="46"/>
      <point x="362" y="19"/>
      <point x="365" y="-23" type="curve"/>
    </contour>
    <contour>
      <point x="576" y="28" type="line"/>
      <point x="557" y="45"/>
      <point x="547" y="67"/>
      <point x="547" y="92" type="curve" smooth="yes"/>
      <point x="547" y="295" type="line" smooth="yes"/>
      <point x="547" y="341"/>
      <point x="500" y="397"/>
      <point x="463" y="397" type="curve" smooth="yes"/>
      <point x="444" y="397"/>
      <point x="408" y="382"/>
      <point x="374" y="350" type="curve"/>
      <point x="398" y="287" type="line"/>
      <point x="425" y="313"/>
      <point x="462" y="333"/>
      <point x="478" y="333" type="curve" smooth="yes"/>
      <point x="485" y="333"/>
      <point x="488" y="329"/>
      <point x="488" y="318" type="curve" smooth="yes"/>
      <point x="488" y="112" type="line" smooth="yes"/>
      <point x="488" y="55"/>
      <point x="516" y="25"/>
      <point x="556" y="0" type="curve"/>
    </contour>
    <contour>
      <point x="620" y="456" type="line"/>
      <point x="620" y="506" type="line"/>
      <point x="-20" y="506" type="line"/>
      <point x="-20" y="456" type="line"/>
    </contour>
  </outline>
</glyph>
<glyph name="bBaphala" format="1">
  <advance width="0"/>
  <outline>
    <contour>
      <point x="-60" y="-121" type="line"/>
      <point x="-60" y="114" type="line"/>
      <point x="-96" y="151" type="line"/>
      <point x="-180" y="120"/>
      <point x="-233" y="94"/>
      <point x="-318" y="39" type="curve"/>
      <point x="-264" y="-37" type="line"/>
      <point x="-185" y="-48"/>
      <point x="-122" y="-70"/>
      <point x="-100" y="-121" type="curve"/>
    </contour>
    <contour>
      <point x="-90" y="-84" type="line"/>
      <point x="-121" y="-29"/>
      <point x="-178" y="10"/>
      <point x="-261" y="30" type="curve"/>
      <point x="-241" y="-2" type="line"/>
      <point x="-182" y="39"/>
      <point x="-128" y="65"/>
      <point x="-79" y="81" type="curve"/>
      <point x="-115" y="94" type="line"/>
      <point x="-115" y="-70" type="line"/>
    </contour>
  </outline>
</glyph>
<glyph name="bBhBa" format="1">
  <advance width="399"/>
  <outline>
    <contour>
      <point x="419" y="456" type="line"/>
      <point x="419" y="506" type="line"/>
      <point x="-20" y="506" type="line"/>
      <point x="-20" y="456" type="line"/>
    </contour>
    <contour>
      <point x="349" y="188" type="line"/>
      <point x="349" y="259" type="line" smooth="yes"/>
      <point x="349" y="321"/>
      <point x="319" y="379"/>
      <point x="276" y="407" type="curve"/>
      <point x="236" y="355"/>
      <point x="182" y="319"/>
      <point x="133" y="319" type="curve" smooth="yes"/>
      <point x="121" y="319"/>
      <point x="110" y="321"/>
      <point x="100" y="327" type="curve"/>
      <point x="128" y="285" type="line"/>
      <point x="147" y="297"/>
      <point x="159" y="317"/>
      <point x="159" y="343" type="curve" smooth="yes"/>
      <point x="159" y="385"/>
      <point x="126" y="409"/>
      <point x="92" y="409" type="curve" smooth="yes"/>
      <point x="54" y="409"/>
      <point x="21" y="379"/>
      <point x="21" y="337" type="curve" smooth="yes"/>
      <point x="21" y="288"/>
      <point x="65" y="241"/>
      <point x="136" y="241" type="curve" smooth="yes"/>
      <point x="209" y="241"/>
      <point x="285" y="290"/>
      <point x="320" y="341" type="curve"/>
      <point x="269" y="338" type="line"/>
      <point x="279" y="327"/>
      <point x="289" y="305"/>
      <point x="289" y="276" type="curve" smooth="yes"/>
      <point x="289" y="188" type="line"/>
    </contour>
    <contour>
      <point x="348" y="-95" type="line"/>
      <point x="348" y="237" type="line"/>
      <point x="288" y="236" type="line"/>
      <point x="288" y="-35" type="line"/>
      <point x="321" y="-59" type="line"/>
      <point x="287" y="28"/>
      <point x="198" y="97"/>
      <point x="96" y="114" type="curve"/>
      <point x="121" y="73" type="line"/>
      <point x="190" y="118"/>
      <point x="266" y="156"/>
      <point x="337" y="183" type="curve"/>
      <point x="315" y="253" type="line"/>
      <point x="249" y="230"/>
      <point x="154" y="186"/>
      <point x="53" y="121" type="curve"/>
      <point x="107" y="44" type="line"/>
      <point x="207" y="33"/>
      <point x="282" y="-16"/>
      <point x="306" y="-95" type="curve"/>
    </contour>
  </outline>
</glyph>
<glyph name="bBhLa" format="1">
  <advance width="513"/>
  <outline>
    <contour>
      <point x="407" y="69"/>
      <point x="476" y="136"/>
      <point x="476" y="234" type="curve" smooth="yes"/>
      <point x="476" y="304"/>
      <point x="442" y="371"/>
      <point x="389" y="413" type="curve"/>
      <point x="359" y="360"/>
      <point x="316" y="323"/>
      <point x="274" y="323" type="curve" smooth="yes"/>
      <point x="264" y="323"/>
      <point x="252" y="325"/>
      <point x="243" y="330" type="curve"/>
      <point x="269" y="289" type="line"/>
      <point x="287" y="300"/>
      <point x="299" y="320"/>
      <point x="299" y="346" type="curve" smooth="yes"/>
      <point x="299" y="389"/>
      <point x="266" y="413"/>
      <point x="232" y="413" type="curve" smooth="yes"/>
      <point x="192" y="413"/>
      <point x="160" y="381"/>
      <point x="160" y="339" type="curve" smooth="yes"/>
      <point x="160" y="289"/>
      <point x="207" y="243"/>
      <point x="276" y="243" type="curve" smooth="yes"/>
      <point x="347" y="243"/>
      <point x="405" y="292"/>
      <point x="435" y="346" type="curve"/>
      <point x="383" y="345" type="line"/>
      <point x="406" y="328"/>
      <point x="420" y="298"/>
      <point x="420" y="266" type="curve" smooth="yes"/>
      <point x="420" y="202"/>
      <point x="369" y="155"/>
      <point x="293" y="155" type="curve" smooth="yes"/>
      <point x="183" y="155"/>
      <point x="102" y="255"/>
      <point x="42" y="419" type="curve"/>
      <point x="1" y="405" type="line"/>
      <point x="77" y="188"/>
      <point x="184" y="69"/>
      <point x="311" y="69" type="curve" smooth="yes"/>
    </contour>
    <contour>
      <point x="205" y="-152"/>
      <point x="229" y="-129"/>
      <point x="229" y="-101" type="curve" smooth="yes"/>
      <point x="229" y="-76"/>
      <point x="210" y="-56"/>
      <point x="186" y="-56" type="curve" smooth="yes"/>
      <point x="164" y="-56"/>
      <point x="146" y="-73"/>
      <point x="146" y="-95" type="curve" smooth="yes"/>
      <point x="146" y="-114"/>
      <point x="159" y="-130"/>
      <point x="179" y="-133" type="curve"/>
      <point x="188" y="-101" type="line"/>
      <point x="178" y="-108"/>
      <point x="167" y="-111"/>
      <point x="159" y="-111" type="curve" smooth="yes"/>
      <point x="138" y="-111"/>
      <point x="123" y="-93"/>
      <point x="123" y="-69" type="curve" smooth="yes"/>
      <point x="123" y="-40"/>
      <point x="147" y="-15"/>
      <point x="183" y="-15" type="curve" smooth="yes"/>
      <point x="221" y="-15"/>
      <point x="249" y="-42"/>
      <point x="260" y="-87" type="curve"/>
      <point x="286" y="-87" type="line"/>
      <point x="286" y="-47"/>
      <point x="299" y="-24"/>
      <point x="323" y="-24" type="curve" smooth="yes"/>
      <point x="355" y="-24"/>
      <point x="378" y="-67"/>
      <point x="383" y="-136" type="curve"/>
      <point x="425" y="-136" type="line"/>
      <point x="425" y="-13" type="line"/>
      <point x="375" y="-13" type="line"/>
      <point x="375" y="-63" type="line"/>
      <point x="401" y="-100" type="line"/>
      <point x="387" y="-24"/>
      <point x="350" y="40"/>
      <point x="299" y="40" type="curve" smooth="yes"/>
      <point x="263" y="40"/>
      <point x="239" y="8"/>
      <point x="239" y="-36" type="curve"/>
      <point x="266" y="-48" type="line"/>
      <point x="253" y="10"/>
      <point x="213" y="55"/>
      <point x="158" y="55" type="curve" smooth="yes"/>
      <point x="105" y="55"/>
      <point x="64" y="12"/>
      <point x="64" y="-43" type="curve" smooth="yes"/>
      <point x="64" y="-103"/>
      <point x="112" y="-152"/>
      <point x="167" y="-152" type="curve" smooth="yes"/>
    </contour>
    <contour>
      <point x="425" y="186" type="line"/>
      <point x="370" y="149" type="line"/>
      <point x="370" y="-43" type="line"/>
      <point x="425" y="-114" type="line"/>
    </contour>
    <contour>
      <point x="533" y="456" type="line"/>
      <point x="533" y="506" type="line"/>
      <point x="-20" y="506" type="line"/>
      <point x="-20" y="456" type="line"/>
    </contour>
  </outline>
</glyph>
<glyph name="bBhRa" format="1">
  <advance width="510"/>
  <outline>
    <contour>
      <point x="459" y="-28" type="line"/>
      <point x="459" y="259" type="line" smooth="yes"/>
      <point x="459" y="321"/>
      <point x="429" y="379"/>
      <point x="386" y="407" type="curve"/>
      <point x="348" y="355"/>
      <point x="295" y="319"/>
      <point x="248" y="319" type="curve" smooth="yes"/>
      <point x="236" y="319"/>
      <point x="225" y="321"/>
      <point x="215" y="327" type="curve"/>
      <point x="243" y="285" type="line"/>
      <point x="262" y="297"/>
      <point x="274" y="317"/>
      <point x="274" y="343" type="curve" smooth="yes"/>
      <point x="274" y="385"/>
      <point x="241" y="409"/>
      <point x="207" y="409" type="curve" smooth="yes"/>
      <point x="169" y="409"/>
      <point x="136" y="379"/>
      <point x="136" y="337" type="curve" smooth="yes"/>
      <point x="136" y="288"/>
      <point x="180" y="241"/>
      <point x="251" y="241" type="curve" smooth="yes"/>
      <point x="325" y="241"/>
      <point x="396" y="290"/>
      <point x="430" y="341" type="curve"/>
      <point x="379" y="338" type="line"/>
      <point x="389" y="327"/>
      <point x="399" y="305"/>
      <point x="399" y="276" type="curve" smooth="yes"/>
      <point x="399" y="54" type="line"/>
      <point x="425" y="26" type="line"/>
      <point x="406" y="88"/>
      <point x="362" y="127"/>
      <point x="301" y="127" type="curve" smooth="yes"/>
      <point x="274" y="127"/>
      <point x="193" y="119"/>
      <point x="160" y="119" type="curve" smooth="yes"/>
      <point x="96" y="119"/>
      <point x="60" y="151"/>
      <point x="60" y="204" type="curve" smooth="yes"/>
      <point x="60" y="234"/>
      <point x="71" y="265"/>
      <point x="86" y="291" type="curve"/>
      <point x="54" y="309" type="line"/>
      <point x="29" y="274"/>
      <point x="16" y="235"/>
      <point x="16" y="197" type="curve" smooth="yes"/>
      <point x="16" y="106"/>
      <point x="88" y="40"/>
      <point x="190" y="40" type="curve" smooth="yes"/>
      <point x="230" y="40"/>
      <point x="305" y="50"/>
      <point x="339" y="50" type="curve" smooth="yes"/>
      <point x="391" y="50"/>
      <point x="412" y="24"/>
      <point x="416" y="-28" type="curve"/>
    </contour>
    <contour>
      <point x="530" y="456" type="line"/>
      <point x="530" y="506" type="line"/>
      <point x="-20" y="506" type="line"/>
      <point x="-20" y="456" type="line"/>
    </contour>
  </outline>
</glyph>
<glyph name="bBhRa_bSignU" format="1">
  <advance width="684"/>
  <outline>
    <contour>
      <point x="459" y="-28" type="line"/>
      <point x="459" y="259" type="line" smooth="yes"/>
      <point x="459" y="322"/>
      <point x="429" y="380"/>
      <point x="386" y="409" type="curve"/>
      <point x="348" y="355"/>
      <point x="295" y="319"/>
      <point x="248" y="319" type="curve" smooth="yes"/>
      <point x="236" y="319"/>
      <point x="225" y="321"/>
      <point x="215" y="327" type="curve"/>
      <point x="243" y="285" type="line"/>
      <point x="262" y="297"/>
      <point x="274" y="317"/>
      <point x="274" y="343" type="curve" smooth="yes"/>
      <point x="274" y="385"/>
      <point x="241" y="409"/>
      <point x="207" y="409" type="curve" smooth="yes"/>
      <point x="169" y="409"/>
      <point x="136" y="379"/>
      <point x="136" y="337" type="curve" smooth="yes"/>
      <point x="136" y="288"/>
      <point x="180" y="241"/>
      <point x="251" y="241" type="curve" smooth="yes"/>
      <point x="325" y="241"/>
      <point x="396" y="290"/>
      <point x="430" y="341" type="curve"/>
      <point x="379" y="338" type="line"/>
      <point x="389" y="327"/>
      <point x="399" y="305"/>
      <point x="399" y="276" type="curve" smooth="yes"/>
      <point x="399" y="54" type="line"/>
      <point x="425" y="26" type="line"/>
      <point x="406" y="88"/>
      <point x="362" y="127"/>
      <point x="301" y="127" type="curve" smooth="yes"/>
      <point x="274" y="127"/>
      <point x="193" y="119"/>
      <point x="160" y="119" type="curve" smooth="yes"/>
      <point x="96" y="119"/>
      <point x="60" y="150"/>
      <point x="60" y="204" type="curve" smooth="yes"/>
      <point x="60" y="234"/>
      <point x="72" y="266"/>
      <point x="86" y="291" type="curve"/>
      <point x="54" y="309" type="line"/>
      <point x="29" y="274"/>
      <point x="16" y="235"/>
      <point x="16" y="197" type="curve" smooth="yes"/>
      <point x="16" y="106"/>
      <point x="88" y="40"/>
      <point x="190" y="40" type="curve" smooth="yes"/>
      <point x="230" y="40"/>
      <point x="305" y="50"/>
      <point x="339" y="50" type="curve" smooth="yes"/>
      <point x="391" y="50"/>
      <point x="412" y="24"/>
      <point x="416" y="-28" type="curve"/>
    </contour>
    <contour>
      <point x="617" y="138"/>
      <point x="658" y="183"/>
      <point x="658" y="245" type="curve" smooth="yes"/>
      <point x="658" y="310"/>
      <point x="613" y="366"/>
      <point x="559" y="366" type="curve" smooth="yes"/>
      <point x="523" y="366"/>
      <point x="498" y="342"/>
      <point x="498" y="310" type="curve" smooth="yes"/>
      <point x="498" y="280"/>
      <point x="522" y="257"/>
      <point x="551" y="257" type="curve" smooth="yes"/>
      <point x="579" y="257"/>
      <point x="599" y="278"/>
      <point x="599" y="303" type="curve" smooth="yes"/>
      <point x="599" y="315"/>
      <point x="594" y="326"/>
      <point x="586" y="331" type="curve"/>
      <point x="567" y="308" type="line"/>
      <point x="572" y="310"/>
      <point x="578" y="311"/>
      <point x="583" y="311" type="curve" smooth="yes"/>
      <point x="603" y="311"/>
      <point x="617" y="293"/>
      <point x="617" y="270" type="curve" smooth="yes"/>
      <point x="617" y="236"/>
      <point x="588" y="210"/>
      <point x="551" y="210" type="curve" smooth="yes"/>
      <point x="515" y="210"/>
      <point x="474" y="236"/>
      <point x="452" y="290" type="curve"/>
      <point x="434" y="264" type="line"/>
      <point x="463" y="185"/>
      <point x="509" y="138"/>
      <point x="563" y="138" type="curve" smooth="yes"/>
    </contour>
    <contour>
      <point x="704" y="456" type="line"/>
      <point x="704" y="506" type="line"/>
      <point x="-20" y="506" type="line"/>
      <point x="-20" y="456" type="line"/>
    </contour>
  </outline>
</glyph>
<glyph name="bBhRa_bSignUu" format="1">
  <advance width="652"/>
  <outline>
    <contour>
      <point x="459" y="-28" type="line"/>
      <point x="459" y="259" type="line" smooth="yes"/>
      <point x="459" y="321"/>
      <point x="429" y="379"/>
      <point x="386" y="407" type="curve"/>
      <point x="348" y="355"/>
      <point x="295" y="319"/>
      <point x="248" y="319" type="curve" smooth="yes"/>
      <point x="236" y="319"/>
      <point x="225" y="321"/>
      <point x="215" y="327" type="curve"/>
      <point x="243" y="285" type="line"/>
      <point x="262" y="297"/>
      <point x="274" y="317"/>
      <point x="274" y="343" type="curve" smooth="yes"/>
      <point x="274" y="385"/>
      <point x="241" y="409"/>
      <point x="207" y="409" type="curve" smooth="yes"/>
      <point x="169" y="409"/>
      <point x="136" y="379"/>
      <point x="136" y="337" type="curve" smooth="yes"/>
      <point x="136" y="288"/>
      <point x="180" y="241"/>
      <point x="251" y="241" type="curve" smooth="yes"/>
      <point x="325" y="241"/>
      <point x="396" y="290"/>
      <point x="430" y="341" type="curve"/>
      <point x="379" y="338" type="line"/>
      <point x="389" y="327"/>
      <point x="399" y="305"/>
      <point x="399" y="276" type="curve" smooth="yes"/>
      <point x="399" y="54" type="line"/>
      <point x="425" y="26" type="line"/>
      <point x="406" y="88"/>
      <point x="362" y="127"/>
      <point x="301" y="127" type="curve" smooth="yes"/>
      <point x="274" y="127"/>
      <point x="193" y="119"/>
      <point x="160" y="119" type="curve" smooth="yes"/>
      <point x="96" y="119"/>
      <point x="60" y="151"/>
      <point x="60" y="204" type="curve" smooth="yes"/>
      <point x="60" y="234"/>
      <point x="72" y="267"/>
      <point x="86" y="291" type="curve"/>
      <point x="54" y="309" type="line"/>
      <point x="29" y="274"/>
      <point x="16" y="235"/>
      <point x="16" y="197" type="curve" smooth="yes"/>
      <point x="16" y="106"/>
      <point x="88" y="40"/>
      <point x="190" y="40" type="curve" smooth="yes"/>
      <point x="230" y="40"/>
      <point x="305" y="50"/>
      <point x="339" y="50" type="curve" smooth="yes"/>
      <point x="391" y="50"/>
      <point x="412" y="24"/>
      <point x="416" y="-28" type="curve"/>
    </contour>
    <contour>
      <point x="628" y="13" type="line"/>
      <point x="609" y="30"/>
      <point x="599" y="52"/>
      <point x="599" y="77" type="curve" smooth="yes"/>
      <point x="599" y="245" type="line" smooth="yes"/>
      <point x="599" y="291"/>
      <point x="552" y="347"/>
      <point x="515" y="347" type="curve" smooth="yes"/>
      <point x="496" y="347"/>
      <point x="460" y="332"/>
      <point x="426" y="300" type="curve"/>
      <point x="450" y="237" type="line"/>
      <point x="477" y="263"/>
      <point x="514" y="283"/>
      <point x="530" y="283" type="curve" smooth="yes"/>
      <point x="537" y="283"/>
      <point x="540" y="279"/>
      <point x="540" y="268" type="curve" smooth="yes"/>
      <point x="540" y="97" type="line" smooth="yes"/>
      <point x="540" y="40"/>
      <point x="568" y="10"/>
      <point x="608" y="-15" type="curve"/>
    </contour>
    <contour>
      <point x="672" y="456" type="line"/>
      <point x="672" y="506" type="line"/>
      <point x="-20" y="506" type="line"/>
      <point x="-20" y="456" type="line"/>
    </contour>
  </outline>
</glyph>
<glyph name="bBha" format="1">
  <advance width="523"/>
  <outline>
    <contour>
      <point x="414" y="39"/>
      <point x="487" y="116"/>
      <point x="487" y="222" type="curve" smooth="yes"/>
      <point x="487" y="298"/>
      <point x="449" y="369"/>
      <point x="393" y="410" type="curve"/>
      <point x="361" y="356"/>
      <point x="315" y="320"/>
      <point x="269" y="320" type="curve" smooth="yes"/>
      <point x="259" y="320"/>
      <point x="247" y="322"/>
      <point x="238" y="327" type="curve"/>
      <point x="267" y="286" type="line"/>
      <point x="285" y="298"/>
      <point x="297" y="317"/>
      <point x="297" y="344" type="curve" smooth="yes"/>
      <point x="297" y="390"/>
      <point x="263" y="413"/>
      <point x="228" y="413" type="curve" smooth="yes"/>
      <point x="187" y="413"/>
      <point x="154" y="382"/>
      <point x="154" y="338" type="curve" smooth="yes"/>
      <point x="154" y="286"/>
      <point x="201" y="238"/>
      <point x="272" y="238" type="curve" smooth="yes"/>
      <point x="345" y="238"/>
      <point x="408" y="287"/>
      <point x="440" y="341" type="curve"/>
      <point x="388" y="338" type="line"/>
      <point x="410" y="325"/>
      <point x="430" y="295"/>
      <point x="430" y="254" type="curve"/>
      <point x="430" y="185"/>
      <point x="377" y="128"/>
      <point x="296" y="128" type="curve" smooth="yes"/>
      <point x="186" y="128"/>
      <point x="105" y="232"/>
      <point x="42" y="419" type="curve"/>
      <point x="1" y="405" type="line"/>
      <point x="76" y="173"/>
      <point x="184" y="39"/>
      <point x="314" y="39" type="curve" smooth="yes"/>
    </contour>
    <contour>
      <point x="543" y="456" type="line"/>
      <point x="543" y="506" type="line"/>
      <point x="-20" y="506" type="line"/>
      <point x="-20" y="456" type="line"/>
    </contour>
  </outline>
</glyph>
<glyph name="bCBa" format="1">
  <advance width="381"/>
  <outline>
    <contour>
      <point x="238" y="51"/>
      <point x="358" y="162"/>
      <point x="358" y="238" type="curve" smooth="yes"/>
      <point x="358" y="272"/>
      <point x="338" y="301"/>
      <point x="321" y="321" type="curve" smooth="yes"/>
      <point x="279" y="370"/>
      <point x="250" y="373"/>
      <point x="211" y="383" type="curve" smooth="yes"/>
      <point x="160" y="395"/>
      <point x="120" y="423"/>
      <point x="120" y="472" type="curve"/>
      <point x="60" y="472" type="line"/>
      <point x="60" y="193" type="line" smooth="yes"/>
      <point x="60" y="108"/>
      <point x="123" y="51"/>
      <point x="171" y="51" type="curve" smooth="yes"/>
    </contour>
    <contour>
      <point x="133" y="121"/>
      <point x="121" y="130"/>
      <point x="121" y="168" type="curve" smooth="yes"/>
      <point x="121" y="433" type="line"/>
      <point x="90" y="445" type="line"/>
      <point x="120" y="351"/>
      <point x="167" y="315"/>
      <point x="238" y="299" type="curve" smooth="yes"/>
      <point x="277" y="289"/>
      <point x="285" y="285"/>
      <point x="285" y="267" type="curve" smooth="yes"/>
      <point x="285" y="216"/>
      <point x="192" y="121"/>
      <point x="147" y="121" type="curve" smooth="yes"/>
    </contour>
    <contour>
      <point x="297" y="-117" type="line"/>
      <point x="297" y="136" type="line"/>
      <point x="262" y="165" type="line"/>
      <point x="178" y="124"/>
      <point x="126" y="97"/>
      <point x="39" y="42" type="curve"/>
      <point x="93" y="-34" type="line"/>
      <point x="173" y="-44"/>
      <point x="235" y="-66"/>
      <point x="255" y="-117" type="curve"/>
    </contour>
    <contour>
      <point x="268" y="-80" type="line"/>
      <point x="237" y="-25"/>
      <point x="179" y="14"/>
      <point x="96" y="33" type="curve"/>
      <point x="116" y="2" type="line"/>
      <point x="177" y="42"/>
      <point x="230" y="70"/>
      <point x="279" y="96" type="curve"/>
      <point x="242" y="106" type="line"/>
      <point x="242" y="-66" type="line"/>
    </contour>
    <contour>
      <point x="401" y="456" type="line"/>
      <point x="401" y="506" type="line"/>
      <point x="-20" y="506" type="line"/>
      <point x="-20" y="456" type="line"/>
    </contour>
  </outline>
</glyph>
<glyph name="bCCa" format="1">
  <advance width="622"/>
  <outline>
    <contour>
      <point x="485" y="5"/>
      <point x="600" y="144"/>
      <point x="600" y="220" type="curve" smooth="yes"/>
      <point x="600" y="255"/>
      <point x="581" y="284"/>
      <point x="562" y="306" type="curve" smooth="yes"/>
      <point x="530" y="343"/>
      <point x="510" y="355"/>
      <point x="452" y="368" type="curve" smooth="yes"/>
      <point x="385" y="383"/>
      <point x="356" y="425"/>
      <point x="356" y="467" type="curve"/>
      <point x="296" y="467" type="line"/>
      <point x="296" y="152" type="line" smooth="yes"/>
      <point x="296" y="65"/>
      <point x="361" y="5"/>
      <point x="407" y="5" type="curve" smooth="yes"/>
    </contour>
    <contour>
      <point x="367" y="77"/>
      <point x="356" y="87"/>
      <point x="356" y="127" type="curve" smooth="yes"/>
      <point x="356" y="428" type="line"/>
      <point x="325" y="440" type="line"/>
      <point x="354" y="343"/>
      <point x="403" y="301"/>
      <point x="478" y="284" type="curve" smooth="yes"/>
      <point x="512" y="275"/>
      <point x="525" y="273"/>
      <point x="525" y="251" type="curve" smooth="yes"/>
      <point x="525" y="198"/>
      <point x="433" y="77"/>
      <point x="381" y="77" type="curve" smooth="yes"/>
    </contour>
    <contour>
      <point x="224" y="56"/>
      <point x="325" y="173"/>
      <point x="325" y="244" type="curve" smooth="yes"/>
      <point x="325" y="275"/>
      <point x="307" y="304"/>
      <point x="289" y="326" type="curve" smooth="yes"/>
      <point x="250" y="374"/>
      <point x="223" y="376"/>
      <point x="184" y="387" type="curve" smooth="yes"/>
      <point x="132" y="401"/>
      <point x="108" y="429"/>
      <point x="108" y="467" type="curve"/>
      <point x="48" y="467" type="line"/>
      <point x="48" y="200" type="line" smooth="yes"/>
      <point x="48" y="115"/>
      <point x="113" y="56"/>
      <point x="161" y="56" type="curve" smooth="yes"/>
    </contour>
    <contour>
      <point x="120" y="124"/>
      <point x="109" y="135"/>
      <point x="109" y="175" type="curve" smooth="yes"/>
      <point x="109" y="443" type="line"/>
      <point x="78" y="445" type="line"/>
      <point x="104" y="360"/>
      <point x="148" y="320"/>
      <point x="211" y="306" type="curve" smooth="yes"/>
      <point x="250" y="295"/>
      <point x="257" y="291"/>
      <point x="257" y="273" type="curve" smooth="yes"/>
      <point x="257" y="225"/>
      <point x="179" y="124"/>
      <point x="134" y="124" type="curve" smooth="yes"/>
    </contour>
    <contour>
      <point x="395" y="456" type="line"/>
      <point x="395" y="506" type="line"/>
      <point x="-20" y="506" type="line"/>
      <point x="-20" y="456" type="line"/>
    </contour>
    <contour>
      <point x="642" y="456" type="line"/>
      <point x="642" y="506" type="line"/>
      <point x="224" y="506" type="line"/>
      <point x="224" y="456" type="line"/>
    </contour>
  </outline>
</glyph>
<glyph name="bCChBa" format="1">
  <advance width="672"/>
  <outline>
    <contour>
      <point x="209" y="103"/>
      <point x="302" y="204"/>
      <point x="302" y="269" type="curve" smooth="yes"/>
      <point x="302" y="296"/>
      <point x="286" y="324"/>
      <point x="267" y="345" type="curve" smooth="yes"/>
      <point x="234" y="382"/>
      <point x="203" y="386"/>
      <point x="178" y="392" type="curve" smooth="yes"/>
      <point x="127" y="406"/>
      <point x="105" y="433"/>
      <point x="105" y="467" type="curve"/>
      <point x="45" y="467" type="line"/>
      <point x="45" y="245" type="line" smooth="yes"/>
      <point x="45" y="160"/>
      <point x="107" y="103"/>
      <point x="151" y="103" type="curve" smooth="yes"/>
    </contour>
    <contour>
      <point x="115" y="171"/>
      <point x="106" y="181"/>
      <point x="106" y="220" type="curve" smooth="yes"/>
      <point x="106" y="443" type="line"/>
      <point x="75" y="445" type="line"/>
      <point x="102" y="362"/>
      <point x="141" y="334"/>
      <point x="198" y="319" type="curve" smooth="yes"/>
      <point x="224" y="312"/>
      <point x="236" y="311"/>
      <point x="236" y="294" type="curve" smooth="yes"/>
      <point x="236" y="256"/>
      <point x="164" y="171"/>
      <point x="127" y="171" type="curve" smooth="yes"/>
    </contour>
    <contour>
      <point x="681" y="13" type="line"/>
      <point x="595" y="78"/>
      <point x="529" y="117"/>
      <point x="447" y="142" type="curve"/>
      <point x="442" y="99" type="line"/>
      <point x="567" y="119"/>
      <point x="638" y="193"/>
      <point x="638" y="268" type="curve" smooth="yes"/>
      <point x="638" y="340"/>
      <point x="573" y="404"/>
      <point x="496" y="404" type="curve" smooth="yes"/>
      <point x="482" y="404"/>
      <point x="455" y="402"/>
      <point x="442" y="402" type="curve" smooth="yes"/>
      <point x="393" y="402"/>
      <point x="353" y="429"/>
      <point x="349" y="467" type="curve"/>
      <point x="290" y="467" type="line"/>
      <point x="290" y="322" type="line" smooth="yes"/>
      <point x="290" y="272"/>
      <point x="333" y="214"/>
      <point x="388" y="214" type="curve" smooth="yes"/>
      <point x="441" y="214"/>
      <point x="509" y="267"/>
      <point x="509" y="311" type="curve" smooth="yes"/>
      <point x="509" y="337"/>
      <point x="487" y="363"/>
      <point x="452" y="372" type="curve"/>
      <point x="421" y="346" type="line"/>
      <point x="433" y="342"/>
      <point x="436" y="336"/>
      <point x="436" y="330" type="curve" smooth="yes"/>
      <point x="436" y="309"/>
      <point x="391" y="275"/>
      <point x="368" y="275" type="curve" smooth="yes"/>
      <point x="356" y="275"/>
      <point x="350" y="284"/>
      <point x="350" y="303" type="curve" smooth="yes"/>
      <point x="350" y="458" type="line"/>
      <point x="329" y="439" type="line"/>
      <point x="346" y="377"/>
      <point x="403" y="340"/>
      <point x="458" y="340" type="curve" smooth="yes"/>
      <point x="496" y="340"/>
      <point x="507" y="343"/>
      <point x="520" y="343" type="curve" smooth="yes"/>
      <point x="557" y="343"/>
      <point x="570" y="326"/>
      <point x="570" y="300" type="curve" smooth="yes"/>
      <point x="570" y="239"/>
      <point x="493" y="173"/>
      <point x="399" y="173" type="curve" smooth="yes"/>
      <point x="374" y="173"/>
      <point x="341" y="178"/>
      <point x="310" y="186" type="curve"/>
      <point x="356" y="92" type="line"/>
      <point x="470" y="82"/>
      <point x="553" y="47"/>
      <point x="654" y="-22" type="curve"/>
    </contour>
    <contour>
      <point x="596" y="-149" type="line"/>
      <point x="596" y="63" type="line"/>
      <point x="529" y="103" type="line"/>
      <point x="466" y="79"/>
      <point x="419" y="57"/>
      <point x="348" y="12" type="curve"/>
      <point x="402" y="-65" type="line"/>
      <point x="477" y="-75"/>
      <point x="536" y="-97"/>
      <point x="554" y="-149" type="curve"/>
    </contour>
    <contour>
      <point x="567" y="-112" type="line"/>
      <point x="537" y="-56"/>
      <point x="483" y="-17"/>
      <point x="405" y="3" type="curve"/>
      <point x="420" y="-30" type="line"/>
      <point x="482" y="13"/>
      <point x="535" y="40"/>
      <point x="583" y="56" type="curve"/>
      <point x="541" y="60" type="line"/>
      <point x="541" y="-98" type="line"/>
    </contour>
    <contour>
      <point x="395" y="456" type="line"/>
      <point x="395" y="506" type="line"/>
      <point x="-20" y="506" type="line"/>
      <point x="-20" y="456" type="line"/>
    </contour>
    <contour>
      <point x="693" y="456" type="line"/>
      <point x="693" y="506" type="line"/>
      <point x="231" y="506" type="line"/>
      <point x="231" y="456" type="line"/>
    </contour>
  </outline>
</glyph>
<glyph name="bCChRa" format="1">
  <advance width="672"/>
  <outline>
    <contour>
      <point x="681" y="13" type="line"/>
      <point x="595" y="77"/>
      <point x="529" y="117"/>
      <point x="447" y="142" type="curve"/>
      <point x="442" y="96" type="line"/>
      <point x="565" y="115"/>
      <point x="638" y="191"/>
      <point x="638" y="268" type="curve" smooth="yes"/>
      <point x="638" y="340"/>
      <point x="573" y="404"/>
      <point x="496" y="404" type="curve" smooth="yes"/>
      <point x="482" y="404"/>
      <point x="455" y="402"/>
      <point x="442" y="402" type="curve" smooth="yes"/>
      <point x="393" y="402"/>
      <point x="353" y="429"/>
      <point x="349" y="467" type="curve"/>
      <point x="290" y="467" type="line"/>
      <point x="290" y="320" type="line" smooth="yes"/>
      <point x="290" y="270"/>
      <point x="333" y="211"/>
      <point x="388" y="211" type="curve" smooth="yes"/>
      <point x="441" y="211"/>
      <point x="509" y="266"/>
      <point x="509" y="311" type="curve" smooth="yes"/>
      <point x="509" y="337"/>
      <point x="487" y="363"/>
      <point x="452" y="372" type="curve"/>
      <point x="421" y="346" type="line"/>
      <point x="433" y="342"/>
      <point x="436" y="336"/>
      <point x="436" y="330" type="curve" smooth="yes"/>
      <point x="436" y="308"/>
      <point x="391" y="273"/>
      <point x="368" y="273" type="curve" smooth="yes"/>
      <point x="356" y="273"/>
      <point x="350" y="281"/>
      <point x="350" y="301" type="curve" smooth="yes"/>
      <point x="350" y="458" type="line"/>
      <point x="329" y="439" type="line"/>
      <point x="346" y="377"/>
      <point x="403" y="340"/>
      <point x="458" y="340" type="curve" smooth="yes"/>
      <point x="496" y="340"/>
      <point x="507" y="343"/>
      <point x="520" y="343" type="curve" smooth="yes"/>
      <point x="556" y="343"/>
      <point x="570" y="326"/>
      <point x="570" y="301" type="curve" smooth="yes"/>
      <point x="570" y="243"/>
      <point x="493" y="171"/>
      <point x="399" y="171" type="curve" smooth="yes"/>
      <point x="375" y="171"/>
      <point x="344" y="176"/>
      <point x="315" y="184" type="curve"/>
      <point x="361" y="84" type="line"/>
      <point x="473" y="79"/>
      <point x="555" y="46"/>
      <point x="654" y="-22" type="curve"/>
    </contour>
    <contour>
      <point x="593" y="-111" type="line"/>
      <point x="593" y="62" type="line"/>
      <point x="541" y="62" type="line"/>
      <point x="541" y="-57" type="line"/>
      <point x="563" y="-79" type="line"/>
      <point x="544" y="-17"/>
      <point x="500" y="21"/>
      <point x="438" y="21" type="curve" smooth="yes"/>
      <point x="420" y="21"/>
      <point x="374" y="18"/>
      <point x="355" y="18" type="curve" smooth="yes"/>
      <point x="313" y="18"/>
      <point x="289" y="35"/>
      <point x="289" y="68" type="curve" smooth="yes"/>
      <point x="289" y="84"/>
      <point x="295" y="104"/>
      <point x="301" y="120" type="curve"/>
      <point x="267" y="133" type="line"/>
      <point x="257" y="114"/>
      <point x="250" y="88"/>
      <point x="250" y="64" type="curve" smooth="yes"/>
      <point x="250" y="-6"/>
      <point x="308" y="-58"/>
      <point x="379" y="-58" type="curve" smooth="yes"/>
      <point x="407" y="-58"/>
      <point x="455" y="-50"/>
      <point x="480" y="-50" type="curve" smooth="yes"/>
      <point x="522" y="-50"/>
      <point x="547" y="-74"/>
      <point x="551" y="-111" type="curve"/>
    </contour>
    <contour>
      <point x="209" y="103"/>
      <point x="302" y="204"/>
      <point x="302" y="269" type="curve" smooth="yes"/>
      <point x="302" y="296"/>
      <point x="286" y="324"/>
      <point x="267" y="345" type="curve" smooth="yes"/>
      <point x="233" y="384"/>
      <point x="200" y="386"/>
      <point x="178" y="392" type="curve" smooth="yes"/>
      <point x="127" y="406"/>
      <point x="105" y="433"/>
      <point x="105" y="467" type="curve"/>
      <point x="45" y="467" type="line"/>
      <point x="45" y="245" type="line" smooth="yes"/>
      <point x="45" y="160"/>
      <point x="107" y="103"/>
      <point x="151" y="103" type="curve" smooth="yes"/>
    </contour>
    <contour>
      <point x="115" y="171"/>
      <point x="106" y="181"/>
      <point x="106" y="220" type="curve" smooth="yes"/>
      <point x="106" y="443" type="line"/>
      <point x="75" y="445" type="line"/>
      <point x="102" y="362"/>
      <point x="141" y="334"/>
      <point x="198" y="319" type="curve" smooth="yes"/>
      <point x="224" y="312"/>
      <point x="236" y="310"/>
      <point x="236" y="295" type="curve" smooth="yes"/>
      <point x="236" y="256"/>
      <point x="164" y="171"/>
      <point x="127" y="171" type="curve" smooth="yes"/>
    </contour>
    <contour>
      <point x="395" y="456" type="line"/>
      <point x="395" y="506" type="line"/>
      <point x="-20" y="506" type="line"/>
      <point x="-20" y="456" type="line"/>
    </contour>
    <contour>
      <point x="693" y="456" type="line"/>
      <point x="693" y="506" type="line"/>
      <point x="186" y="506" type="line"/>
      <point x="186" y="456" type="line"/>
    </contour>
  </outline>
</glyph>
<glyph name="bCCha" format="1">
  <advance width="677"/>
  <outline>
    <contour>
      <point x="685" y="-15" type="line"/>
      <point x="597" y="54"/>
      <point x="529" y="96"/>
      <point x="445" y="122" type="curve"/>
      <point x="440" y="76" type="line"/>
      <point x="570" y="96"/>
      <point x="644" y="179"/>
      <point x="644" y="257" type="curve" smooth="yes"/>
      <point x="644" y="332"/>
      <point x="576" y="396"/>
      <point x="497" y="396" type="curve" smooth="yes"/>
      <point x="483" y="396"/>
      <point x="456" y="394"/>
      <point x="443" y="394" type="curve" smooth="yes"/>
      <point x="392" y="394"/>
      <point x="351" y="425"/>
      <point x="347" y="467" type="curve"/>
      <point x="288" y="467" type="line"/>
      <point x="288" y="304" type="line" smooth="yes"/>
      <point x="288" y="254"/>
      <point x="331" y="196"/>
      <point x="386" y="196" type="curve" smooth="yes"/>
      <point x="440" y="196"/>
      <point x="509" y="255"/>
      <point x="509" y="302" type="curve" smooth="yes"/>
      <point x="509" y="330"/>
      <point x="486" y="356"/>
      <point x="450" y="364" type="curve"/>
      <point x="419" y="339" type="line"/>
      <point x="433" y="335"/>
      <point x="436" y="329"/>
      <point x="436" y="322" type="curve" smooth="yes"/>
      <point x="436" y="297"/>
      <point x="390" y="257"/>
      <point x="365" y="257" type="curve" smooth="yes"/>
      <point x="354" y="257"/>
      <point x="348" y="266"/>
      <point x="348" y="285" type="curve" smooth="yes"/>
      <point x="348" y="458" type="line"/>
      <point x="327" y="434" type="line"/>
      <point x="344" y="371"/>
      <point x="401" y="333"/>
      <point x="456" y="333" type="curve" smooth="yes"/>
      <point x="495" y="333"/>
      <point x="506" y="335"/>
      <point x="520" y="335" type="curve" smooth="yes"/>
      <point x="561" y="335"/>
      <point x="576" y="317"/>
      <point x="576" y="290" type="curve" smooth="yes"/>
      <point x="576" y="228"/>
      <point x="495" y="151"/>
      <point x="396" y="151" type="curve" smooth="yes"/>
      <point x="370" y="151"/>
      <point x="336" y="156"/>
      <point x="303" y="164" type="curve"/>
      <point x="349" y="64" type="line"/>
      <point x="468" y="59"/>
      <point x="554" y="25"/>
      <point x="658" y="-49" type="curve"/>
    </contour>
    <contour>
      <point x="208" y="93"/>
      <point x="302" y="201"/>
      <point x="302" y="267" type="curve" smooth="yes"/>
      <point x="302" y="297"/>
      <point x="286" y="324"/>
      <point x="267" y="345" type="curve" smooth="yes"/>
      <point x="233" y="382"/>
      <point x="209" y="384"/>
      <point x="178" y="392" type="curve" smooth="yes"/>
      <point x="128" y="406"/>
      <point x="105" y="431"/>
      <point x="105" y="467" type="curve"/>
      <point x="45" y="467" type="line"/>
      <point x="45" y="235" type="line" smooth="yes"/>
      <point x="45" y="151"/>
      <point x="106" y="93"/>
      <point x="153" y="93" type="curve" smooth="yes"/>
    </contour>
    <contour>
      <point x="115" y="161"/>
      <point x="106" y="170"/>
      <point x="106" y="210" type="curve" smooth="yes"/>
      <point x="106" y="443" type="line"/>
      <point x="75" y="445" type="line"/>
      <point x="101" y="365"/>
      <point x="140" y="333"/>
      <point x="198" y="319" type="curve" smooth="yes"/>
      <point x="224" y="312"/>
      <point x="236" y="311"/>
      <point x="236" y="294" type="curve" smooth="yes"/>
      <point x="236" y="253"/>
      <point x="164" y="161"/>
      <point x="127" y="161" type="curve" smooth="yes"/>
    </contour>
    <contour>
      <point x="395" y="456" type="line"/>
      <point x="395" y="506" type="line"/>
      <point x="-20" y="506" type="line"/>
      <point x="-20" y="456" type="line"/>
    </contour>
    <contour>
      <point x="696" y="456" type="line"/>
      <point x="696" y="506" type="line"/>
      <point x="229" y="506" type="line"/>
      <point x="229" y="456" type="line"/>
    </contour>
  </outline>
</glyph>
<glyph name="bCNa" format="1">
  <advance width="378"/>
  <outline>
    <contour>
      <point x="236" y="82"/>
      <point x="354" y="181"/>
      <point x="354" y="249" type="curve" smooth="yes"/>
      <point x="354" y="278"/>
      <point x="333" y="310"/>
      <point x="318" y="329" type="curve" smooth="yes"/>
      <point x="278" y="378"/>
      <point x="245" y="380"/>
      <point x="208" y="390" type="curve" smooth="yes"/>
      <point x="157" y="404"/>
      <point x="117" y="423"/>
      <point x="117" y="472" type="curve"/>
      <point x="57" y="472" type="line"/>
      <point x="57" y="222" type="line" smooth="yes"/>
      <point x="57" y="138"/>
      <point x="117" y="82"/>
      <point x="168" y="82" type="curve" smooth="yes"/>
    </contour>
    <contour>
      <point x="127" y="150"/>
      <point x="117" y="159"/>
      <point x="117" y="196" type="curve" smooth="yes"/>
      <point x="117" y="433" type="line"/>
      <point x="86" y="445" type="line"/>
      <point x="119" y="350"/>
      <point x="164" y="324"/>
      <point x="234" y="306" type="curve" smooth="yes"/>
      <point x="265" y="298"/>
      <point x="279" y="295"/>
      <point x="279" y="278" type="curve" smooth="yes"/>
      <point x="279" y="235"/>
      <point x="189" y="150"/>
      <point x="142" y="150" type="curve" smooth="yes"/>
    </contour>
    <contour>
      <point x="398" y="456" type="line"/>
      <point x="398" y="506" type="line"/>
      <point x="-20" y="506" type="line"/>
      <point x="-20" y="456" type="line"/>
    </contour>
    <contour>
      <point x="299" y="-107" type="line"/>
      <point x="299" y="181" type="line"/>
      <point x="247" y="171" type="line"/>
      <point x="247" y="-59" type="line"/>
      <point x="272" y="-62" type="line"/>
      <point x="242" y="20"/>
      <point x="175" y="63"/>
      <point x="119" y="63" type="curve" smooth="yes"/>
      <point x="69" y="63"/>
      <point x="34" y="30"/>
      <point x="34" y="-13" type="curve" smooth="yes"/>
      <point x="34" y="-53"/>
      <point x="65" y="-81"/>
      <point x="102" y="-81" type="curve" smooth="yes"/>
      <point x="137" y="-81"/>
      <point x="164" y="-55"/>
      <point x="164" y="-20" type="curve" smooth="yes"/>
      <point x="164" y="1"/>
      <point x="154" y="21"/>
      <point x="134" y="32" type="curve"/>
      <point x="128" y="-15" type="line"/>
      <point x="137" y="-11"/>
      <point x="146" y="-8"/>
      <point x="157" y="-8" type="curve" smooth="yes"/>
      <point x="204" y="-8"/>
      <point x="249" y="-43"/>
      <point x="257" y="-107" type="curve"/>
    </contour>
  </outline>
</glyph>
<glyph name="bCNya" format="1">
  <advance width="744"/>
  <outline>
    <contour>
      <point x="492" y="-73" type="line"/>
      <point x="492" y="278" type="line" smooth="yes"/>
      <point x="492" y="337"/>
      <point x="444" y="405"/>
      <point x="390" y="405" type="curve" smooth="yes"/>
      <point x="325" y="405"/>
      <point x="233" y="302"/>
      <point x="233" y="214" type="curve" smooth="yes"/>
      <point x="233" y="158"/>
      <point x="270" y="116"/>
      <point x="320" y="116" type="curve" smooth="yes"/>
      <point x="358" y="116"/>
      <point x="386" y="142"/>
      <point x="386" y="176" type="curve" smooth="yes"/>
      <point x="386" y="209"/>
      <point x="359" y="235"/>
      <point x="327" y="235" type="curve" smooth="yes"/>
      <point x="302" y="235"/>
      <point x="281" y="219"/>
      <point x="272" y="198" type="curve"/>
      <point x="305" y="173" type="line"/>
      <point x="299" y="183"/>
      <point x="297" y="196"/>
      <point x="297" y="204" type="curve" smooth="yes"/>
      <point x="297" y="259"/>
      <point x="381" y="343"/>
      <point x="414" y="343" type="curve" smooth="yes"/>
      <point x="427" y="343"/>
      <point x="432" y="329"/>
      <point x="432" y="308" type="curve" smooth="yes"/>
      <point x="432" y="9" type="line"/>
      <point x="458" y="-20" type="line"/>
      <point x="440" y="43"/>
      <point x="396" y="83"/>
      <point x="335" y="83" type="curve" smooth="yes"/>
      <point x="305" y="83"/>
      <point x="225" y="73"/>
      <point x="186" y="73" type="curve" smooth="yes"/>
      <point x="112" y="73"/>
      <point x="71" y="110"/>
      <point x="71" y="174" type="curve" smooth="yes"/>
      <point x="71" y="198"/>
      <point x="77" y="231"/>
      <point x="88" y="254" type="curve"/>
      <point x="55" y="271" type="line"/>
      <point x="37" y="239"/>
      <point x="27" y="199"/>
      <point x="27" y="164" type="curve" smooth="yes"/>
      <point x="27" y="65"/>
      <point x="107" y="-7"/>
      <point x="216" y="-7" type="curve" smooth="yes"/>
      <point x="261" y="-7"/>
      <point x="336" y="6"/>
      <point x="372" y="6" type="curve" smooth="yes"/>
      <point x="424" y="6"/>
      <point x="446" y="-19"/>
      <point x="450" y="-73" type="curve"/>
    </contour>
    <contour>
      <point x="245" y="172"/>
      <point x="322" y="246"/>
      <point x="322" y="302" type="curve" smooth="yes"/>
      <point x="322" y="323"/>
      <point x="310" y="351"/>
      <point x="291" y="374" type="curve" smooth="yes"/>
      <point x="266" y="403"/>
      <point x="243" y="407"/>
      <point x="219" y="414" type="curve" smooth="yes"/>
      <point x="183" y="424"/>
      <point x="165" y="440"/>
      <point x="165" y="467" type="curve"/>
      <point x="110" y="467" type="line"/>
      <point x="110" y="290" type="line" smooth="yes"/>
      <point x="110" y="221"/>
      <point x="162" y="172"/>
      <point x="200" y="172" type="curve" smooth="yes"/>
    </contour>
    <contour>
      <point x="172" y="232"/>
      <point x="165" y="239"/>
      <point x="165" y="266" type="curve" smooth="yes"/>
      <point x="165" y="443" type="line"/>
      <point x="134" y="450" type="line"/>
      <point x="159" y="382"/>
      <point x="195" y="362"/>
      <point x="243" y="344" type="curve" smooth="yes"/>
      <point x="257" y="339"/>
      <point x="262" y="335"/>
      <point x="262" y="326" type="curve" smooth="yes"/>
      <point x="262" y="296"/>
      <point x="208" y="232"/>
      <point x="181" y="232" type="curve" smooth="yes"/>
    </contour>
    <contour>
      <point x="677" y="-1"/>
      <point x="716" y="41"/>
      <point x="716" y="94" type="curve" smooth="yes"/>
      <point x="716" y="145"/>
      <point x="680" y="190"/>
      <point x="647" y="208" type="curve"/>
      <point x="640" y="136" type="line"/>
      <point x="695" y="173"/>
      <point x="716" y="211"/>
      <point x="716" y="253" type="curve" smooth="yes"/>
      <point x="716" y="319"/>
      <point x="663" y="377"/>
      <point x="607" y="377" type="curve" smooth="yes"/>
      <point x="559" y="377"/>
      <point x="508" y="334"/>
      <point x="459" y="244" type="curve"/>
      <point x="471" y="139" type="line"/>
      <point x="510" y="51"/>
      <point x="564" y="-1"/>
      <point x="624" y="-1" type="curve" smooth="yes"/>
    </contour>
    <contour>
      <point x="553" y="71"/>
      <point x="504" y="129"/>
      <point x="485" y="206" type="curve"/>
      <point x="480" y="154" type="line"/>
      <point x="523" y="260"/>
      <point x="580" y="307"/>
      <point x="626" y="307" type="curve" smooth="yes"/>
      <point x="652" y="307"/>
      <point x="664" y="294"/>
      <point x="664" y="274" type="curve" smooth="yes"/>
      <point x="664" y="252"/>
      <point x="649" y="224"/>
      <point x="601" y="192" type="curve"/>
      <point x="659" y="200" type="line"/>
      <point x="647" y="219"/>
      <point x="623" y="235"/>
      <point x="597" y="235" type="curve" smooth="yes"/>
      <point x="567" y="235"/>
      <point x="542" y="210"/>
      <point x="542" y="180" type="curve" smooth="yes"/>
      <point x="542" y="148"/>
      <point x="568" y="124"/>
      <point x="600" y="124" type="curve" smooth="yes"/>
      <point x="625" y="124"/>
      <point x="653" y="139"/>
      <point x="667" y="161" type="curve"/>
      <point x="624" y="167" type="line"/>
      <point x="651" y="157"/>
      <point x="666" y="138"/>
      <point x="666" y="117" type="curve" smooth="yes"/>
      <point x="666" y="91"/>
      <point x="643" y="71"/>
      <point x="610" y="71" type="curve" smooth="yes"/>
    </contour>
    <contour>
      <point x="764" y="456" type="line"/>
      <point x="764" y="506" type="line"/>
      <point x="-20" y="506" type="line"/>
      <point x="-20" y="456" type="line"/>
    </contour>
  </outline>
</glyph>
<glyph name="bCRa" format="1">
  <advance width="428"/>
  <outline>
    <contour>
      <point x="289" y="48"/>
      <point x="405" y="163"/>
      <point x="405" y="233" type="curve" smooth="yes"/>
      <point x="405" y="267"/>
      <point x="385" y="296"/>
      <point x="368" y="316" type="curve" smooth="yes"/>
      <point x="326" y="365"/>
      <point x="297" y="368"/>
      <point x="258" y="378" type="curve" smooth="yes"/>
      <point x="207" y="391"/>
      <point x="167" y="421"/>
      <point x="167" y="472" type="curve"/>
      <point x="107" y="472" type="line"/>
      <point x="107" y="190" type="line" smooth="yes"/>
      <point x="107" y="105"/>
      <point x="170" y="48"/>
      <point x="218" y="48" type="curve" smooth="yes"/>
    </contour>
    <contour>
      <point x="178" y="117"/>
      <point x="167" y="127"/>
      <point x="167" y="165" type="curve" smooth="yes"/>
      <point x="167" y="433" type="line"/>
      <point x="136" y="445" type="line"/>
      <point x="166" y="347"/>
      <point x="213" y="311"/>
      <point x="284" y="294" type="curve" smooth="yes"/>
      <point x="323" y="284"/>
      <point x="331" y="280"/>
      <point x="331" y="262" type="curve" smooth="yes"/>
      <point x="331" y="217"/>
      <point x="242" y="117"/>
      <point x="193" y="117" type="curve" smooth="yes"/>
    </contour>
    <contour>
      <point x="355" y="-116" type="line"/>
      <point x="355" y="167" type="line"/>
      <point x="302" y="167" type="line"/>
      <point x="302" y="-62" type="line"/>
      <point x="325" y="-84" type="line"/>
      <point x="308" y="-24"/>
      <point x="266" y="14"/>
      <point x="207" y="14" type="curve" smooth="yes"/>
      <point x="190" y="14"/>
      <point x="138" y="10"/>
      <point x="123" y="10" type="curve" smooth="yes"/>
      <point x="87" y="10"/>
      <point x="65" y="31"/>
      <point x="65" y="68" type="curve" smooth="yes"/>
      <point x="65" y="88"/>
      <point x="71" y="112"/>
      <point x="79" y="130" type="curve"/>
      <point x="45" y="143" type="line"/>
      <point x="34" y="121"/>
      <point x="26" y="92"/>
      <point x="26" y="64" type="curve" smooth="yes"/>
      <point x="26" y="-10"/>
      <point x="79" y="-64"/>
      <point x="148" y="-64" type="curve" smooth="yes"/>
      <point x="172" y="-64"/>
      <point x="226" y="-57"/>
      <point x="247" y="-57" type="curve" smooth="yes"/>
      <point x="286" y="-57"/>
      <point x="309" y="-80"/>
      <point x="312" y="-116" type="curve"/>
    </contour>
    <contour>
      <point x="448" y="456" type="line"/>
      <point x="448" y="506" type="line"/>
      <point x="-20" y="506" type="line"/>
      <point x="-20" y="456" type="line"/>
    </contour>
  </outline>
</glyph>
<glyph name="bCa" format="1">
  <advance width="378"/>
  <outline>
    <contour>
      <point x="241" y="5"/>
      <point x="356" y="144"/>
      <point x="356" y="220" type="curve" smooth="yes"/>
      <point x="356" y="256"/>
      <point x="337" y="284"/>
      <point x="318" y="306" type="curve" smooth="yes"/>
      <point x="286" y="343"/>
      <point x="265" y="356"/>
      <point x="208" y="368" type="curve" smooth="yes"/>
      <point x="144" y="382"/>
      <point x="112" y="423"/>
      <point x="112" y="467" type="curve"/>
      <point x="52" y="467" type="line"/>
      <point x="52" y="152" type="line" smooth="yes"/>
      <point x="52" y="65"/>
      <point x="117" y="5"/>
      <point x="163" y="5" type="curve" smooth="yes"/>
    </contour>
    <contour>
      <point x="123" y="77"/>
      <point x="112" y="87"/>
      <point x="112" y="127" type="curve" smooth="yes"/>
      <point x="112" y="428" type="line"/>
      <point x="81" y="440" type="line"/>
      <point x="110" y="343"/>
      <point x="160" y="300"/>
      <point x="234" y="284" type="curve" smooth="yes"/>
      <point x="273" y="274"/>
      <point x="281" y="270"/>
      <point x="281" y="250" type="curve" smooth="yes"/>
      <point x="281" y="198"/>
      <point x="189" y="77"/>
      <point x="137" y="77" type="curve" smooth="yes"/>
    </contour>
    <contour>
      <point x="398" y="456" type="line"/>
      <point x="398" y="506" type="line"/>
      <point x="-20" y="506" type="line"/>
      <point x="-20" y="456" type="line"/>
    </contour>
  </outline>
</glyph>
<glyph name="bCandrabindu" format="1">
  <advance width="0"/>
  <outline>
    <contour>
      <point x="-20" y="657"/>
      <point x="-51" y="632"/>
      <point x="-94" y="632" type="curve" smooth="yes"/>
      <point x="-133" y="632"/>
      <point x="-168" y="654"/>
      <point x="-195" y="712" type="curve"/>
      <point x="-227" y="695" type="line"/>
      <point x="-189" y="609"/>
      <point x="-147" y="570"/>
      <point x="-88" y="570" type="curve" smooth="yes"/>
      <point x="-25" y="570"/>
      <point x="11" y="613"/>
      <point x="39" y="690" type="curve"/>
      <point x="2" y="709" type="line"/>
    </contour>
    <contour>
      <point x="-71" y="675"/>
      <point x="-52" y="693"/>
      <point x="-52" y="716" type="curve" smooth="yes"/>
      <point x="-52" y="739"/>
      <point x="-71" y="757"/>
      <point x="-94" y="757" type="curve" smooth="yes"/>
      <point x="-117" y="757"/>
      <point x="-135" y="739"/>
      <point x="-135" y="716" type="curve" smooth="yes"/>
      <point x="-135" y="693"/>
      <point x="-117" y="675"/>
      <point x="-94" y="675" type="curve" smooth="yes"/>
    </contour>
  </outline>
</glyph>
<glyph name="bChBa" format="1">
  <advance width="421"/>
  <outline>
    <contour>
      <point x="430" y="13" type="line"/>
      <point x="344" y="77"/>
      <point x="278" y="117"/>
      <point x="196" y="142" type="curve"/>
      <point x="191" y="99" type="line"/>
      <point x="316" y="119"/>
      <point x="387" y="193"/>
      <point x="387" y="268" type="curve" smooth="yes"/>
      <point x="387" y="340"/>
      <point x="322" y="404"/>
      <point x="245" y="404" type="curve" smooth="yes"/>
      <point x="231" y="404"/>
      <point x="204" y="402"/>
      <point x="191" y="402" type="curve" smooth="yes"/>
      <point x="142" y="402"/>
      <point x="102" y="429"/>
      <point x="98" y="467" type="curve"/>
      <point x="39" y="467" type="line"/>
      <point x="39" y="322" type="line" smooth="yes"/>
      <point x="39" y="272"/>
      <point x="82" y="214"/>
      <point x="137" y="214" type="curve" smooth="yes"/>
      <point x="190" y="214"/>
      <point x="258" y="267"/>
      <point x="258" y="311" type="curve" smooth="yes"/>
      <point x="258" y="337"/>
      <point x="236" y="363"/>
      <point x="201" y="372" type="curve"/>
      <point x="170" y="346" type="line"/>
      <point x="182" y="342"/>
      <point x="185" y="336"/>
      <point x="185" y="330" type="curve" smooth="yes"/>
      <point x="185" y="309"/>
      <point x="140" y="275"/>
      <point x="117" y="275" type="curve" smooth="yes"/>
      <point x="105" y="275"/>
      <point x="99" y="284"/>
      <point x="99" y="303" type="curve" smooth="yes"/>
      <point x="99" y="458" type="line"/>
      <point x="78" y="439" type="line"/>
      <point x="95" y="377"/>
      <point x="152" y="340"/>
      <point x="207" y="340" type="curve" smooth="yes"/>
      <point x="245" y="340"/>
      <point x="256" y="343"/>
      <point x="269" y="343" type="curve" smooth="yes"/>
      <point x="306" y="343"/>
      <point x="319" y="326"/>
      <point x="319" y="300" type="curve" smooth="yes"/>
      <point x="319" y="239"/>
      <point x="242" y="173"/>
      <point x="148" y="173" type="curve" smooth="yes"/>
      <point x="122" y="173"/>
      <point x="87" y="178"/>
      <point x="54" y="186" type="curve"/>
      <point x="100" y="92" type="line"/>
      <point x="216" y="82"/>
      <point x="301" y="46"/>
      <point x="403" y="-22" type="curve"/>
    </contour>
    <contour>
      <point x="344" y="-149" type="line"/>
      <point x="344" y="63" type="line"/>
      <point x="277" y="103" type="line"/>
      <point x="214" y="79"/>
      <point x="167" y="57"/>
      <point x="96" y="12" type="curve"/>
      <point x="150" y="-65" type="line"/>
      <point x="225" y="-75"/>
      <point x="284" y="-97"/>
      <point x="302" y="-149" type="curve"/>
    </contour>
    <contour>
      <point x="315" y="-112" type="line"/>
      <point x="285" y="-56"/>
      <point x="231" y="-17"/>
      <point x="153" y="3" type="curve"/>
      <point x="168" y="-30" type="line"/>
      <point x="230" y="13"/>
      <point x="283" y="40"/>
      <point x="331" y="56" type="curve"/>
      <point x="291" y="63" type="line"/>
      <point x="291" y="-98" type="line"/>
    </contour>
    <contour>
      <point x="442" y="456" type="line"/>
      <point x="442" y="506" type="line"/>
      <point x="-20" y="506" type="line"/>
      <point x="-20" y="456" type="line"/>
    </contour>
  </outline>
</glyph>
<glyph name="bChRa" format="1">
  <advance width="466"/>
  <outline>
    <contour>
      <point x="475" y="13" type="line"/>
      <point x="389" y="78"/>
      <point x="323" y="117"/>
      <point x="241" y="142" type="curve"/>
      <point x="236" y="96" type="line"/>
      <point x="359" y="115"/>
      <point x="432" y="191"/>
      <point x="432" y="268" type="curve" smooth="yes"/>
      <point x="432" y="340"/>
      <point x="367" y="404"/>
      <point x="290" y="404" type="curve" smooth="yes"/>
      <point x="276" y="404"/>
      <point x="249" y="402"/>
      <point x="236" y="402" type="curve" smooth="yes"/>
      <point x="187" y="402"/>
      <point x="147" y="429"/>
      <point x="143" y="467" type="curve"/>
      <point x="84" y="467" type="line"/>
      <point x="84" y="320" type="line" smooth="yes"/>
      <point x="84" y="270"/>
      <point x="127" y="211"/>
      <point x="182" y="211" type="curve" smooth="yes"/>
      <point x="235" y="211"/>
      <point x="303" y="266"/>
      <point x="303" y="311" type="curve" smooth="yes"/>
      <point x="303" y="337"/>
      <point x="281" y="363"/>
      <point x="246" y="372" type="curve"/>
      <point x="215" y="346" type="line"/>
      <point x="227" y="342"/>
      <point x="230" y="336"/>
      <point x="230" y="330" type="curve" smooth="yes"/>
      <point x="230" y="308"/>
      <point x="185" y="273"/>
      <point x="162" y="273" type="curve" smooth="yes"/>
      <point x="150" y="273"/>
      <point x="144" y="281"/>
      <point x="144" y="301" type="curve" smooth="yes"/>
      <point x="144" y="458" type="line"/>
      <point x="123" y="439" type="line"/>
      <point x="140" y="377"/>
      <point x="197" y="340"/>
      <point x="252" y="340" type="curve" smooth="yes"/>
      <point x="290" y="340"/>
      <point x="301" y="343"/>
      <point x="314" y="343" type="curve" smooth="yes"/>
      <point x="350" y="343"/>
      <point x="364" y="326"/>
      <point x="364" y="301" type="curve" smooth="yes"/>
      <point x="364" y="243"/>
      <point x="287" y="171"/>
      <point x="192" y="171" type="curve" smooth="yes"/>
      <point x="167" y="171"/>
      <point x="132" y="176"/>
      <point x="99" y="184" type="curve"/>
      <point x="145" y="84" type="line"/>
      <point x="261" y="79"/>
      <point x="346" y="47"/>
      <point x="448" y="-22" type="curve"/>
    </contour>
    <contour>
      <point x="387" y="-111" type="line"/>
      <point x="387" y="67" type="line"/>
      <point x="334" y="67" type="line"/>
      <point x="334" y="-57" type="line"/>
      <point x="357" y="-79" type="line"/>
      <point x="337" y="-16"/>
      <point x="293" y="21"/>
      <point x="231" y="21" type="curve" smooth="yes"/>
      <point x="213" y="21"/>
      <point x="159" y="18"/>
      <point x="139" y="18" type="curve" smooth="yes"/>
      <point x="90" y="18"/>
      <point x="62" y="37"/>
      <point x="62" y="82" type="curve" smooth="yes"/>
      <point x="62" y="98"/>
      <point x="67" y="119"/>
      <point x="74" y="139" type="curve"/>
      <point x="40" y="153" type="line"/>
      <point x="29" y="129"/>
      <point x="23" y="101"/>
      <point x="23" y="77" type="curve" smooth="yes"/>
      <point x="23" y="-2"/>
      <point x="84" y="-58"/>
      <point x="163" y="-58" type="curve" smooth="yes"/>
      <point x="193" y="-58"/>
      <point x="247" y="-50"/>
      <point x="273" y="-50" type="curve" smooth="yes"/>
      <point x="316" y="-50"/>
      <point x="340" y="-75"/>
      <point x="344" y="-111" type="curve"/>
    </contour>
    <contour>
      <point x="487" y="456" type="line"/>
      <point x="487" y="506" type="line"/>
      <point x="-20" y="506" type="line"/>
      <point x="-20" y="456" type="line"/>
    </contour>
  </outline>
</glyph>
<glyph name="bCha" format="1">
  <advance width="427"/>
  <outline>
    <contour>
      <point x="436" y="-15" type="line"/>
      <point x="348" y="54"/>
      <point x="280" y="96"/>
      <point x="196" y="122" type="curve"/>
      <point x="191" y="76" type="line"/>
      <point x="321" y="96"/>
      <point x="395" y="179"/>
      <point x="395" y="257" type="curve" smooth="yes"/>
      <point x="395" y="332"/>
      <point x="327" y="396"/>
      <point x="248" y="396" type="curve" smooth="yes"/>
      <point x="234" y="396"/>
      <point x="207" y="394"/>
      <point x="194" y="394" type="curve" smooth="yes"/>
      <point x="143" y="394"/>
      <point x="102" y="425"/>
      <point x="98" y="467" type="curve"/>
      <point x="39" y="467" type="line"/>
      <point x="39" y="304" type="line" smooth="yes"/>
      <point x="39" y="254"/>
      <point x="82" y="196"/>
      <point x="137" y="196" type="curve" smooth="yes"/>
      <point x="191" y="196"/>
      <point x="260" y="255"/>
      <point x="260" y="302" type="curve" smooth="yes"/>
      <point x="260" y="330"/>
      <point x="237" y="356"/>
      <point x="201" y="364" type="curve"/>
      <point x="170" y="339" type="line"/>
      <point x="184" y="335"/>
      <point x="187" y="329"/>
      <point x="187" y="322" type="curve" smooth="yes"/>
      <point x="187" y="297"/>
      <point x="141" y="257"/>
      <point x="116" y="257" type="curve" smooth="yes"/>
      <point x="105" y="257"/>
      <point x="99" y="266"/>
      <point x="99" y="285" type="curve" smooth="yes"/>
      <point x="99" y="458" type="line"/>
      <point x="78" y="434" type="line"/>
      <point x="95" y="371"/>
      <point x="152" y="333"/>
      <point x="207" y="333" type="curve" smooth="yes"/>
      <point x="246" y="333"/>
      <point x="257" y="335"/>
      <point x="271" y="335" type="curve" smooth="yes"/>
      <point x="312" y="335"/>
      <point x="327" y="317"/>
      <point x="327" y="290" type="curve" smooth="yes"/>
      <point x="327" y="228"/>
      <point x="246" y="151"/>
      <point x="147" y="151" type="curve" smooth="yes"/>
      <point x="121" y="151"/>
      <point x="87" y="156"/>
      <point x="54" y="164" type="curve"/>
      <point x="100" y="64" type="line"/>
      <point x="219" y="59"/>
      <point x="305" y="25"/>
      <point x="409" y="-49" type="curve"/>
    </contour>
    <contour>
      <point x="447" y="456" type="line"/>
      <point x="447" y="506" type="line"/>
      <point x="-20" y="506" type="line"/>
      <point x="-20" y="456" type="line"/>
    </contour>
  </outline>
</glyph>
<glyph name="bDBa" format="1">
  <advance width="425"/>
  <outline>
    <contour>
      <point x="376" y="-40" type="line"/>
      <point x="376" y="297" type="line" smooth="yes"/>
      <point x="376" y="353"/>
      <point x="319" y="415"/>
      <point x="266" y="415" type="curve" smooth="yes"/>
      <point x="214" y="415"/>
      <point x="134" y="366"/>
      <point x="73" y="283" type="curve"/>
      <point x="104" y="260" type="line"/>
      <point x="104" y="467" type="line"/>
      <point x="44" y="467" type="line"/>
      <point x="44" y="269" type="line"/>
      <point x="114" y="211" type="line"/>
      <point x="163" y="285"/>
      <point x="247" y="344"/>
      <point x="289" y="344" type="curve" smooth="yes"/>
      <point x="305" y="344"/>
      <point x="316" y="335"/>
      <point x="316" y="309" type="curve" smooth="yes"/>
      <point x="316" y="20" type="line"/>
      <point x="349" y="-4" type="line"/>
      <point x="319" y="74"/>
      <point x="239" y="136"/>
      <point x="147" y="151" type="curve"/>
      <point x="172" y="109" type="line"/>
      <point x="242" y="164"/>
      <point x="301" y="198"/>
      <point x="365" y="224" type="curve"/>
      <point x="346" y="293" type="line"/>
      <point x="284" y="273"/>
      <point x="196" y="224"/>
      <point x="104" y="152" type="curve"/>
      <point x="158" y="80" type="line"/>
      <point x="247" y="71"/>
      <point x="315" y="30"/>
      <point x="334" y="-40" type="curve"/>
    </contour>
    <contour>
      <point x="445" y="456" type="line"/>
      <point x="445" y="506" type="line"/>
      <point x="-20" y="506" type="line"/>
      <point x="-20" y="456" type="line"/>
    </contour>
  </outline>
</glyph>
<glyph name="bDBhRa" format="1">
  <advance width="467"/>
  <outline>
    <contour>
      <point x="447" y="-142" type="line"/>
      <point x="447" y="67" type="line" smooth="yes"/>
      <point x="447" y="124"/>
      <point x="417" y="182"/>
      <point x="377" y="211" type="curve"/>
      <point x="341" y="157"/>
      <point x="293" y="122"/>
      <point x="247" y="122" type="curve" smooth="yes"/>
      <point x="237" y="122"/>
      <point x="223" y="124"/>
      <point x="212" y="129" type="curve"/>
      <point x="224" y="91" type="line"/>
      <point x="248" y="103"/>
      <point x="260" y="120"/>
      <point x="260" y="144" type="curve" smooth="yes"/>
      <point x="260" y="180"/>
      <point x="232" y="203"/>
      <point x="201" y="203" type="curve" smooth="yes"/>
      <point x="167" y="203"/>
      <point x="141" y="175"/>
      <point x="141" y="139" type="curve" smooth="yes"/>
      <point x="141" y="92"/>
      <point x="186" y="49"/>
      <point x="254" y="49" type="curve" smooth="yes"/>
      <point x="327" y="49"/>
      <point x="388" y="99"/>
      <point x="416" y="148" type="curve"/>
      <point x="367" y="148" type="line"/>
      <point x="378" y="136"/>
      <point x="387" y="114"/>
      <point x="387" y="88" type="curve" smooth="yes"/>
      <point x="387" y="-71" type="line"/>
      <point x="413" y="-99" type="line"/>
      <point x="397" y="-43"/>
      <point x="359" y="-3"/>
      <point x="299" y="-3" type="curve" smooth="yes"/>
      <point x="273" y="-3"/>
      <point x="192" y="-11"/>
      <point x="160" y="-11" type="curve" smooth="yes"/>
      <point x="97" y="-11"/>
      <point x="64" y="22"/>
      <point x="64" y="74" type="curve" smooth="yes"/>
      <point x="64" y="105"/>
      <point x="76" y="138"/>
      <point x="90" y="162" type="curve"/>
      <point x="58" y="180" type="line"/>
      <point x="33" y="144"/>
      <point x="20" y="106"/>
      <point x="20" y="67" type="curve" smooth="yes"/>
      <point x="20" y="-24"/>
      <point x="89" y="-90"/>
      <point x="190" y="-90" type="curve" smooth="yes"/>
      <point x="230" y="-90"/>
      <point x="303" y="-80"/>
      <point x="338" y="-80" type="curve" smooth="yes"/>
      <point x="384" y="-80"/>
      <point x="401" y="-101"/>
      <point x="405" y="-142" type="curve"/>
    </contour>
    <contour>
      <point x="342" y="141"/>
      <point x="337" y="170"/>
      <point x="337" y="206" type="curve" smooth="yes"/>
      <point x="337" y="273"/>
      <point x="354" y="319"/>
      <point x="402" y="370" type="curve"/>
      <point x="328" y="434" type="line"/>
      <point x="246" y="409"/>
      <point x="179" y="363"/>
      <point x="128" y="302" type="curve"/>
      <point x="156" y="278" type="line"/>
      <point x="156" y="467" type="line"/>
      <point x="96" y="467" type="line"/>
      <point x="96" y="282" type="line"/>
      <point x="166" y="222" type="line"/>
      <point x="217" y="287"/>
      <point x="272" y="324"/>
      <point x="334" y="351" type="curve"/>
      <point x="324" y="385" type="line"/>
      <point x="298" y="356"/>
      <point x="284" y="302"/>
      <point x="284" y="247" type="curve" smooth="yes"/>
      <point x="284" y="208"/>
      <point x="291" y="161"/>
      <point x="304" y="118" type="curve"/>
      <point x="351" y="102" type="line"/>
    </contour>
    <contour>
      <point x="487" y="456" type="line"/>
      <point x="487" y="506" type="line"/>
      <point x="-20" y="506" type="line"/>
      <point x="-20" y="456" type="line"/>
    </contour>
  </outline>
</glyph>
<glyph name="bDBha" format="1">
  <advance width="532"/>
  <outline>
    <contour>
      <point x="452" y="-102"/>
      <point x="524" y="-37"/>
      <point x="524" y="57" type="curve" smooth="yes"/>
      <point x="524" y="119"/>
      <point x="492" y="178"/>
      <point x="451" y="216" type="curve"/>
      <point x="411" y="158"/>
      <point x="359" y="122"/>
      <point x="308" y="122" type="curve" smooth="yes"/>
      <point x="297" y="122"/>
      <point x="283" y="124"/>
      <point x="272" y="129" type="curve"/>
      <point x="285" y="91" type="line"/>
      <point x="308" y="103"/>
      <point x="320" y="120"/>
      <point x="320" y="144" type="curve" smooth="yes"/>
      <point x="320" y="180"/>
      <point x="292" y="203"/>
      <point x="261" y="203" type="curve" smooth="yes"/>
      <point x="227" y="203"/>
      <point x="201" y="175"/>
      <point x="201" y="139" type="curve" smooth="yes"/>
      <point x="201" y="92"/>
      <point x="246" y="49"/>
      <point x="315" y="49" type="curve" smooth="yes"/>
      <point x="391" y="49"/>
      <point x="455" y="100"/>
      <point x="487" y="151" type="curve"/>
      <point x="442" y="148" type="line"/>
      <point x="457" y="136"/>
      <point x="468" y="114"/>
      <point x="468" y="88" type="curve" smooth="yes"/>
      <point x="468" y="29"/>
      <point x="413" y="-13"/>
      <point x="341" y="-13" type="curve" smooth="yes"/>
      <point x="214" y="-13"/>
      <point x="116" y="117"/>
      <point x="42" y="393" type="curve"/>
      <point x="0" y="380" type="line"/>
      <point x="83" y="62"/>
      <point x="206" y="-102"/>
      <point x="356" y="-102" type="curve" smooth="yes"/>
    </contour>
    <contour>
      <point x="402" y="141"/>
      <point x="397" y="170"/>
      <point x="397" y="206" type="curve" smooth="yes"/>
      <point x="397" y="273"/>
      <point x="414" y="319"/>
      <point x="462" y="370" type="curve"/>
      <point x="388" y="434" type="line"/>
      <point x="306" y="409"/>
      <point x="239" y="363"/>
      <point x="188" y="302" type="curve"/>
      <point x="216" y="278" type="line"/>
      <point x="216" y="467" type="line"/>
      <point x="156" y="467" type="line"/>
      <point x="156" y="282" type="line"/>
      <point x="226" y="222" type="line"/>
      <point x="277" y="287"/>
      <point x="332" y="324"/>
      <point x="394" y="351" type="curve"/>
      <point x="384" y="385" type="line"/>
      <point x="358" y="356"/>
      <point x="344" y="302"/>
      <point x="344" y="247" type="curve" smooth="yes"/>
      <point x="344" y="208"/>
      <point x="351" y="161"/>
      <point x="364" y="118" type="curve"/>
      <point x="411" y="102" type="line"/>
    </contour>
    <contour>
      <point x="552" y="456" type="line"/>
      <point x="552" y="506" type="line"/>
      <point x="-20" y="506" type="line"/>
      <point x="-20" y="456" type="line"/>
    </contour>
  </outline>
</glyph>
<glyph name="bDDBa" format="1">
  <advance width="561"/>
  <outline>
    <contour>
      <point x="489" y="-120" type="line"/>
      <point x="474" y="-44"/>
      <point x="468" y="28"/>
      <point x="468" y="75" type="curve" smooth="yes"/>
      <point x="468" y="152"/>
      <point x="489" y="203"/>
      <point x="543" y="265" type="curve"/>
      <point x="467" y="334" type="line"/>
      <point x="380" y="297"/>
      <point x="305" y="225"/>
      <point x="263" y="143" type="curve"/>
      <point x="285" y="145" type="line"/>
      <point x="285" y="230"/>
      <point x="305" y="287"/>
      <point x="360" y="356" type="curve"/>
      <point x="283" y="423" type="line"/>
      <point x="198" y="387"/>
      <point x="123" y="318"/>
      <point x="76" y="239" type="curve"/>
      <point x="104" y="210" type="line"/>
      <point x="104" y="467" type="line"/>
      <point x="44" y="467" type="line"/>
      <point x="44" y="214" type="line"/>
      <point x="114" y="147" type="line"/>
      <point x="161" y="235"/>
      <point x="224" y="297"/>
      <point x="288" y="330" type="curve"/>
      <point x="282" y="371" type="line"/>
      <point x="248" y="335"/>
      <point x="230" y="271"/>
      <point x="230" y="200" type="curve" smooth="yes"/>
      <point x="230" y="176"/>
      <point x="232" y="150"/>
      <point x="236" y="124" type="curve"/>
      <point x="301" y="71" type="line"/>
      <point x="344" y="150"/>
      <point x="407" y="210"/>
      <point x="471" y="243" type="curve"/>
      <point x="465" y="284" type="line"/>
      <point x="432" y="244"/>
      <point x="415" y="188"/>
      <point x="415" y="120" type="curve" smooth="yes"/>
      <point x="415" y="58"/>
      <point x="426" y="-28"/>
      <point x="449" y="-127" type="curve"/>
    </contour>
    <contour>
      <point x="467" y="-105" type="line"/>
      <point x="439" y="-59"/>
      <point x="387" y="-27"/>
      <point x="313" y="-11" type="curve"/>
      <point x="333" y="-37" type="line"/>
      <point x="380" y="-4"/>
      <point x="424" y="21"/>
      <point x="463" y="36" type="curve"/>
      <point x="434" y="104" type="line"/>
      <point x="371" y="72"/>
      <point x="325" y="45"/>
      <point x="256" y="-2" type="curve"/>
      <point x="310" y="-72" type="line"/>
      <point x="374" y="-76"/>
      <point x="425" y="-89"/>
      <point x="449" y="-127" type="curve"/>
    </contour>
    <contour>
      <point x="581" y="456" type="line"/>
      <point x="581" y="506" type="line"/>
      <point x="-20" y="506" type="line"/>
      <point x="-20" y="456" type="line"/>
    </contour>
  </outline>
</glyph>
<glyph name="bDDRa" format="1">
  <advance width="611"/>
  <outline>
    <contour>
      <point x="536" y="-75" type="line"/>
      <point x="524" y="-19"/>
      <point x="519" y="37"/>
      <point x="519" y="74" type="curve" smooth="yes"/>
      <point x="519" y="148"/>
      <point x="539" y="204"/>
      <point x="594" y="270" type="curve"/>
      <point x="518" y="339" type="line"/>
      <point x="431" y="303"/>
      <point x="356" y="233"/>
      <point x="314" y="152" type="curve"/>
      <point x="334" y="152" type="line"/>
      <point x="334" y="234"/>
      <point x="355" y="289"/>
      <point x="410" y="356" type="curve"/>
      <point x="334" y="423" type="line"/>
      <point x="250" y="387"/>
      <point x="177" y="318"/>
      <point x="132" y="239" type="curve"/>
      <point x="160" y="210" type="line"/>
      <point x="160" y="467" type="line"/>
      <point x="100" y="467" type="line"/>
      <point x="100" y="214" type="line"/>
      <point x="170" y="147" type="line"/>
      <point x="215" y="235"/>
      <point x="277" y="297"/>
      <point x="338" y="330" type="curve"/>
      <point x="332" y="371" type="line"/>
      <point x="299" y="335"/>
      <point x="281" y="272"/>
      <point x="281" y="202" type="curve" smooth="yes"/>
      <point x="281" y="178"/>
      <point x="283" y="155"/>
      <point x="286" y="131" type="curve"/>
      <point x="357" y="80" type="line"/>
      <point x="399" y="160"/>
      <point x="459" y="217"/>
      <point x="522" y="248" type="curve"/>
      <point x="516" y="289" type="line"/>
      <point x="482" y="246"/>
      <point x="464" y="178"/>
      <point x="464" y="109" type="curve" smooth="yes"/>
      <point x="464" y="71"/>
      <point x="470" y="27"/>
      <point x="481" y="-21" type="curve"/>
      <point x="498" y="-34" type="line"/>
      <point x="476" y="11"/>
      <point x="426" y="45"/>
      <point x="359" y="45" type="curve" smooth="yes"/>
      <point x="327" y="45"/>
      <point x="214" y="37"/>
      <point x="174" y="37" type="curve" smooth="yes"/>
      <point x="105" y="37"/>
      <point x="71" y="60"/>
      <point x="71" y="107" type="curve" smooth="yes"/>
      <point x="71" y="124"/>
      <point x="75" y="143"/>
      <point x="82" y="161" type="curve"/>
      <point x="48" y="174" type="line"/>
      <point x="38" y="152"/>
      <point x="31" y="126"/>
      <point x="31" y="102" type="curve" smooth="yes"/>
      <point x="31" y="24"/>
      <point x="100" y="-39"/>
      <point x="202" y="-39" type="curve" smooth="yes"/>
      <point x="251" y="-39"/>
      <point x="372" y="-25"/>
      <point x="415" y="-25" type="curve" smooth="yes"/>
      <point x="464" y="-25"/>
      <point x="484" y="-45"/>
      <point x="494" y="-82" type="curve"/>
    </contour>
    <contour>
      <point x="631" y="456" type="line"/>
      <point x="631" y="506" type="line"/>
      <point x="-20" y="506" type="line"/>
      <point x="-20" y="456" type="line"/>
    </contour>
  </outline>
</glyph>
<glyph name="bDDa" format="1">
  <advance width="561"/>
  <outline>
    <contour>
      <point x="480" y="-55" type="line"/>
      <point x="472" y="-7"/>
      <point x="468" y="42"/>
      <point x="468" y="71" type="curve" smooth="yes"/>
      <point x="468" y="146"/>
      <point x="489" y="198"/>
      <point x="543" y="260" type="curve"/>
      <point x="467" y="329" type="line"/>
      <point x="380" y="293"/>
      <point x="305" y="221"/>
      <point x="263" y="139" type="curve"/>
      <point x="285" y="142" type="line"/>
      <point x="285" y="228"/>
      <point x="305" y="286"/>
      <point x="360" y="356" type="curve"/>
      <point x="283" y="423" type="line"/>
      <point x="198" y="387"/>
      <point x="123" y="318"/>
      <point x="76" y="239" type="curve"/>
      <point x="104" y="210" type="line"/>
      <point x="104" y="467" type="line"/>
      <point x="44" y="467" type="line"/>
      <point x="44" y="214" type="line"/>
      <point x="114" y="147" type="line"/>
      <point x="161" y="235"/>
      <point x="224" y="297"/>
      <point x="288" y="330" type="curve"/>
      <point x="282" y="371" type="line"/>
      <point x="248" y="333"/>
      <point x="230" y="266"/>
      <point x="230" y="192" type="curve" smooth="yes"/>
      <point x="230" y="167"/>
      <point x="232" y="142"/>
      <point x="236" y="116" type="curve"/>
      <point x="301" y="52" type="line"/>
      <point x="344" y="141"/>
      <point x="407" y="204"/>
      <point x="471" y="238" type="curve"/>
      <point x="465" y="279" type="line"/>
      <point x="432" y="239"/>
      <point x="414" y="179"/>
      <point x="414" y="112" type="curve" smooth="yes"/>
      <point x="414" y="65"/>
      <point x="423" y="2"/>
      <point x="438" y="-62" type="curve"/>
    </contour>
    <contour>
      <point x="581" y="456" type="line"/>
      <point x="581" y="506" type="line"/>
      <point x="-20" y="506" type="line"/>
      <point x="-20" y="456" type="line"/>
    </contour>
  </outline>
</glyph>
<glyph name="bDDhBa" format="1">
  <advance width="559"/>
  <outline>
    <contour>
      <point x="376" y="79" type="line"/>
      <point x="376" y="307" type="line" smooth="yes"/>
      <point x="376" y="363"/>
      <point x="320" y="425"/>
      <point x="265" y="425" type="curve" smooth="yes"/>
      <point x="215" y="425"/>
      <point x="134" y="372"/>
      <point x="73" y="283" type="curve"/>
      <point x="104" y="260" type="line"/>
      <point x="104" y="467" type="line"/>
      <point x="44" y="467" type="line"/>
      <point x="44" y="269" type="line"/>
      <point x="114" y="211" type="line"/>
      <point x="163" y="290"/>
      <point x="247" y="354"/>
      <point x="289" y="354" type="curve" smooth="yes"/>
      <point x="305" y="354"/>
      <point x="316" y="345"/>
      <point x="316" y="319" type="curve" smooth="yes"/>
      <point x="316" y="79" type="line"/>
    </contour>
    <contour>
      <point x="376" y="-106" type="line"/>
      <point x="376" y="115" type="line"/>
      <point x="340" y="152" type="line"/>
      <point x="272" y="119"/>
      <point x="227" y="94"/>
      <point x="153" y="41" type="curve"/>
      <point x="201" y="-28" type="line"/>
      <point x="261" y="-33"/>
      <point x="319" y="-58"/>
      <point x="333" y="-106" type="curve"/>
    </contour>
    <contour>
      <point x="345" y="-69" type="line"/>
      <point x="321" y="-20"/>
      <point x="274" y="16"/>
      <point x="208" y="32" type="curve"/>
      <point x="223" y="7" type="line"/>
      <point x="273" y="45"/>
      <point x="317" y="70"/>
      <point x="357" y="86" type="curve"/>
      <point x="321" y="95" type="line"/>
      <point x="321" y="-55" type="line"/>
    </contour>
    <contour>
      <point x="290" y="90" type="line"/>
      <point x="250" y="128"/>
      <point x="198" y="154"/>
      <point x="141" y="164" type="curve"/>
      <point x="164" y="125" type="line"/>
      <point x="234" y="174"/>
      <point x="298" y="211"/>
      <point x="365" y="241" type="curve"/>
      <point x="341" y="308" type="line"/>
      <point x="280" y="281"/>
      <point x="188" y="229"/>
      <point x="98" y="165" type="curve"/>
      <point x="152" y="94" type="line"/>
      <point x="194" y="90"/>
      <point x="232" y="79"/>
      <point x="262" y="61" type="curve"/>
    </contour>
    <contour>
      <point x="545" y="-12" type="line"/>
      <point x="526" y="5"/>
      <point x="516" y="27"/>
      <point x="516" y="52" type="curve" smooth="yes"/>
      <point x="516" y="239" type="line" smooth="yes"/>
      <point x="516" y="286"/>
      <point x="468" y="345"/>
      <point x="431" y="345" type="curve" smooth="yes"/>
      <point x="413" y="345"/>
      <point x="376" y="332"/>
      <point x="341" y="308" type="curve"/>
      <point x="365" y="242" type="line"/>
      <point x="395" y="263"/>
      <point x="431" y="279"/>
      <point x="446" y="279" type="curve" smooth="yes"/>
      <point x="454" y="279"/>
      <point x="457" y="275"/>
      <point x="457" y="264" type="curve" smooth="yes"/>
      <point x="457" y="72" type="line" smooth="yes"/>
      <point x="457" y="15"/>
      <point x="485" y="-15"/>
      <point x="525" y="-40" type="curve"/>
    </contour>
    <contour>
      <point x="579" y="456" type="line"/>
      <point x="579" y="506" type="line"/>
      <point x="-20" y="506" type="line"/>
      <point x="-20" y="456" type="line"/>
    </contour>
  </outline>
</glyph>
<glyph name="bDDha" format="1">
  <advance width="559"/>
  <outline>
    <contour>
      <point x="376" y="-40" type="line"/>
      <point x="376" y="297" type="line" smooth="yes"/>
      <point x="376" y="353"/>
      <point x="320" y="415"/>
      <point x="265" y="415" type="curve" smooth="yes"/>
      <point x="215" y="415"/>
      <point x="134" y="366"/>
      <point x="73" y="283" type="curve"/>
      <point x="104" y="260" type="line"/>
      <point x="104" y="467" type="line"/>
      <point x="44" y="467" type="line"/>
      <point x="44" y="269" type="line"/>
      <point x="114" y="211" type="line"/>
      <point x="163" y="285"/>
      <point x="247" y="344"/>
      <point x="289" y="344" type="curve" smooth="yes"/>
      <point x="305" y="344"/>
      <point x="316" y="335"/>
      <point x="316" y="309" type="curve" smooth="yes"/>
      <point x="316" y="20" type="line"/>
      <point x="349" y="-4" type="line"/>
      <point x="319" y="74"/>
      <point x="239" y="136"/>
      <point x="147" y="151" type="curve"/>
      <point x="172" y="109" type="line"/>
      <point x="242" y="162"/>
      <point x="301" y="199"/>
      <point x="365" y="231" type="curve"/>
      <point x="346" y="299" type="line"/>
      <point x="284" y="274"/>
      <point x="196" y="222"/>
      <point x="104" y="152" type="curve"/>
      <point x="158" y="80" type="line"/>
      <point x="247" y="71"/>
      <point x="315" y="30"/>
      <point x="336" y="-40" type="curve"/>
    </contour>
    <contour>
      <point x="545" y="-2" type="line"/>
      <point x="526" y="15"/>
      <point x="516" y="37"/>
      <point x="516" y="62" type="curve" smooth="yes"/>
      <point x="516" y="224" type="line" smooth="yes"/>
      <point x="516" y="272"/>
      <point x="468" y="331"/>
      <point x="430" y="331" type="curve" smooth="yes"/>
      <point x="413" y="331"/>
      <point x="376" y="319"/>
      <point x="341" y="298" type="curve"/>
      <point x="365" y="232" type="line"/>
      <point x="395" y="250"/>
      <point x="431" y="265"/>
      <point x="446" y="265" type="curve" smooth="yes"/>
      <point x="454" y="265"/>
      <point x="457" y="261"/>
      <point x="457" y="249" type="curve" smooth="yes"/>
      <point x="457" y="82" type="line" smooth="yes"/>
      <point x="457" y="25"/>
      <point x="485" y="-5"/>
      <point x="525" y="-30" type="curve"/>
    </contour>
    <contour>
      <point x="579" y="456" type="line"/>
      <point x="579" y="506" type="line"/>
      <point x="-20" y="506" type="line"/>
      <point x="-20" y="456" type="line"/>
    </contour>
  </outline>
</glyph>
<glyph name="bDGa" format="1">
  <advance width="822"/>
  <outline>
    <contour>
      <point x="761" y="0" type="line"/>
      <point x="761" y="456" type="line"/>
      <point x="841" y="456" type="line"/>
      <point x="841" y="506" type="line"/>
      <point x="701" y="506" type="line"/>
      <point x="701" y="314" type="line"/>
      <point x="735" y="316" type="line"/>
      <point x="705" y="431"/>
      <point x="631" y="515"/>
      <point x="532" y="515" type="curve" smooth="yes"/>
      <point x="436" y="515"/>
      <point x="364" y="437"/>
      <point x="364" y="348" type="curve" smooth="yes"/>
      <point x="364" y="295"/>
      <point x="397" y="258"/>
      <point x="430" y="258" type="curve" smooth="yes"/>
      <point x="473" y="258"/>
      <point x="509" y="310"/>
      <point x="551" y="310" type="curve" smooth="yes"/>
      <point x="567" y="310"/>
      <point x="577" y="302"/>
      <point x="577" y="285" type="curve" smooth="yes"/>
      <point x="577" y="252"/>
      <point x="538" y="197"/>
      <point x="462" y="141" type="curve"/>
      <point x="535" y="81" type="line"/>
      <point x="600" y="136"/>
      <point x="633" y="196"/>
      <point x="633" y="251" type="curve" smooth="yes"/>
      <point x="633" y="311"/>
      <point x="593" y="375"/>
      <point x="523" y="375" type="curve" smooth="yes"/>
      <point x="490" y="375"/>
      <point x="455" y="359"/>
      <point x="416" y="323" type="curve"/>
      <point x="451" y="292" type="line"/>
      <point x="443" y="304"/>
      <point x="440" y="318"/>
      <point x="440" y="329" type="curve" smooth="yes"/>
      <point x="440" y="390"/>
      <point x="491" y="442"/>
      <point x="557" y="442" type="curve" smooth="yes"/>
      <point x="640" y="442"/>
      <point x="701" y="363"/>
      <point x="701" y="264" type="curve" smooth="yes"/>
      <point x="701" y="0" type="line"/>
    </contour>
    <contour>
      <point x="321" y="-5" type="line"/>
      <point x="312" y="51"/>
      <point x="307" y="106"/>
      <point x="307" y="142" type="curve" smooth="yes"/>
      <point x="307" y="219"/>
      <point x="328" y="276"/>
      <point x="387" y="340" type="curve"/>
      <point x="310" y="412" type="line"/>
      <point x="213" y="381"/>
      <point x="127" y="312"/>
      <point x="76" y="234" type="curve"/>
      <point x="104" y="205" type="line"/>
      <point x="104" y="467" type="line"/>
      <point x="44" y="467" type="line"/>
      <point x="44" y="209" type="line"/>
      <point x="111" y="133" type="line"/>
      <point x="168" y="225"/>
      <point x="240" y="287"/>
      <point x="312" y="320" type="curve"/>
      <point x="304" y="366" type="line"/>
      <point x="271" y="328"/>
      <point x="253" y="262"/>
      <point x="253" y="186" type="curve" smooth="yes"/>
      <point x="253" y="130"/>
      <point x="263" y="60"/>
      <point x="279" y="-12" type="curve"/>
    </contour>
    <contour>
      <point x="375" y="456" type="line"/>
      <point x="375" y="506" type="line"/>
      <point x="-20" y="506" type="line"/>
      <point x="-20" y="456" type="line"/>
    </contour>
  </outline>
</glyph>
<glyph name="bDGha" format="1">
  <advance width="763"/>
  <outline>
    <contour>
      <point x="321" y="-5" type="line"/>
      <point x="312" y="51"/>
      <point x="307" y="106"/>
      <point x="307" y="142" type="curve" smooth="yes"/>
      <point x="307" y="219"/>
      <point x="328" y="276"/>
      <point x="387" y="340" type="curve"/>
      <point x="310" y="412" type="line"/>
      <point x="213" y="381"/>
      <point x="127" y="312"/>
      <point x="76" y="234" type="curve"/>
      <point x="104" y="205" type="line"/>
      <point x="104" y="467" type="line"/>
      <point x="44" y="467" type="line"/>
      <point x="44" y="209" type="line"/>
      <point x="111" y="133" type="line"/>
      <point x="168" y="225"/>
      <point x="240" y="287"/>
      <point x="312" y="320" type="curve"/>
      <point x="304" y="366" type="line"/>
      <point x="271" y="328"/>
      <point x="253" y="262"/>
      <point x="253" y="186" type="curve" smooth="yes"/>
      <point x="253" y="130"/>
      <point x="263" y="60"/>
      <point x="279" y="-12" type="curve"/>
    </contour>
    <contour>
      <point x="375" y="456" type="line"/>
      <point x="375" y="506" type="line"/>
      <point x="-20" y="506" type="line"/>
      <point x="-20" y="456" type="line"/>
    </contour>
    <contour>
      <point x="702" y="0" type="line"/>
      <point x="702" y="467" type="line"/>
      <point x="642" y="467" type="line"/>
      <point x="642" y="59" type="line"/>
      <point x="682" y="35" type="line"/>
      <point x="636" y="149"/>
      <point x="541" y="222"/>
      <point x="426" y="247" type="curve"/>
      <point x="447" y="191" type="line"/>
      <point x="606" y="316" type="line"/>
      <point x="548" y="382" type="line"/>
      <point x="370" y="240" type="line"/>
      <point x="431" y="166" type="line"/>
      <point x="556" y="156"/>
      <point x="641" y="80"/>
      <point x="660" y="0" type="curve"/>
    </contour>
    <contour>
      <point x="502" y="297"/>
      <point x="527" y="303"/>
      <point x="550" y="314" type="curve"/>
      <point x="522" y="359" type="line"/>
      <point x="508" y="348"/>
      <point x="489" y="340"/>
      <point x="472" y="340" type="curve" smooth="yes"/>
      <point x="445" y="340"/>
      <point x="427" y="358"/>
      <point x="427" y="383" type="curve" smooth="yes"/>
      <point x="427" y="417"/>
      <point x="459" y="456"/>
      <point x="511" y="456" type="curve"/>
      <point x="395" y="488" type="line"/>
      <point x="368" y="472"/>
      <point x="350" y="439"/>
      <point x="350" y="405" type="curve" smooth="yes"/>
      <point x="350" y="343"/>
      <point x="411" y="297"/>
      <point x="478" y="297" type="curve" smooth="yes"/>
    </contour>
    <contour>
      <point x="782" y="456" type="line"/>
      <point x="782" y="506" type="line"/>
      <point x="254" y="506" type="line"/>
      <point x="275" y="456" type="line"/>
    </contour>
  </outline>
</glyph>
<glyph name="bDMa" format="1">
  <advance width="516"/>
  <outline>
    <contour>
      <point x="455" y="-40" type="line"/>
      <point x="455" y="467" type="line"/>
      <point x="395" y="467" type="line"/>
      <point x="395" y="25" type="line"/>
      <point x="436" y="-5" type="line"/>
      <point x="410" y="86"/>
      <point x="330" y="153"/>
      <point x="260" y="153" type="curve" smooth="yes"/>
      <point x="211" y="153"/>
      <point x="169" y="121"/>
      <point x="169" y="74" type="curve" smooth="yes"/>
      <point x="169" y="33"/>
      <point x="202" y="3"/>
      <point x="242" y="3" type="curve" smooth="yes"/>
      <point x="283" y="3"/>
      <point x="312" y="34"/>
      <point x="312" y="72" type="curve" smooth="yes"/>
      <point x="312" y="90"/>
      <point x="306" y="111"/>
      <point x="285" y="128" type="curve"/>
      <point x="271" y="64" type="line"/>
      <point x="283" y="71"/>
      <point x="295" y="73"/>
      <point x="307" y="73" type="curve" smooth="yes"/>
      <point x="361" y="73"/>
      <point x="403" y="27"/>
      <point x="414" y="-40" type="curve"/>
    </contour>
    <contour>
      <point x="298" y="121"/>
      <point x="293" y="160"/>
      <point x="293" y="196" type="curve" smooth="yes"/>
      <point x="293" y="261"/>
      <point x="310" y="304"/>
      <point x="352" y="357" type="curve"/>
      <point x="278" y="423" type="line"/>
      <point x="195" y="387"/>
      <point x="122" y="318"/>
      <point x="76" y="239" type="curve"/>
      <point x="104" y="215" type="line"/>
      <point x="104" y="467" type="line"/>
      <point x="44" y="467" type="line"/>
      <point x="44" y="214" type="line"/>
      <point x="114" y="152" type="line"/>
      <point x="160" y="237"/>
      <point x="221" y="298"/>
      <point x="284" y="334" type="curve"/>
      <point x="274" y="373" type="line"/>
      <point x="251" y="338"/>
      <point x="237" y="286"/>
      <point x="237" y="235" type="curve" smooth="yes"/>
      <point x="237" y="195"/>
      <point x="246" y="144"/>
      <point x="258" y="97" type="curve"/>
      <point x="311" y="79" type="line"/>
    </contour>
    <contour>
      <point x="536" y="456" type="line"/>
      <point x="536" y="506" type="line"/>
      <point x="-20" y="506" type="line"/>
      <point x="-20" y="456" type="line"/>
    </contour>
  </outline>
</glyph>
<glyph name="bDNa" format="1">
  <advance width="417"/>
  <outline>
    <contour>
      <point x="163" y="-42"/>
      <point x="192" y="-15"/>
      <point x="192" y="21" type="curve" smooth="yes"/>
      <point x="192" y="45"/>
      <point x="179" y="70"/>
      <point x="152" y="82" type="curve"/>
      <point x="148" y="37" type="line"/>
      <point x="158" y="47"/>
      <point x="172" y="52"/>
      <point x="189" y="52" type="curve" smooth="yes"/>
      <point x="234" y="52"/>
      <point x="280" y="21"/>
      <point x="296" y="-45" type="curve"/>
      <point x="336" y="-38" type="line"/>
      <point x="324" y="31"/>
      <point x="319" y="99"/>
      <point x="319" y="141" type="curve" smooth="yes"/>
      <point x="319" y="225"/>
      <point x="340" y="284"/>
      <point x="394" y="350" type="curve"/>
      <point x="317" y="422" type="line"/>
      <point x="220" y="391"/>
      <point x="134" y="322"/>
      <point x="83" y="244" type="curve"/>
      <point x="111" y="215" type="line"/>
      <point x="111" y="467" type="line"/>
      <point x="51" y="467" type="line"/>
      <point x="51" y="219" type="line"/>
      <point x="118" y="150" type="line"/>
      <point x="176" y="238"/>
      <point x="247" y="298"/>
      <point x="319" y="330" type="curve"/>
      <point x="311" y="376" type="line"/>
      <point x="279" y="333"/>
      <point x="264" y="266"/>
      <point x="264" y="180" type="curve" smooth="yes"/>
      <point x="264" y="129"/>
      <point x="270" y="81"/>
      <point x="286" y="4" type="curve"/>
      <point x="312" y="1" type="line"/>
      <point x="281" y="70"/>
      <point x="222" y="120"/>
      <point x="153" y="120" type="curve" smooth="yes"/>
      <point x="92" y="120"/>
      <point x="52" y="81"/>
      <point x="52" y="34" type="curve" smooth="yes"/>
      <point x="52" y="-9"/>
      <point x="85" y="-42"/>
      <point x="126" y="-42" type="curve" smooth="yes"/>
    </contour>
    <contour>
      <point x="437" y="456" type="line"/>
      <point x="437" y="506" type="line"/>
      <point x="-20" y="506" type="line"/>
      <point x="-20" y="456" type="line"/>
    </contour>
  </outline>
</glyph>
<glyph name="bDRa" format="1">
  <advance width="482"/>
  <outline>
    <contour>
      <point x="407" y="-11" type="line"/>
      <point x="393" y="53"/>
      <point x="386" y="116"/>
      <point x="386" y="159" type="curve" smooth="yes"/>
      <point x="386" y="234"/>
      <point x="407" y="289"/>
      <point x="459" y="350" type="curve"/>
      <point x="382" y="422" type="line"/>
      <point x="284" y="391"/>
      <point x="199" y="322"/>
      <point x="148" y="244" type="curve"/>
      <point x="176" y="215" type="line"/>
      <point x="176" y="467" type="line"/>
      <point x="116" y="467" type="line"/>
      <point x="116" y="219" type="line"/>
      <point x="183" y="150" type="line"/>
      <point x="240" y="238"/>
      <point x="311" y="298"/>
      <point x="384" y="330" type="curve"/>
      <point x="376" y="376" type="line"/>
      <point x="347" y="339"/>
      <point x="332" y="274"/>
      <point x="332" y="203" type="curve" smooth="yes"/>
      <point x="332" y="149"/>
      <point x="341" y="85"/>
      <point x="357" y="20" type="curve"/>
      <point x="376" y="13" type="line"/>
      <point x="356" y="74"/>
      <point x="305" y="111"/>
      <point x="242" y="111" type="curve" smooth="yes"/>
      <point x="215" y="111"/>
      <point x="165" y="104"/>
      <point x="138" y="104" type="curve" smooth="yes"/>
      <point x="89" y="104"/>
      <point x="59" y="128"/>
      <point x="59" y="176" type="curve" smooth="yes"/>
      <point x="59" y="196"/>
      <point x="65" y="222"/>
      <point x="73" y="241" type="curve"/>
      <point x="40" y="255" type="line"/>
      <point x="26" y="229"/>
      <point x="19" y="196"/>
      <point x="19" y="169" type="curve" smooth="yes"/>
      <point x="19" y="89"/>
      <point x="80" y="29"/>
      <point x="164" y="29" type="curve" smooth="yes"/>
      <point x="200" y="29"/>
      <point x="260" y="41"/>
      <point x="292" y="41" type="curve" smooth="yes"/>
      <point x="339" y="41"/>
      <point x="357" y="16"/>
      <point x="366" y="-18" type="curve"/>
    </contour>
    <contour>
      <point x="502" y="456" type="line"/>
      <point x="502" y="506" type="line"/>
      <point x="-20" y="506" type="line"/>
      <point x="-20" y="456" type="line"/>
    </contour>
  </outline>
</glyph>
<glyph name="bDRa_bSignU" format="1">
  <advance width="652"/>
  <outline>
    <contour>
      <point x="407" y="-11" type="line"/>
      <point x="393" y="53"/>
      <point x="386" y="116"/>
      <point x="386" y="159" type="curve" smooth="yes"/>
      <point x="386" y="234"/>
      <point x="407" y="289"/>
      <point x="459" y="350" type="curve"/>
      <point x="382" y="422" type="line"/>
      <point x="284" y="391"/>
      <point x="199" y="322"/>
      <point x="148" y="244" type="curve"/>
      <point x="176" y="215" type="line"/>
      <point x="176" y="467" type="line"/>
      <point x="116" y="467" type="line"/>
      <point x="116" y="219" type="line"/>
      <point x="183" y="150" type="line"/>
      <point x="240" y="238"/>
      <point x="311" y="298"/>
      <point x="384" y="330" type="curve"/>
      <point x="376" y="376" type="line"/>
      <point x="347" y="339"/>
      <point x="332" y="274"/>
      <point x="332" y="203" type="curve" smooth="yes"/>
      <point x="332" y="149"/>
      <point x="341" y="85"/>
      <point x="357" y="20" type="curve"/>
      <point x="376" y="13" type="line"/>
      <point x="356" y="74"/>
      <point x="305" y="111"/>
      <point x="242" y="111" type="curve" smooth="yes"/>
      <point x="215" y="111"/>
      <point x="166" y="104"/>
      <point x="138" y="104" type="curve" smooth="yes"/>
      <point x="89" y="104"/>
      <point x="59" y="127"/>
      <point x="59" y="176" type="curve" smooth="yes"/>
      <point x="59" y="197"/>
      <point x="65" y="222"/>
      <point x="73" y="241" type="curve"/>
      <point x="40" y="255" type="line"/>
      <point x="26" y="229"/>
      <point x="19" y="196"/>
      <point x="19" y="169" type="curve" smooth="yes"/>
      <point x="19" y="89"/>
      <point x="80" y="29"/>
      <point x="164" y="29" type="curve" smooth="yes"/>
      <point x="200" y="29"/>
      <point x="260" y="41"/>
      <point x="292" y="41" type="curve" smooth="yes"/>
      <point x="339" y="41"/>
      <point x="357" y="16"/>
      <point x="366" y="-18" type="curve"/>
    </contour>
    <contour>
      <point x="583" y="120"/>
      <point x="626" y="165"/>
      <point x="626" y="228" type="curve" smooth="yes"/>
      <point x="626" y="292"/>
      <point x="581" y="348"/>
      <point x="527" y="348" type="curve" smooth="yes"/>
      <point x="491" y="348"/>
      <point x="466" y="324"/>
      <point x="466" y="292" type="curve" smooth="yes"/>
      <point x="466" y="262"/>
      <point x="490" y="239"/>
      <point x="519" y="239" type="curve" smooth="yes"/>
      <point x="547" y="239"/>
      <point x="567" y="260"/>
      <point x="567" y="285" type="curve" smooth="yes"/>
      <point x="567" y="297"/>
      <point x="562" y="308"/>
      <point x="554" y="313" type="curve"/>
      <point x="535" y="290" type="line"/>
      <point x="540" y="292"/>
      <point x="546" y="293"/>
      <point x="551" y="293" type="curve" smooth="yes"/>
      <point x="571" y="293"/>
      <point x="585" y="275"/>
      <point x="585" y="252" type="curve" smooth="yes"/>
      <point x="585" y="218"/>
      <point x="554" y="191"/>
      <point x="516" y="191" type="curve" smooth="yes"/>
      <point x="474" y="191"/>
      <point x="428" y="222"/>
      <point x="403" y="287" type="curve"/>
      <point x="383" y="261" type="line"/>
      <point x="416" y="172"/>
      <point x="467" y="120"/>
      <point x="527" y="120" type="curve" smooth="yes"/>
    </contour>
    <contour>
      <point x="672" y="456" type="line"/>
      <point x="672" y="506" type="line"/>
      <point x="-20" y="506" type="line"/>
      <point x="-20" y="456" type="line"/>
    </contour>
  </outline>
</glyph>
<glyph name="bDRa_bSignUu" format="1">
  <advance width="581"/>
  <outline>
    <contour>
      <point x="407" y="-11" type="line"/>
      <point x="393" y="53"/>
      <point x="386" y="116"/>
      <point x="386" y="159" type="curve" smooth="yes"/>
      <point x="386" y="236"/>
      <point x="406" y="298"/>
      <point x="457" y="355" type="curve"/>
      <point x="382" y="422" type="line"/>
      <point x="284" y="391"/>
      <point x="199" y="322"/>
      <point x="148" y="244" type="curve"/>
      <point x="176" y="215" type="line"/>
      <point x="176" y="467" type="line"/>
      <point x="116" y="467" type="line"/>
      <point x="116" y="219" type="line"/>
      <point x="183" y="150" type="line"/>
      <point x="240" y="238"/>
      <point x="311" y="298"/>
      <point x="384" y="330" type="curve"/>
      <point x="376" y="376" type="line"/>
      <point x="347" y="339"/>
      <point x="332" y="274"/>
      <point x="332" y="203" type="curve" smooth="yes"/>
      <point x="332" y="149"/>
      <point x="341" y="85"/>
      <point x="357" y="20" type="curve"/>
      <point x="376" y="13" type="line"/>
      <point x="356" y="74"/>
      <point x="305" y="111"/>
      <point x="242" y="111" type="curve" smooth="yes"/>
      <point x="215" y="111"/>
      <point x="165" y="104"/>
      <point x="138" y="104" type="curve" smooth="yes"/>
      <point x="89" y="104"/>
      <point x="59" y="128"/>
      <point x="59" y="176" type="curve" smooth="yes"/>
      <point x="59" y="196"/>
      <point x="65" y="222"/>
      <point x="73" y="241" type="curve"/>
      <point x="40" y="255" type="line"/>
      <point x="26" y="229"/>
      <point x="19" y="196"/>
      <point x="19" y="169" type="curve" smooth="yes"/>
      <point x="19" y="89"/>
      <point x="80" y="29"/>
      <point x="164" y="29" type="curve" smooth="yes"/>
      <point x="200" y="29"/>
      <point x="260" y="41"/>
      <point x="292" y="41" type="curve" smooth="yes"/>
      <point x="339" y="41"/>
      <point x="357" y="16"/>
      <point x="366" y="-18" type="curve"/>
    </contour>
    <contour>
      <point x="556" y="17" type="line"/>
      <point x="539" y="33"/>
      <point x="531" y="54"/>
      <point x="531" y="78" type="curve" smooth="yes"/>
      <point x="531" y="200" type="line" smooth="yes"/>
      <point x="531" y="243"/>
      <point x="485" y="295"/>
      <point x="451" y="295" type="curve" smooth="yes"/>
      <point x="431" y="295"/>
      <point x="398" y="275"/>
      <point x="361" y="225" type="curve"/>
      <point x="380" y="172" type="line"/>
      <point x="410" y="212"/>
      <point x="445" y="236"/>
      <point x="462" y="236" type="curve" smooth="yes"/>
      <point x="469" y="236"/>
      <point x="472" y="233"/>
      <point x="472" y="221" type="curve" smooth="yes"/>
      <point x="472" y="97" type="line" smooth="yes"/>
      <point x="472" y="42"/>
      <point x="498" y="14"/>
      <point x="534" y="-10" type="curve"/>
    </contour>
    <contour>
      <point x="601" y="456" type="line"/>
      <point x="601" y="506" type="line"/>
      <point x="-20" y="506" type="line"/>
      <point x="-20" y="456" type="line"/>
    </contour>
  </outline>
</glyph>
<glyph name="bDa" format="1">
  <advance width="410"/>
  <outline>
    <contour>
      <point x="321" y="-5" type="line"/>
      <point x="312" y="51"/>
      <point x="307" y="106"/>
      <point x="307" y="142" type="curve" smooth="yes"/>
      <point x="307" y="219"/>
      <point x="328" y="276"/>
      <point x="387" y="340" type="curve"/>
      <point x="310" y="412" type="line"/>
      <point x="213" y="381"/>
      <point x="127" y="312"/>
      <point x="76" y="234" type="curve"/>
      <point x="104" y="205" type="line"/>
      <point x="104" y="467" type="line"/>
      <point x="44" y="467" type="line"/>
      <point x="44" y="209" type="line"/>
      <point x="111" y="133" type="line"/>
      <point x="168" y="225"/>
      <point x="240" y="287"/>
      <point x="312" y="320" type="curve"/>
      <point x="304" y="366" type="line"/>
      <point x="271" y="328"/>
      <point x="253" y="262"/>
      <point x="253" y="186" type="curve" smooth="yes"/>
      <point x="253" y="130"/>
      <point x="263" y="60"/>
      <point x="279" y="-12" type="curve"/>
    </contour>
    <contour>
      <point x="430" y="456" type="line"/>
      <point x="430" y="506" type="line"/>
      <point x="-20" y="506" type="line"/>
      <point x="-20" y="456" type="line"/>
    </contour>
  </outline>
</glyph>
<glyph name="bDandaPoetic" format="1">
  <advance width="308"/>
  <outline>
    <contour>
      <point x="234" y="424" type="line"/>
      <point x="234" y="477"/>
      <point x="208" y="513"/>
      <point x="169" y="513" type="curve" smooth="yes"/>
      <point x="140" y="513"/>
      <point x="115" y="492"/>
      <point x="115" y="461" type="curve" smooth="yes"/>
      <point x="115" y="430"/>
      <point x="139" y="407"/>
      <point x="170" y="407" type="curve" smooth="yes"/>
      <point x="188" y="407"/>
      <point x="207" y="414"/>
      <point x="221" y="434" type="curve"/>
      <point x="174" y="454" type="line"/>
      <point x="174" y="63" type="line"/>
      <point x="174" y="10"/>
      <point x="200" y="-27"/>
      <point x="240" y="-27" type="curve" smooth="yes"/>
      <point x="269" y="-27"/>
      <point x="293" y="-5"/>
      <point x="293" y="26" type="curve" smooth="yes"/>
      <point x="293" y="57"/>
      <point x="270" y="80"/>
      <point x="239" y="80" type="curve" smooth="yes"/>
      <point x="221" y="80"/>
      <point x="202" y="73"/>
      <point x="188" y="53" type="curve"/>
      <point x="234" y="33" type="line"/>
    </contour>
  </outline>
</glyph>
<glyph name="bDdBa" format="1">
  <advance width="489"/>
  <outline>
    <contour>
      <point x="391" y="52"/>
      <point x="457" y="123"/>
      <point x="457" y="222" type="curve" smooth="yes"/>
      <point x="457" y="303"/>
      <point x="412" y="361"/>
      <point x="368" y="399" type="curve"/>
      <point x="326" y="328"/>
      <point x="278" y="284"/>
      <point x="254" y="284" type="curve" smooth="yes"/>
      <point x="243" y="284"/>
      <point x="239" y="292"/>
      <point x="239" y="304" type="curve" smooth="yes"/>
      <point x="239" y="466" type="line"/>
      <point x="179" y="466" type="line"/>
      <point x="179" y="337" type="line" smooth="yes"/>
      <point x="179" y="276"/>
      <point x="227" y="213"/>
      <point x="278" y="213" type="curve" smooth="yes"/>
      <point x="320" y="213"/>
      <point x="377" y="256"/>
      <point x="410" y="318" type="curve"/>
      <point x="361" y="332" type="line"/>
      <point x="390" y="314"/>
      <point x="407" y="283"/>
      <point x="407" y="247" type="curve" smooth="yes"/>
      <point x="407" y="183"/>
      <point x="351" y="135"/>
      <point x="274" y="135" type="curve" smooth="yes"/>
      <point x="185" y="135"/>
      <point x="101" y="200"/>
      <point x="43" y="417" type="curve"/>
      <point x="1" y="404" type="line"/>
      <point x="69" y="148"/>
      <point x="174" y="52"/>
      <point x="290" y="52" type="curve" smooth="yes"/>
    </contour>
    <contour>
      <point x="408" y="-121" type="line"/>
      <point x="408" y="110" type="line"/>
      <point x="373" y="147" type="line"/>
      <point x="289" y="112"/>
      <point x="235" y="87"/>
      <point x="150" y="35" type="curve"/>
      <point x="204" y="-42" type="line"/>
      <point x="284" y="-52"/>
      <point x="346" y="-72"/>
      <point x="365" y="-121" type="curve"/>
    </contour>
    <contour>
      <point x="377" y="-84" type="line"/>
      <point x="347" y="-31"/>
      <point x="290" y="7"/>
      <point x="207" y="26" type="curve"/>
      <point x="227" y="-7" type="line"/>
      <point x="286" y="33"/>
      <point x="341" y="59"/>
      <point x="390" y="78" type="curve"/>
      <point x="353" y="95" type="line"/>
      <point x="353" y="-70" type="line"/>
    </contour>
    <contour>
      <point x="509" y="456" type="line"/>
      <point x="509" y="506" type="line"/>
      <point x="-20" y="506" type="line"/>
      <point x="-20" y="456" type="line"/>
    </contour>
  </outline>
</glyph>
<glyph name="bDdDda" format="1">
  <advance width="795"/>
  <outline>
    <contour>
      <point x="357" y="72"/>
      <point x="416" y="139"/>
      <point x="416" y="233" type="curve" smooth="yes"/>
      <point x="416" y="312"/>
      <point x="374" y="369"/>
      <point x="328" y="409" type="curve"/>
      <point x="294" y="343"/>
      <point x="255" y="299"/>
      <point x="233" y="299" type="curve" smooth="yes"/>
      <point x="223" y="299"/>
      <point x="219" y="308"/>
      <point x="219" y="319" type="curve" smooth="yes"/>
      <point x="219" y="466" type="line"/>
      <point x="159" y="466" type="line"/>
      <point x="159" y="352" type="line" smooth="yes"/>
      <point x="159" y="292"/>
      <point x="208" y="230"/>
      <point x="256" y="230" type="curve" smooth="yes"/>
      <point x="297" y="230"/>
      <point x="344" y="276"/>
      <point x="370" y="331" type="curve"/>
      <point x="321" y="342" type="line"/>
      <point x="350" y="324"/>
      <point x="366" y="293"/>
      <point x="366" y="260" type="curve" smooth="yes"/>
      <point x="366" y="201"/>
      <point x="318" y="158"/>
      <point x="249" y="158" type="curve" smooth="yes"/>
      <point x="172" y="158"/>
      <point x="96" y="211"/>
      <point x="43" y="417" type="curve"/>
      <point x="1" y="404" type="line"/>
      <point x="63" y="165"/>
      <point x="156" y="72"/>
      <point x="265" y="72" type="curve" smooth="yes"/>
    </contour>
    <contour>
      <point x="702" y="26"/>
      <point x="765" y="101"/>
      <point x="765" y="201" type="curve" smooth="yes"/>
      <point x="765" y="286"/>
      <point x="720" y="347"/>
      <point x="672" y="389" type="curve"/>
      <point x="630" y="318"/>
      <point x="582" y="274"/>
      <point x="558" y="274" type="curve" smooth="yes"/>
      <point x="547" y="274"/>
      <point x="543" y="282"/>
      <point x="543" y="294" type="curve" smooth="yes"/>
      <point x="543" y="466" type="line"/>
      <point x="483" y="466" type="line"/>
      <point x="483" y="327" type="line" smooth="yes"/>
      <point x="483" y="266"/>
      <point x="531" y="202"/>
      <point x="582" y="202" type="curve" smooth="yes"/>
      <point x="624" y="202"/>
      <point x="681" y="245"/>
      <point x="714" y="308" type="curve"/>
      <point x="665" y="322" type="line"/>
      <point x="696" y="302"/>
      <point x="715" y="268"/>
      <point x="715" y="228" type="curve" smooth="yes"/>
      <point x="715" y="162"/>
      <point x="661" y="113"/>
      <point x="587" y="113" type="curve" smooth="yes"/>
      <point x="516" y="113"/>
      <point x="455" y="157"/>
      <point x="411" y="267" type="curve"/>
      <point x="380" y="227" type="line"/>
      <point x="438" y="84"/>
      <point x="515" y="26"/>
      <point x="602" y="26" type="curve" smooth="yes"/>
    </contour>
    <contour>
      <point x="399" y="456" type="line"/>
      <point x="399" y="506" type="line"/>
      <point x="-20" y="506" type="line"/>
      <point x="-20" y="456" type="line"/>
    </contour>
    <contour>
      <point x="815" y="456" type="line"/>
      <point x="815" y="506" type="line"/>
      <point x="275" y="506" type="line"/>
      <point x="275" y="456" type="line"/>
    </contour>
  </outline>
</glyph>
<glyph name="bDdGa" format="1">
  <advance width="856"/>
  <outline>
    <contour>
      <point x="795" y="0" type="line"/>
      <point x="795" y="456" type="line"/>
      <point x="875" y="456" type="line"/>
      <point x="875" y="506" type="line"/>
      <point x="735" y="506" type="line"/>
      <point x="735" y="314" type="line"/>
      <point x="769" y="316" type="line"/>
      <point x="739" y="431"/>
      <point x="665" y="515"/>
      <point x="566" y="515" type="curve" smooth="yes"/>
      <point x="470" y="515"/>
      <point x="398" y="437"/>
      <point x="398" y="348" type="curve" smooth="yes"/>
      <point x="398" y="295"/>
      <point x="431" y="258"/>
      <point x="464" y="258" type="curve" smooth="yes"/>
      <point x="507" y="258"/>
      <point x="543" y="310"/>
      <point x="585" y="310" type="curve" smooth="yes"/>
      <point x="601" y="310"/>
      <point x="611" y="302"/>
      <point x="611" y="285" type="curve" smooth="yes"/>
      <point x="611" y="252"/>
      <point x="572" y="197"/>
      <point x="496" y="141" type="curve"/>
      <point x="569" y="81" type="line"/>
      <point x="634" y="136"/>
      <point x="667" y="196"/>
      <point x="667" y="251" type="curve" smooth="yes"/>
      <point x="667" y="311"/>
      <point x="627" y="375"/>
      <point x="557" y="375" type="curve" smooth="yes"/>
      <point x="524" y="375"/>
      <point x="489" y="359"/>
      <point x="450" y="323" type="curve"/>
      <point x="485" y="292" type="line"/>
      <point x="477" y="304"/>
      <point x="474" y="318"/>
      <point x="474" y="329" type="curve" smooth="yes"/>
      <point x="474" y="390"/>
      <point x="525" y="442"/>
      <point x="591" y="442" type="curve" smooth="yes"/>
      <point x="674" y="442"/>
      <point x="735" y="363"/>
      <point x="735" y="264" type="curve" smooth="yes"/>
      <point x="735" y="0" type="line"/>
    </contour>
    <contour>
      <point x="384" y="43"/>
      <point x="449" y="116"/>
      <point x="449" y="215" type="curve" smooth="yes"/>
      <point x="449" y="297"/>
      <point x="404" y="355"/>
      <point x="358" y="394" type="curve"/>
      <point x="318" y="326"/>
      <point x="272" y="284"/>
      <point x="249" y="284" type="curve" smooth="yes"/>
      <point x="238" y="284"/>
      <point x="234" y="292"/>
      <point x="234" y="304" type="curve" smooth="yes"/>
      <point x="234" y="466" type="line"/>
      <point x="174" y="466" type="line"/>
      <point x="174" y="337" type="line" smooth="yes"/>
      <point x="174" y="276"/>
      <point x="222" y="212"/>
      <point x="273" y="212" type="curve" smooth="yes"/>
      <point x="314" y="212"/>
      <point x="368" y="255"/>
      <point x="400" y="316" type="curve"/>
      <point x="351" y="327" type="line"/>
      <point x="381" y="309"/>
      <point x="399" y="279"/>
      <point x="399" y="242" type="curve" smooth="yes"/>
      <point x="399" y="178"/>
      <point x="345" y="130"/>
      <point x="268" y="130" type="curve" smooth="yes"/>
      <point x="181" y="130"/>
      <point x="101" y="192"/>
      <point x="43" y="417" type="curve"/>
      <point x="1" y="404" type="line"/>
      <point x="65" y="150"/>
      <point x="164" y="43"/>
      <point x="284" y="43" type="curve" smooth="yes"/>
    </contour>
    <contour>
      <point x="414" y="456" type="line"/>
      <point x="414" y="506" type="line"/>
      <point x="-20" y="506" type="line"/>
      <point x="-20" y="456" type="line"/>
    </contour>
  </outline>
</glyph>
<glyph name="bDdMa" format="1">
  <advance width="568"/>
  <outline>
    <contour>
      <point x="485" y="-110" type="line"/>
      <point x="485" y="467" type="line"/>
      <point x="425" y="467" type="line"/>
      <point x="425" y="-45" type="line"/>
      <point x="468" y="-88" type="line"/>
      <point x="446" y="1"/>
      <point x="373" y="71"/>
      <point x="303" y="71" type="curve" smooth="yes"/>
      <point x="256" y="71"/>
      <point x="214" y="40"/>
      <point x="214" y="-6" type="curve" smooth="yes"/>
      <point x="214" y="-47"/>
      <point x="247" y="-78"/>
      <point x="287" y="-78" type="curve" smooth="yes"/>
      <point x="329" y="-78"/>
      <point x="358" y="-46"/>
      <point x="358" y="-7" type="curve" smooth="yes"/>
      <point x="358" y="11"/>
      <point x="352" y="33"/>
      <point x="331" y="49" type="curve"/>
      <point x="316" y="-18" type="line"/>
      <point x="327" y="-10"/>
      <point x="338" y="-7"/>
      <point x="351" y="-7" type="curve" smooth="yes"/>
      <point x="397" y="-7"/>
      <point x="434" y="-49"/>
      <point x="443" y="-110" type="curve"/>
    </contour>
    <contour>
      <point x="337" y="81"/>
      <point x="305" y="118"/>
      <point x="274" y="131" type="curve"/>
      <point x="232" y="116" type="line"/>
      <point x="258" y="105"/>
      <point x="280" y="86"/>
      <point x="288" y="52" type="curve"/>
      <point x="347" y="46" type="line"/>
    </contour>
    <contour>
      <point x="324" y="103"/>
      <point x="375" y="164"/>
      <point x="375" y="240" type="curve" smooth="yes"/>
      <point x="375" y="301"/>
      <point x="342" y="349"/>
      <point x="305" y="382" type="curve"/>
      <point x="276" y="334"/>
      <point x="242" y="302"/>
      <point x="223" y="302" type="curve" smooth="yes"/>
      <point x="213" y="302"/>
      <point x="209" y="310"/>
      <point x="209" y="322" type="curve" smooth="yes"/>
      <point x="209" y="466" type="line"/>
      <point x="149" y="466" type="line"/>
      <point x="149" y="350" type="line" smooth="yes"/>
      <point x="149" y="296"/>
      <point x="194" y="237"/>
      <point x="242" y="237" type="curve" smooth="yes"/>
      <point x="280" y="237"/>
      <point x="317" y="275"/>
      <point x="345" y="316" type="curve"/>
      <point x="306" y="317" type="line"/>
      <point x="319" y="305"/>
      <point x="327" y="285"/>
      <point x="327" y="264" type="curve" smooth="yes"/>
      <point x="327" y="215"/>
      <point x="283" y="181"/>
      <point x="228" y="181" type="curve" smooth="yes"/>
      <point x="162" y="181"/>
      <point x="90" y="231"/>
      <point x="43" y="417" type="curve"/>
      <point x="1" y="404" type="line"/>
      <point x="55" y="189"/>
      <point x="147" y="103"/>
      <point x="243" y="103" type="curve" smooth="yes"/>
    </contour>
    <contour>
      <point x="399" y="456" type="line"/>
      <point x="399" y="506" type="line"/>
      <point x="-20" y="506" type="line"/>
      <point x="-20" y="456" type="line"/>
    </contour>
    <contour>
      <point x="565" y="456" type="line"/>
      <point x="565" y="506" type="line"/>
      <point x="221" y="506" type="line"/>
      <point x="221" y="456" type="line"/>
    </contour>
  </outline>
</glyph>
<glyph name="bDdRa" format="1">
  <advance width="512"/>
  <outline>
    <contour>
      <point x="414" y="52"/>
      <point x="480" y="123"/>
      <point x="480" y="222" type="curve" smooth="yes"/>
      <point x="480" y="303"/>
      <point x="435" y="361"/>
      <point x="391" y="399" type="curve"/>
      <point x="349" y="328"/>
      <point x="301" y="284"/>
      <point x="277" y="284" type="curve" smooth="yes"/>
      <point x="266" y="284"/>
      <point x="262" y="292"/>
      <point x="262" y="304" type="curve" smooth="yes"/>
      <point x="262" y="466" type="line"/>
      <point x="202" y="466" type="line"/>
      <point x="202" y="337" type="line" smooth="yes"/>
      <point x="202" y="276"/>
      <point x="250" y="213"/>
      <point x="301" y="213" type="curve" smooth="yes"/>
      <point x="343" y="213"/>
      <point x="400" y="256"/>
      <point x="433" y="318" type="curve"/>
      <point x="384" y="332" type="line"/>
      <point x="413" y="314"/>
      <point x="430" y="283"/>
      <point x="430" y="247" type="curve" smooth="yes"/>
      <point x="430" y="183"/>
      <point x="374" y="135"/>
      <point x="297" y="135" type="curve" smooth="yes"/>
      <point x="208" y="135"/>
      <point x="124" y="200"/>
      <point x="66" y="417" type="curve"/>
      <point x="24" y="404" type="line"/>
      <point x="92" y="148"/>
      <point x="197" y="52"/>
      <point x="313" y="52" type="curve" smooth="yes"/>
    </contour>
    <contour>
      <point x="431" y="-115" type="line"/>
      <point x="431" y="103" type="line"/>
      <point x="378" y="103" type="line"/>
      <point x="378" y="-61" type="line"/>
      <point x="401" y="-83" type="line"/>
      <point x="385" y="-29"/>
      <point x="343" y="15"/>
      <point x="272" y="15" type="curve" smooth="yes"/>
      <point x="251" y="15"/>
      <point x="184" y="11"/>
      <point x="163" y="11" type="curve" smooth="yes"/>
      <point x="112" y="11"/>
      <point x="82" y="34"/>
      <point x="82" y="80" type="curve" smooth="yes"/>
      <point x="82" y="99"/>
      <point x="88" y="121"/>
      <point x="95" y="140" type="curve"/>
      <point x="61" y="153" type="line"/>
      <point x="50" y="131"/>
      <point x="42" y="101"/>
      <point x="42" y="74" type="curve" smooth="yes"/>
      <point x="42" y="-5"/>
      <point x="104" y="-66"/>
      <point x="187" y="-66" type="curve" smooth="yes"/>
      <point x="220" y="-66"/>
      <point x="294" y="-56"/>
      <point x="323" y="-56" type="curve" smooth="yes"/>
      <point x="366" y="-56"/>
      <point x="384" y="-80"/>
      <point x="388" y="-115" type="curve"/>
    </contour>
    <contour>
      <point x="532" y="456" type="line"/>
      <point x="532" y="506" type="line"/>
      <point x="-20" y="506" type="line"/>
      <point x="-20" y="456" type="line"/>
    </contour>
  </outline>
</glyph>
<glyph name="bDda" format="1">
  <advance width="495"/>
  <outline>
    <contour>
      <point x="399" y="18"/>
      <point x="465" y="96"/>
      <point x="465" y="201" type="curve" smooth="yes"/>
      <point x="465" y="287"/>
      <point x="420" y="348"/>
      <point x="372" y="389" type="curve"/>
      <point x="330" y="318"/>
      <point x="282" y="274"/>
      <point x="258" y="274" type="curve" smooth="yes"/>
      <point x="247" y="274"/>
      <point x="243" y="282"/>
      <point x="243" y="294" type="curve" smooth="yes"/>
      <point x="243" y="466" type="line"/>
      <point x="183" y="466" type="line"/>
      <point x="183" y="327" type="line" smooth="yes"/>
      <point x="183" y="266"/>
      <point x="231" y="202"/>
      <point x="282" y="202" type="curve" smooth="yes"/>
      <point x="324" y="202"/>
      <point x="381" y="245"/>
      <point x="414" y="308" type="curve"/>
      <point x="365" y="322" type="line"/>
      <point x="396" y="303"/>
      <point x="415" y="269"/>
      <point x="415" y="229" type="curve" smooth="yes"/>
      <point x="415" y="158"/>
      <point x="358" y="105"/>
      <point x="277" y="105" type="curve" smooth="yes"/>
      <point x="179" y="105"/>
      <point x="99" y="184"/>
      <point x="42" y="417" type="curve"/>
      <point x="0" y="404" type="line"/>
      <point x="69" y="122"/>
      <point x="172" y="18"/>
      <point x="294" y="18" type="curve" smooth="yes"/>
    </contour>
    <contour>
      <point x="515" y="456" type="line"/>
      <point x="515" y="506" type="line"/>
      <point x="-20" y="506" type="line"/>
      <point x="-20" y="456" type="line"/>
    </contour>
  </outline>
</glyph>
<glyph name="bDdhRa" format="1">
  <advance width="450"/>
  <outline>
    <contour>
      <point x="298" y="47"/>
      <point x="415" y="179"/>
      <point x="415" y="282" type="curve" smooth="yes"/>
      <point x="415" y="338"/>
      <point x="379" y="387"/>
      <point x="327" y="387" type="curve" smooth="yes"/>
      <point x="285" y="387"/>
      <point x="253" y="355"/>
      <point x="253" y="317" type="curve" smooth="yes"/>
      <point x="253" y="278"/>
      <point x="285" y="247"/>
      <point x="327" y="247" type="curve" smooth="yes"/>
      <point x="344" y="247"/>
      <point x="358" y="252"/>
      <point x="370" y="263" type="curve"/>
      <point x="338" y="297" type="line"/>
      <point x="338" y="225"/>
      <point x="249" y="118"/>
      <point x="194" y="118" type="curve" smooth="yes"/>
      <point x="175" y="118"/>
      <point x="167" y="132"/>
      <point x="167" y="168" type="curve" smooth="yes"/>
      <point x="167" y="467" type="line"/>
      <point x="107" y="467" type="line"/>
      <point x="107" y="195" type="line" smooth="yes"/>
      <point x="107" y="108"/>
      <point x="165" y="47"/>
      <point x="219" y="47" type="curve" smooth="yes"/>
    </contour>
    <contour>
      <point x="355" y="-116" type="line"/>
      <point x="355" y="167" type="line"/>
      <point x="302" y="167" type="line"/>
      <point x="302" y="-62" type="line"/>
      <point x="325" y="-84" type="line"/>
      <point x="308" y="-24"/>
      <point x="266" y="14"/>
      <point x="207" y="14" type="curve" smooth="yes"/>
      <point x="190" y="14"/>
      <point x="138" y="10"/>
      <point x="123" y="10" type="curve" smooth="yes"/>
      <point x="87" y="10"/>
      <point x="65" y="31"/>
      <point x="65" y="68" type="curve" smooth="yes"/>
      <point x="65" y="88"/>
      <point x="71" y="112"/>
      <point x="79" y="130" type="curve"/>
      <point x="45" y="143" type="line"/>
      <point x="34" y="121"/>
      <point x="26" y="92"/>
      <point x="26" y="64" type="curve" smooth="yes"/>
      <point x="26" y="-10"/>
      <point x="79" y="-64"/>
      <point x="148" y="-64" type="curve" smooth="yes"/>
      <point x="172" y="-64"/>
      <point x="226" y="-57"/>
      <point x="247" y="-57" type="curve" smooth="yes"/>
      <point x="286" y="-57"/>
      <point x="309" y="-80"/>
      <point x="312" y="-116" type="curve"/>
    </contour>
    <contour>
      <point x="470" y="456" type="line"/>
      <point x="470" y="506" type="line"/>
      <point x="-20" y="506" type="line"/>
      <point x="-20" y="456" type="line"/>
    </contour>
  </outline>
</glyph>
<glyph name="bDhBa" format="1">
  <advance width="722"/>
  <outline>
    <contour>
      <point x="350" y="0" type="line"/>
      <point x="350" y="456" type="line"/>
      <point x="430" y="456" type="line"/>
      <point x="430" y="506" type="line"/>
      <point x="290" y="506" type="line"/>
      <point x="290" y="62" type="line"/>
      <point x="320" y="58" type="line"/>
      <point x="269" y="170"/>
      <point x="171" y="229"/>
      <point x="64" y="258" type="curve"/>
      <point x="75" y="210" type="line"/>
      <point x="153" y="269"/>
      <point x="233" y="314"/>
      <point x="318" y="354" type="curve"/>
      <point x="303" y="439" type="line"/>
      <point x="201" y="388"/>
      <point x="107" y="336"/>
      <point x="16" y="270" type="curve"/>
      <point x="85" y="167" type="line"/>
      <point x="216" y="149"/>
      <point x="295" y="76"/>
      <point x="308" y="0" type="curve"/>
    </contour>
    <contour>
      <point x="186" y="335"/>
      <point x="198" y="338"/>
      <point x="212" y="343" type="curve"/>
      <point x="214" y="392" type="line"/>
      <point x="190" y="381"/>
      <point x="178" y="378"/>
      <point x="164" y="378" type="curve" smooth="yes"/>
      <point x="125" y="378"/>
      <point x="107" y="401"/>
      <point x="107" y="422" type="curve" smooth="yes"/>
      <point x="107" y="443"/>
      <point x="126" y="462"/>
      <point x="157" y="462" type="curve" smooth="yes"/>
      <point x="167" y="462"/>
      <point x="182" y="460"/>
      <point x="196" y="455" type="curve"/>
      <point x="146" y="496" type="line"/>
      <point x="127" y="488"/>
      <point x="120" y="470"/>
      <point x="120" y="456" type="curve" smooth="yes"/>
      <point x="120" y="432"/>
      <point x="142" y="415"/>
      <point x="167" y="415" type="curve" smooth="yes"/>
      <point x="193" y="415"/>
      <point x="216" y="434"/>
      <point x="216" y="463" type="curve" smooth="yes"/>
      <point x="216" y="496"/>
      <point x="186" y="525"/>
      <point x="139" y="525" type="curve" smooth="yes"/>
      <point x="88" y="525"/>
      <point x="45" y="490"/>
      <point x="45" y="438" type="curve" smooth="yes"/>
      <point x="45" y="379"/>
      <point x="104" y="335"/>
      <point x="171" y="335" type="curve" smooth="yes"/>
    </contour>
    <contour>
      <point x="662" y="0" type="line"/>
      <point x="662" y="466" type="line"/>
      <point x="602" y="466" type="line"/>
      <point x="602" y="72" type="line"/>
      <point x="633" y="59" type="line"/>
      <point x="590" y="165"/>
      <point x="490" y="249"/>
      <point x="389" y="278" type="curve"/>
      <point x="397" y="233" type="line"/>
      <point x="466" y="290"/>
      <point x="556" y="337"/>
      <point x="646" y="361" type="curve"/>
      <point x="625" y="440" type="line"/>
      <point x="535" y="420"/>
      <point x="411" y="360"/>
      <point x="320" y="288" type="curve"/>
      <point x="392" y="189" type="line"/>
      <point x="498" y="175"/>
      <point x="593" y="112"/>
      <point x="619" y="0" type="curve"/>
    </contour>
    <contour>
      <point x="742" y="456" type="line"/>
      <point x="742" y="506" type="line"/>
      <point x="390" y="506" type="line"/>
      <point x="390" y="456" type="line"/>
    </contour>
  </outline>
</glyph>
<glyph name="bDhMa" format="1">
  <advance width="501"/>
  <outline>
    <contour>
      <point x="291" y="130" type="line"/>
      <point x="291" y="456" type="line"/>
      <point x="521" y="456" type="line"/>
      <point x="521" y="506" type="line"/>
      <point x="231" y="506" type="line"/>
      <point x="231" y="157" type="line"/>
      <point x="264" y="178" type="line"/>
      <point x="217" y="265"/>
      <point x="139" y="306"/>
      <point x="51" y="321" type="curve"/>
      <point x="66" y="280" type="line"/>
      <point x="125" y="319"/>
      <point x="186" y="349"/>
      <point x="249" y="372" type="curve"/>
      <point x="243" y="442" type="line"/>
      <point x="161" y="411"/>
      <point x="84" y="375"/>
      <point x="12" y="329" type="curve"/>
      <point x="62" y="252" type="line"/>
      <point x="161" y="246"/>
      <point x="239" y="197"/>
      <point x="250" y="130" type="curve"/>
    </contour>
    <contour>
      <point x="441" y="0" type="line"/>
      <point x="441" y="467" type="line"/>
      <point x="381" y="467" type="line"/>
      <point x="381" y="65" type="line"/>
      <point x="422" y="32" type="line"/>
      <point x="396" y="131"/>
      <point x="316" y="202"/>
      <point x="241" y="202" type="curve" smooth="yes"/>
      <point x="190" y="202"/>
      <point x="151" y="170"/>
      <point x="151" y="124" type="curve" smooth="yes"/>
      <point x="151" y="82"/>
      <point x="184" y="51"/>
      <point x="226" y="51" type="curve" smooth="yes"/>
      <point x="266" y="51"/>
      <point x="296" y="80"/>
      <point x="296" y="118" type="curve" smooth="yes"/>
      <point x="296" y="134"/>
      <point x="291" y="152"/>
      <point x="274" y="166" type="curve"/>
      <point x="252" y="109" type="line"/>
      <point x="263" y="117"/>
      <point x="274" y="120"/>
      <point x="288" y="120" type="curve" smooth="yes"/>
      <point x="340" y="120"/>
      <point x="388" y="75"/>
      <point x="399" y="0" type="curve"/>
    </contour>
    <contour>
      <point x="158" y="364"/>
      <point x="167" y="365"/>
      <point x="177" y="367" type="curve"/>
      <point x="175" y="414" type="line"/>
      <point x="161" y="408"/>
      <point x="145" y="402"/>
      <point x="130" y="402" type="curve" smooth="yes"/>
      <point x="107" y="402"/>
      <point x="91" y="416"/>
      <point x="91" y="435" type="curve" smooth="yes"/>
      <point x="91" y="455"/>
      <point x="108" y="469"/>
      <point x="133" y="469" type="curve" smooth="yes"/>
      <point x="141" y="469"/>
      <point x="153" y="467"/>
      <point x="165" y="463" type="curve"/>
      <point x="130" y="505" type="line"/>
      <point x="110" y="498"/>
      <point x="103" y="481"/>
      <point x="103" y="467" type="curve" smooth="yes"/>
      <point x="103" y="445"/>
      <point x="123" y="428"/>
      <point x="145" y="428" type="curve" smooth="yes"/>
      <point x="167" y="428"/>
      <point x="186" y="445"/>
      <point x="186" y="470" type="curve" smooth="yes"/>
      <point x="186" y="498"/>
      <point x="162" y="524"/>
      <point x="121" y="524" type="curve" smooth="yes"/>
      <point x="76" y="524"/>
      <point x="41" y="493"/>
      <point x="41" y="450" type="curve" smooth="yes"/>
      <point x="41" y="399"/>
      <point x="94" y="364"/>
      <point x="148" y="364" type="curve" smooth="yes"/>
    </contour>
  </outline>
</glyph>
<glyph name="bDhNa" format="1">
  <advance width="413"/>
  <outline>
    <contour>
      <point x="352" y="42" type="line"/>
      <point x="352" y="456" type="line"/>
      <point x="432" y="456" type="line"/>
      <point x="432" y="506" type="line"/>
      <point x="292" y="506" type="line"/>
      <point x="292" y="109" type="line"/>
      <point x="322" y="100" type="line"/>
      <point x="272" y="205"/>
      <point x="173" y="255"/>
      <point x="69" y="278" type="curve"/>
      <point x="80" y="225" type="line"/>
      <point x="157" y="277"/>
      <point x="236" y="318"/>
      <point x="320" y="354" type="curve"/>
      <point x="305" y="439" type="line"/>
      <point x="205" y="392"/>
      <point x="112" y="344"/>
      <point x="22" y="285" type="curve"/>
      <point x="90" y="187" type="line"/>
      <point x="218" y="174"/>
      <point x="298" y="127"/>
      <point x="304" y="42" type="curve"/>
    </contour>
    <contour>
      <point x="352" y="-30" type="line"/>
      <point x="352" y="56" type="line"/>
      <point x="307" y="56" type="line"/>
      <point x="307" y="14" type="line"/>
      <point x="320" y="21" type="line"/>
      <point x="290" y="92"/>
      <point x="227" y="133"/>
      <point x="167" y="133" type="curve" smooth="yes"/>
      <point x="113" y="133"/>
      <point x="74" y="98"/>
      <point x="74" y="52" type="curve" smooth="yes"/>
      <point x="74" y="10"/>
      <point x="106" y="-21"/>
      <point x="143" y="-21" type="curve" smooth="yes"/>
      <point x="179" y="-21"/>
      <point x="206" y="6"/>
      <point x="206" y="40" type="curve" smooth="yes"/>
      <point x="206" y="59"/>
      <point x="197" y="78"/>
      <point x="176" y="91" type="curve"/>
      <point x="175" y="58" type="line"/>
      <point x="183" y="63"/>
      <point x="191" y="66"/>
      <point x="204" y="66" type="curve" smooth="yes"/>
      <point x="250" y="66"/>
      <point x="300" y="32"/>
      <point x="310" y="-30" type="curve"/>
    </contour>
    <contour>
      <point x="185" y="337"/>
      <point x="200" y="341"/>
      <point x="214" y="345" type="curve"/>
      <point x="214" y="394" type="line"/>
      <point x="192" y="384"/>
      <point x="176" y="379"/>
      <point x="164" y="379" type="curve" smooth="yes"/>
      <point x="127" y="379"/>
      <point x="109" y="401"/>
      <point x="109" y="422" type="curve" smooth="yes"/>
      <point x="109" y="443"/>
      <point x="128" y="462"/>
      <point x="159" y="462" type="curve" smooth="yes"/>
      <point x="169" y="462"/>
      <point x="184" y="460"/>
      <point x="198" y="455" type="curve"/>
      <point x="148" y="496" type="line"/>
      <point x="129" y="488"/>
      <point x="122" y="470"/>
      <point x="122" y="456" type="curve" smooth="yes"/>
      <point x="122" y="432"/>
      <point x="144" y="415"/>
      <point x="169" y="415" type="curve" smooth="yes"/>
      <point x="195" y="415"/>
      <point x="218" y="434"/>
      <point x="218" y="463" type="curve" smooth="yes"/>
      <point x="218" y="496"/>
      <point x="188" y="525"/>
      <point x="141" y="525" type="curve" smooth="yes"/>
      <point x="90" y="525"/>
      <point x="47" y="490"/>
      <point x="47" y="438" type="curve" smooth="yes"/>
      <point x="47" y="380"/>
      <point x="106" y="337"/>
      <point x="173" y="337" type="curve" smooth="yes"/>
    </contour>
  </outline>
</glyph>
<glyph name="bDhRa" format="1">
  <advance width="461"/>
  <outline>
    <contour>
      <point x="401" y="47" type="line"/>
      <point x="401" y="456" type="line"/>
      <point x="481" y="456" type="line"/>
      <point x="481" y="506" type="line"/>
      <point x="341" y="506" type="line"/>
      <point x="341" y="109" type="line"/>
      <point x="371" y="105" type="line"/>
      <point x="321" y="207"/>
      <point x="222" y="255"/>
      <point x="118" y="278" type="curve"/>
      <point x="129" y="225" type="line"/>
      <point x="206" y="277"/>
      <point x="285" y="318"/>
      <point x="369" y="354" type="curve"/>
      <point x="354" y="439" type="line"/>
      <point x="254" y="392"/>
      <point x="161" y="344"/>
      <point x="71" y="285" type="curve"/>
      <point x="139" y="187" type="line"/>
      <point x="267" y="174"/>
      <point x="347" y="129"/>
      <point x="353" y="47" type="curve"/>
    </contour>
    <contour>
      <point x="401" y="-23" type="line"/>
      <point x="401" y="138" type="line"/>
      <point x="353" y="138" type="line"/>
      <point x="353" y="35" type="line"/>
      <point x="372" y="13" type="line"/>
      <point x="353" y="76"/>
      <point x="304" y="116"/>
      <point x="239" y="116" type="curve" smooth="yes"/>
      <point x="213" y="116"/>
      <point x="163" y="109"/>
      <point x="135" y="109" type="curve" smooth="yes"/>
      <point x="88" y="109"/>
      <point x="65" y="127"/>
      <point x="65" y="163" type="curve" smooth="yes"/>
      <point x="65" y="178"/>
      <point x="69" y="198"/>
      <point x="75" y="213" type="curve"/>
      <point x="42" y="227" type="line"/>
      <point x="31" y="204"/>
      <point x="25" y="178"/>
      <point x="25" y="157" type="curve" smooth="yes"/>
      <point x="25" y="88"/>
      <point x="82" y="34"/>
      <point x="160" y="34" type="curve" smooth="yes"/>
      <point x="195" y="34"/>
      <point x="257" y="46"/>
      <point x="288" y="46" type="curve" smooth="yes"/>
      <point x="334" y="46"/>
      <point x="356" y="19"/>
      <point x="359" y="-23" type="curve"/>
    </contour>
    <contour>
      <point x="234" y="337"/>
      <point x="249" y="341"/>
      <point x="263" y="345" type="curve"/>
      <point x="263" y="394" type="line"/>
      <point x="241" y="384"/>
      <point x="225" y="379"/>
      <point x="213" y="379" type="curve" smooth="yes"/>
      <point x="176" y="379"/>
      <point x="158" y="401"/>
      <point x="158" y="422" type="curve" smooth="yes"/>
      <point x="158" y="443"/>
      <point x="177" y="462"/>
      <point x="208" y="462" type="curve" smooth="yes"/>
      <point x="218" y="462"/>
      <point x="233" y="460"/>
      <point x="247" y="455" type="curve"/>
      <point x="197" y="496" type="line"/>
      <point x="178" y="488"/>
      <point x="171" y="470"/>
      <point x="171" y="456" type="curve" smooth="yes"/>
      <point x="171" y="432"/>
      <point x="193" y="415"/>
      <point x="218" y="415" type="curve" smooth="yes"/>
      <point x="244" y="415"/>
      <point x="267" y="434"/>
      <point x="267" y="463" type="curve" smooth="yes"/>
      <point x="267" y="496"/>
      <point x="237" y="525"/>
      <point x="190" y="525" type="curve" smooth="yes"/>
      <point x="139" y="525"/>
      <point x="96" y="490"/>
      <point x="96" y="438" type="curve" smooth="yes"/>
      <point x="96" y="380"/>
      <point x="155" y="337"/>
      <point x="222" y="337" type="curve" smooth="yes"/>
    </contour>
  </outline>
</glyph>
<glyph name="bDhRa_bSignU" format="1">
  <advance width="626"/>
  <outline>
    <contour>
      <point x="401" y="47" type="line"/>
      <point x="401" y="456" type="line"/>
      <point x="646" y="456" type="line"/>
      <point x="646" y="506" type="line"/>
      <point x="341" y="506" type="line"/>
      <point x="341" y="109" type="line"/>
      <point x="371" y="105" type="line"/>
      <point x="321" y="207"/>
      <point x="222" y="255"/>
      <point x="118" y="278" type="curve"/>
      <point x="129" y="225" type="line"/>
      <point x="206" y="277"/>
      <point x="285" y="318"/>
      <point x="369" y="354" type="curve"/>
      <point x="354" y="439" type="line"/>
      <point x="254" y="392"/>
      <point x="161" y="344"/>
      <point x="71" y="285" type="curve"/>
      <point x="139" y="187" type="line"/>
      <point x="267" y="174"/>
      <point x="347" y="129"/>
      <point x="353" y="47" type="curve"/>
    </contour>
    <contour>
      <point x="401" y="-23" type="line"/>
      <point x="401" y="138" type="line"/>
      <point x="353" y="138" type="line"/>
      <point x="353" y="35" type="line"/>
      <point x="372" y="13" type="line"/>
      <point x="353" y="76"/>
      <point x="304" y="116"/>
      <point x="239" y="116" type="curve" smooth="yes"/>
      <point x="213" y="116"/>
      <point x="163" y="109"/>
      <point x="135" y="109" type="curve" smooth="yes"/>
      <point x="88" y="109"/>
      <point x="65" y="128"/>
      <point x="65" y="163" type="curve" smooth="yes"/>
      <point x="65" y="179"/>
      <point x="70" y="199"/>
      <point x="75" y="213" type="curve"/>
      <point x="42" y="227" type="line"/>
      <point x="31" y="205"/>
      <point x="25" y="179"/>
      <point x="25" y="157" type="curve" smooth="yes"/>
      <point x="25" y="88"/>
      <point x="82" y="34"/>
      <point x="160" y="34" type="curve" smooth="yes"/>
      <point x="195" y="34"/>
      <point x="257" y="46"/>
      <point x="288" y="46" type="curve" smooth="yes"/>
      <point x="334" y="46"/>
      <point x="356" y="19"/>
      <point x="359" y="-23" type="curve"/>
    </contour>
    <contour>
      <point x="234" y="337"/>
      <point x="249" y="341"/>
      <point x="263" y="345" type="curve"/>
      <point x="263" y="394" type="line"/>
      <point x="241" y="384"/>
      <point x="225" y="379"/>
      <point x="213" y="379" type="curve" smooth="yes"/>
      <point x="176" y="379"/>
      <point x="158" y="401"/>
      <point x="158" y="422" type="curve" smooth="yes"/>
      <point x="158" y="443"/>
      <point x="177" y="462"/>
      <point x="208" y="462" type="curve" smooth="yes"/>
      <point x="218" y="462"/>
      <point x="233" y="460"/>
      <point x="247" y="455" type="curve"/>
      <point x="197" y="496" type="line"/>
      <point x="178" y="488"/>
      <point x="171" y="470"/>
      <point x="171" y="456" type="curve" smooth="yes"/>
      <point x="171" y="432"/>
      <point x="193" y="415"/>
      <point x="218" y="415" type="curve" smooth="yes"/>
      <point x="244" y="415"/>
      <point x="267" y="434"/>
      <point x="267" y="463" type="curve" smooth="yes"/>
      <point x="267" y="496"/>
      <point x="237" y="525"/>
      <point x="190" y="525" type="curve" smooth="yes"/>
      <point x="139" y="525"/>
      <point x="96" y="490"/>
      <point x="96" y="438" type="curve" smooth="yes"/>
      <point x="96" y="380"/>
      <point x="155" y="337"/>
      <point x="222" y="337" type="curve" smooth="yes"/>
    </contour>
    <contour>
      <point x="559" y="168"/>
      <point x="600" y="213"/>
      <point x="600" y="275" type="curve" smooth="yes"/>
      <point x="600" y="340"/>
      <point x="555" y="396"/>
      <point x="501" y="396" type="curve" smooth="yes"/>
      <point x="465" y="396"/>
      <point x="440" y="372"/>
      <point x="440" y="340" type="curve" smooth="yes"/>
      <point x="440" y="310"/>
      <point x="464" y="287"/>
      <point x="493" y="287" type="curve" smooth="yes"/>
      <point x="521" y="287"/>
      <point x="541" y="308"/>
      <point x="541" y="333" type="curve" smooth="yes"/>
      <point x="541" y="345"/>
      <point x="536" y="356"/>
      <point x="528" y="361" type="curve"/>
      <point x="509" y="338" type="line"/>
      <point x="514" y="340"/>
      <point x="520" y="341"/>
      <point x="525" y="341" type="curve" smooth="yes"/>
      <point x="545" y="341"/>
      <point x="559" y="323"/>
      <point x="559" y="300" type="curve" smooth="yes"/>
      <point x="559" y="266"/>
      <point x="530" y="240"/>
      <point x="493" y="240" type="curve" smooth="yes"/>
      <point x="457" y="240"/>
      <point x="416" y="266"/>
      <point x="394" y="320" type="curve"/>
      <point x="376" y="294" type="line"/>
      <point x="405" y="215"/>
      <point x="451" y="168"/>
      <point x="505" y="168" type="curve" smooth="yes"/>
    </contour>
  </outline>
</glyph>
